<?xml version="1.0" encoding="utf-8"?>
<!-- Generator: Adobe Illustrator 25.2.0, SVG Export Plug-In . SVG Version: 6.00 Build 0)  -->
<svg version="1.1" id="Layer_1" xmlns="http://www.w3.org/2000/svg" xmlns:xlink="http://www.w3.org/1999/xlink" x="0px" y="0px"
	 viewBox="0 0 314 115" style="enable-background:new 0 0 314 115;" xml:space="preserve">
<style type="text/css">
	.st0{fill:url(#SVGID_1_);}
	.st1{fill:#FB203B;}
</style>
<path d="M54.2,22.4l1.9-0.7l0,0l0,0L54.2,22.4z M21.9,15.6l0.4,2l0.6-0.1l0.4-0.5L21.9,15.6z M20.4,16L20,14l-0.1,0l-0.1,0L20.4,16z
	 M6.2,76l-1.8,0.8l0,0l0,0L6.2,76z M21.3,90.6h2v-1.4L22,88.8L21.3,90.6z M21.7,106.8l2-0.1l0,0l0,0L21.7,106.8z M34.4,105.6l-2,0.1
	l0,0l0,0L34.4,105.6z M34,91.8l-0.3-2L32,90.1l0,1.8L34,91.8z M43.2,88.4l1,1.7l0,0l0,0L43.2,88.4z M34.7,83.7l0.9,1.8l0,0l0,0
	L34.7,83.7z M34.1,83.9l-2,0L32,88.8l3.5-3.5L34.1,83.9z M37.9,39.4l2,0.3l0,0L37.9,39.4z M25.4,38.7l-2-0.3l0,0l0,0L25.4,38.7z
	 M21.5,78.8l-1.7,1.1l3.5,5.4l0.2-6.4L21.5,78.8z M16.1,62.8l2-0.2l0,0L16.1,62.8z M19.8,30.5l0.1-2l-1.5-0.1L18,29.7L19.8,30.5z
	 M27.5,27.4l-1.9-0.7l0,0l0,0L27.5,27.4z M35.2,18.1l-0.1-2l0,0L35.2,18.1z M42.5,27.3l-1.9,0.5l0,0L42.5,27.3z M45.1,46.4l2-0.1
	l0,0l0,0L45.1,46.4z M56.1,21.8c-3.4-9.5-9.5-14.5-16.5-15.4c-6.8-0.9-13.9,2.3-19.2,7.8l2.9,2.8c4.6-4.9,10.5-7.3,15.8-6.6
	c5.1,0.7,10.2,4.3,13.2,12.7L56.1,21.8z M21.5,13.6c-0.6,0.1-1.2,0.3-1.5,0.4l1,3.9c0.6-0.2,0.8-0.2,1.3-0.3L21.5,13.6z M19.7,14.1
	C9.2,18.2,3.9,30.4,1.8,42.6c-2.1,12.4-0.9,26,2.5,34.1L8,75.2c-3.1-7.3-4.2-20-2.2-31.9c2-12,7-22.2,15.4-25.5L19.7,14.1z
	 M4.3,76.8c3.3,7.6,9.2,13,16.2,15.7l1.4-3.7c-6-2.3-11.1-7-14-13.6L4.3,76.8z M19.3,90.6c0,5.5,0.1,10.8,0.5,16.3l4-0.3
	c-0.4-5.4-0.5-10.6-0.5-16H19.3z M19.7,106.9c0.1,2.3,1.8,3.6,3.4,4.3c1.6,0.7,3.5,0.8,5.3,0.7c1.8-0.2,3.7-0.6,5.2-1.6
	c1.5-0.9,2.9-2.5,2.7-4.8l-4,0.3c0,0.2-0.1,0.6-0.8,1.1c-0.8,0.5-2,0.9-3.4,1c-1.4,0.1-2.6,0-3.5-0.4c-0.9-0.3-0.9-0.7-0.9-0.8
	L19.7,106.9z M36.4,105.5c-0.2-4.6-0.2-9.1-0.4-13.8l-4,0.1c0.1,4.5,0.1,9.2,0.4,13.9L36.4,105.5z M34.3,93.8
	c3.5-0.5,6.8-1.8,9.9-3.7l-2.1-3.4c-2.8,1.7-5.6,2.7-8.5,3.2L34.3,93.8z M44.3,90.1c10.4-6.5,14.9-19.2,16-32.1
	c1.2-13-0.9-26.7-4.2-36.2l-3.8,1.3c3.1,8.9,5.1,22.1,4,34.5C55.2,70.1,51,81.2,42.2,86.7L44.3,90.1z M33.8,81.9
	C33.9,81.9,34,81.8,33.8,81.9c-0.1,0-0.2,0-0.4,0.1c-0.2,0.1-0.5,0.2-0.7,0.5l2.8,2.8c-0.2,0.2-0.4,0.3-0.5,0.3c-0.1,0-0.1,0-0.1,0
	c0,0,0,0,0,0c0,0,0,0,0,0c0,0,0,0,0,0c0,0,0.1,0,0.1,0c0.1,0,0.3-0.1,0.5-0.2L33.8,81.9z M36.1,84c0.2-14.8,1.5-29.7,3.8-44.2
	l-4-0.6c-2.3,14.7-3.6,29.8-3.8,44.8L36.1,84z M39.9,39.7c0.2-1.1,0-2.1-0.5-3c-0.5-0.9-1.2-1.5-2-2c-1.5-0.9-3.4-1.3-5.2-1.3
	c-1.8,0-3.7,0.3-5.3,1c-1.5,0.7-3.2,1.9-3.5,4l3.9,0.6c0-0.1,0.2-0.5,1.2-1c1-0.4,2.3-0.7,3.6-0.7c1.4,0,2.5,0.3,3.2,0.7
	c0.3,0.2,0.5,0.4,0.5,0.5c0.1,0.1,0.1,0.2,0.1,0.5L39.9,39.7z M23.4,38.4c-2,13.3-3.4,26.8-3.9,40.4l4,0.1
	C24,65.6,25.4,52.2,27.4,39L23.4,38.4z M23.2,77.8c-3-4.6-4.8-11.4-5.1-15.1l-4,0.4c0.4,4.3,2.3,11.7,5.7,17L23.2,77.8z M18.1,62.6
	c-0.3-3-0.4-8.4,0.1-14.3c0.5-5.9,1.6-12.2,3.5-17.1L18,29.7c-2.2,5.5-3.3,12.2-3.8,18.3c-0.5,6.1-0.4,11.7-0.1,15L18.1,62.6z
	 M19.7,32.5c1.8,0.1,3.9-0.1,5.6-0.7c1.6-0.6,3.5-1.7,4.1-3.7l-3.8-1.2c-0.1,0.2-0.5,0.7-1.7,1.2c-1.1,0.4-2.6,0.6-3.9,0.5
	L19.7,32.5z M29.4,28.1c0.8-2.3,1.4-4.3,2.4-5.8c0.8-1.3,1.8-2.1,3.5-2.2l-0.2-4c-3.3,0.2-5.3,1.9-6.7,4c-1.3,2-2,4.6-2.7,6.6
	L29.4,28.1z M35.3,20.1c1,0,1.6,0.2,2,0.4c0.5,0.3,0.9,0.7,1.3,1.4c0.9,1.5,1.3,3.5,1.9,5.9l3.9-1c-0.5-2.1-1.2-4.8-2.4-6.9
	c-0.6-1.1-1.5-2.1-2.7-2.8c-1.2-0.7-2.7-1.1-4.3-1L35.3,20.1z M40.6,27.8c1.6,5.9,2.2,12.5,2.5,18.7l4-0.2c-0.4-6.3-1-13.2-2.7-19.5
	L40.6,27.8z M43.1,46.5c0.2,5.2,0.4,12.8-0.9,19.8c-1.3,7.1-3.8,13-8.5,15.7l2,3.5C42,81.8,44.9,74.3,46.2,67
	c1.3-7.5,1.2-15.4,0.9-20.7L43.1,46.5z M102.7,88.1l1.9-0.5l0,0L102.7,88.1z M101.5,23.4l2,0.4l0,0L101.5,23.4z M99.4,20l0.7-1.9
	L99.7,18h-0.4V20z M99.3,20l-0.9,1.8l0.4,0.2h0.5V20z M98.3,19.6l0.6-1.9l-0.1,0l-0.1,0L98.3,19.6z M89.1,22.7l2,0.4l0,0l0,0
	L89.1,22.7z M70.6,75.2l1.4,1.4l0.2-0.2l0.1-0.2L70.6,75.2z M70.2,75.7l-2-0.1L68,80.7l3.7-3.7L70.2,75.7z M82,12.6l1.9,0.5l0,0
	L82,12.6z M69.6,11.8l1.9,0.5l0,0l0,0L69.6,11.8z M57.4,89.1l-2,0.1l0,0L57.4,89.1z M66.4,91.7v-2h-0.3l-0.3,0.1L66.4,91.7z
	 M68.1,91.4l0.5,1.9l0.2,0l0.1-0.1L68.1,91.4z M80.6,79.7l1.6,1.2l0,0L80.6,79.7z M86.6,69.8l2-0.2l-0.7-6.3l-3.1,5.5L86.6,69.8z
	 M89.9,89.1L88,89.6l0,0l0,0L89.9,89.1z M104.6,87.6c-5.1-20.6-5.7-43.1-1.2-63.8L99.5,23c-4.7,21.3-4.1,44.4,1.2,65.6L104.6,87.6z
	 M103.5,23.8c0.3-1.3,0.1-2.6-0.6-3.6c-0.7-1-1.7-1.7-2.7-2.1l-1.4,3.7c0.5,0.2,0.7,0.4,0.8,0.6c0.1,0.1,0.1,0.2,0.1,0.6L103.5,23.8
	z M99.4,18h-0.1v4h0.1V18z M100.1,18.2c-0.4-0.2-0.9-0.4-1.2-0.5l-1.3,3.8c0.2,0.1,0.3,0.1,0.5,0.2c0.1,0,0.1,0,0.2,0.1c0,0,0,0,0,0
	c0,0,0,0,0,0c0,0,0,0,0,0L100.1,18.2z M98.8,17.7c-2.1-0.5-4.6-0.4-6.7,0.2c-2,0.6-4.4,1.9-4.9,4.4l3.9,0.8c0.1-0.3,0.5-0.9,2.1-1.4
	c1.5-0.4,3.3-0.5,4.6-0.1L98.8,17.7z M87.2,22.3c-3.9,17.8-8.4,36.6-18.3,51.9l3.4,2.2c10.3-15.9,14.9-35.4,18.8-53.2L87.2,22.3z
	 M69.2,73.8c-0.1,0.1-0.2,0.3-0.3,0.3c-0.1,0.1-0.1,0.2-0.1,0.2c0,0,0,0,0,0c0,0,0,0,0,0c0,0,0,0,0,0c0,0,0-0.1,0.1-0.1l2.8,2.8
	c0.1-0.1,0.2-0.3,0.3-0.3c0.1-0.1,0.1-0.2,0.1-0.2c0,0,0,0,0,0c0,0,0,0,0,0c0,0,0,0,0,0c0,0,0,0.1-0.1,0.1L69.2,73.8z M72.2,75.8
	c1.1-21,6.2-42.5,11.7-62.6l-3.9-1.1c-5.6,20.1-10.8,42-11.9,63.4L72.2,75.8z M84,13.2c0.3-1,0.2-2.1-0.2-3C83.4,9.2,82.7,8.5,82,8
	c-1.4-0.9-3.3-1.3-5.1-1.4c-1.8-0.1-3.7,0.2-5.3,0.9c-1.6,0.6-3.3,1.8-3.8,3.8l3.9,1c0.1-0.2,0.4-0.7,1.4-1.1c1-0.4,2.4-0.6,3.7-0.6
	c1.4,0,2.4,0.4,3,0.7c0.3,0.2,0.3,0.3,0.4,0.4c0,0,0.1,0.1,0,0.4L84,13.2z M67.7,11.3c-6.8,24.4-13.3,52-12.3,77.9l4-0.1
	c-0.9-25.3,5.4-52.3,12.2-76.7L67.7,11.3z M55.4,89.2c0.1,2.9,2.7,4.3,4.7,4.8c2.2,0.5,4.8,0.4,7-0.3l-1.2-3.8
	c-1.6,0.5-3.5,0.6-4.9,0.3c-1.5-0.4-1.6-0.9-1.6-1L55.4,89.2z M66.4,93.7c0.5,0,1-0.1,1.4-0.2c0.2,0,0.3-0.1,0.5-0.1
	c0.1,0,0.2-0.1,0.3-0.1l-1-3.9c-0.2,0-0.3,0.1-0.5,0.1c-0.1,0-0.2,0.1-0.3,0.1c-0.2,0.1-0.3,0.1-0.4,0.1V93.7z M68.9,93.2
	c5.9-2.5,10.2-7.9,13.4-12.4L79,78.5c-3.2,4.5-6.9,9-11.7,11L68.9,93.2z M82.2,80.8c2.3-3.3,4.2-6.7,6.1-10.1l-3.5-1.9
	c-1.9,3.4-3.7,6.6-5.9,9.7L82.2,80.8z M84.6,70c0.7,6.6,1.8,13.1,3.3,19.6l3.9-0.9c-1.5-6.3-2.6-12.7-3.3-19.1L84.6,70z M88,89.6
	c0.6,2.1,2.3,3.3,4,3.9c1.7,0.6,3.6,0.7,5.4,0.5c1.8-0.2,3.6-0.7,5-1.6c1.4-0.9,2.8-2.6,2.2-4.8l-3.9,0.9c0,0,0,0,0,0.1
	c0,0.1-0.2,0.2-0.5,0.5c-0.7,0.5-1.9,0.8-3.2,1c-1.4,0.1-2.7,0-3.7-0.3c-1-0.4-1.3-0.8-1.4-1.1L88,89.6z M152.1,52.4l2-0.2l0,0l0,0
	L152.1,52.4z M139.4,53.5l2-0.2l0,0l0,0L139.4,53.5z M139.5,79.6l-1.9-0.8l0,0l0,0L139.5,79.6z M117.7,80.3l1.5-1.4l0,0L117.7,80.3z
	 M133.6,39.2l0.6,1.9l0,0L133.6,39.2z M129.8,32.9l-0.1-2l0,0l0,0L129.8,32.9z M118.3,24.1l-1.8-0.9l0,0l0,0L118.3,24.1z
	 M127.6,16.1l0.3-2l0,0l0,0L127.6,16.1z M132.9,22.4l1.7-1.1l0,0l0,0L132.9,22.4z M137.6,33.1h2v-0.3l-0.1-0.3L137.6,33.1z
	 M146.7,35.5l-0.5-1.9l-0.1,0l-0.1,0L146.7,35.5z M150.4,31.9l-2,0l0,0.3l0.1,0.3L150.4,31.9z M152,9.5l2,0.4l0,0l0,0L152,9.5z
	 M139.5,8.8l-2-0.4l0,0l0,0L139.5,8.8z M138.8,13.6l-1.3,1.5l2.7,2.2l0.5-3.5L138.8,13.6z M108.8,19.1l-1.5-1.3l0,0l0,0L108.8,19.1z
	 M116,38.8l1.1,1.7l3.9-2.6l-4.6-1.1L116,38.8z M100.3,62.4l2,0.3l0,0L100.3,62.4z M113.5,89.7l0.9-1.8l0,0L113.5,89.7z M150.2,84.9
	l1.5,1.3l0,0l0,0L150.2,84.9z M154.1,52.2c-0.2-2.2-1.9-3.6-3.5-4.2c-1.6-0.7-3.6-0.8-5.4-0.7c-1.8,0.2-3.7,0.6-5.2,1.6
	c-1.5,0.9-2.9,2.5-2.7,4.8l4-0.4c0-0.2,0-0.5,0.8-1c0.8-0.5,2-0.9,3.4-1c1.4-0.1,2.7,0,3.6,0.4c0.9,0.4,1,0.7,1,0.9L154.1,52.2z
	 M137.4,53.6c0.2,1.9,0.4,4,0.7,6.2c0.3,2.2,0.5,4.5,0.7,6.8c0.3,4.7,0.2,9-1.1,12.1l3.7,1.5c1.7-4.1,1.7-9.1,1.4-13.9
	c-0.2-2.4-0.4-4.8-0.7-7c-0.3-2.2-0.5-4.3-0.7-6.1L137.4,53.6z M137.6,78.8c-1.1,2.8-4.1,4.4-8,4.4c-3.9,0-8-1.6-10.5-4.3l-2.9,2.7
	c3.4,3.7,8.6,5.6,13.4,5.6c4.8,0,9.8-2,11.7-6.9L137.6,78.8z M119.1,78.9c-6.2-6.6-6.2-14.6-2.6-21.9c3.6-7.3,10.6-13.5,17.7-15.9
	l-1.3-3.8c-8.2,2.8-16,9.7-20.1,18c-4.1,8.3-4.3,18.2,3.3,26.4L119.1,78.9z M134.2,41.1c1.8-0.6,3.4-1.6,4-3.1
	c0.7-1.8-0.2-3.3-1.1-4.2c-0.9-0.9-2.1-1.6-3.4-2.1c-1.2-0.5-2.7-0.8-4-0.7l0.2,4c0.7,0,1.5,0.1,2.4,0.4c0.9,0.3,1.6,0.8,1.9,1.2
	c0.4,0.4,0.1,0.4,0.2,0c0.1-0.2,0,0.3-1.5,0.8L134.2,41.1z M129.7,30.9c-1.7,0.1-3.5,0.2-5.1,0.1c-1.7-0.1-3.1-0.3-4.1-0.8
	c-1-0.4-1.3-0.9-1.4-1.4c-0.2-0.6-0.1-1.8,1-3.9l-3.6-1.8c-1.3,2.5-1.8,4.7-1.3,6.7c0.5,2.1,2.1,3.3,3.7,4.1c1.6,0.7,3.6,1,5.4,1.1
	c1.9,0.1,3.9,0,5.6-0.1L129.7,30.9z M120,25c0.2-0.3,0.6-0.9,1.3-1.8c0.7-0.8,1.6-1.7,2.5-2.6c0.9-0.9,1.8-1.6,2.6-2.1
	c0.4-0.2,0.7-0.4,0.9-0.5c0.2-0.1,0.2,0-0.1-0.1l0.7-3.9c-0.8-0.1-1.5,0.1-2,0.3c-0.5,0.2-1.1,0.5-1.6,0.8c-1,0.7-2.1,1.6-3.1,2.5
	c-1,0.9-2,2-2.8,2.9c-0.8,0.9-1.5,1.8-1.9,2.5L120,25z M127.2,18c-0.1,0,0.1,0,0.5,0.4c0.4,0.3,0.8,0.8,1.2,1.5
	c0.4,0.6,0.8,1.3,1.2,1.9c0.4,0.6,0.8,1.3,1.1,1.8l3.3-2.2c-0.3-0.4-0.6-0.9-1-1.6c-0.4-0.7-0.9-1.4-1.4-2.1
	c-0.5-0.7-1.1-1.5-1.7-2.1c-0.6-0.6-1.5-1.2-2.5-1.4L127.2,18z M131.2,23.5c1.9,3,3.5,6.6,4.5,10.1l3.8-1.1
	c-1.1-3.8-2.8-7.8-4.9-11.1L131.2,23.5z M135.6,33.1c0,1.4,0.7,2.6,1.6,3.3c0.9,0.7,2,1.2,3.1,1.4c2.2,0.5,4.8,0.3,7-0.4l-1.2-3.8
	c-1.6,0.5-3.5,0.6-4.9,0.3c-0.7-0.2-1.2-0.4-1.4-0.6c-0.2-0.1-0.2-0.2-0.2-0.3H135.6z M147.2,37.5c1.3-0.3,2.8-0.9,3.8-1.8
	c1.1-1,1.9-2.5,1.3-4.4l-3.8,1.3c0,0,0,0,0,0c0,0,0,0.1-0.2,0.2c-0.4,0.3-1.1,0.7-2.1,0.9L147.2,37.5z M152.4,31.9
	c0.1-7.1,0.5-16,1.6-22.1L150,9.1c-1.2,6.4-1.6,15.7-1.7,22.8L152.4,31.9z M154,9.8c0.2-1.1,0-2.1-0.4-3c-0.5-0.9-1.2-1.5-1.9-2
	c-1.5-0.9-3.4-1.3-5.2-1.3c-1.8,0-3.7,0.3-5.3,1c-1.5,0.7-3.2,1.9-3.6,3.9l3.9,0.7c0-0.1,0.2-0.6,1.3-1c1-0.4,2.3-0.7,3.7-0.6
	c1.4,0,2.5,0.3,3.1,0.7c0.3,0.2,0.4,0.4,0.5,0.5c0,0.1,0.1,0.2,0,0.5L154,9.8z M137.5,8.4c-0.2,1.5-0.5,3.2-0.7,4.9l4,0.6
	c0.2-1.7,0.5-3.3,0.7-4.8L137.5,8.4z M140.1,12c-4.5-3.7-9.9-5.6-15.7-4.8c-5.8,0.8-11.6,4.2-17,10.6l3,2.6c5-5.9,10-8.6,14.5-9.3
	c4.5-0.6,8.8,0.8,12.7,4L140.1,12z M107.3,17.9c-5.1,6.1-6.4,11.4-4,15.7c2.2,4,7.3,6.1,12.2,7.3l0.9-3.9c-4.8-1.1-8.3-2.9-9.6-5.3
	c-1.2-2.1-1.2-5.5,3.5-11.1L107.3,17.9z M114.9,37.2c-8.5,5.6-15.1,13.9-16.6,25l4,0.5c1.3-9.7,7-17.1,14.8-22.2L114.9,37.2z
	 M98.3,62.2c-1.6,11.5,3.1,23.9,14.3,29.3l1.7-3.6c-9.3-4.5-13.5-15-12.1-25.2L98.3,62.2z M112.7,91.5c5,2.4,12.9,3.2,20.3,2.5
	c3.7-0.4,7.5-1.2,10.7-2.4c3.2-1.2,6.2-3,8.1-5.4l-3.1-2.5c-1.4,1.7-3.6,3.1-6.5,4.2c-2.9,1.1-6.2,1.8-9.7,2.2
	c-7,0.7-14.1-0.1-18.1-2.1L112.7,91.5z M151.8,86.1c1.8-2.2,2.8-5,3.3-8c0.6-2.9,0.7-6.2,0.6-9.3c-0.2-6.2-1.3-12.8-1.6-16.6l-4,0.3
	c0.4,4.3,1.4,10.3,1.6,16.4c0.1,3,0,5.9-0.5,8.5c-0.5,2.6-1.3,4.7-2.5,6.2L151.8,86.1z M203.1,52.4l2-0.2l0,0l0,0L203.1,52.4z
	 M190.3,53.5l2-0.2l0,0l0,0L190.3,53.5z M190.4,79.6l-1.9-0.8l0,0l0,0L190.4,79.6z M168.6,80.3l1.5-1.4l0,0L168.6,80.3z M184.5,39.2
	l0.6,1.9l0,0L184.5,39.2z M180.8,32.9l-0.1-2l0,0l0,0L180.8,32.9z M169.2,24.1l-1.8-0.9l0,0l0,0L169.2,24.1z M178.5,16.1l0.3-2l0,0
	l0,0L178.5,16.1z M183.8,22.4l1.7-1.1l0,0l0,0L183.8,22.4z M188.5,33.1h2v-0.3l-0.1-0.3L188.5,33.1z M197.6,35.5l-0.5-1.9l-0.1,0
	l-0.1,0L197.6,35.5z M201.3,31.9l-2,0l0,0.3l0.1,0.3L201.3,31.9z M202.9,9.5l2,0.4l0,0l0,0L202.9,9.5z M190.4,8.8l-2-0.4l0,0l0,0
	L190.4,8.8z M189.7,13.6l-1.3,1.5l2.7,2.2l0.5-3.5L189.7,13.6z M159.7,19.1l-1.5-1.3l0,0l0,0L159.7,19.1z M166.9,38.8l1.1,1.7
	l3.9-2.6l-4.6-1.1L166.9,38.8z M151.3,62.4l2,0.3l0,0L151.3,62.4z M164.5,89.7l0.9-1.8l0,0L164.5,89.7z M201.2,84.9l1.5,1.3l0,0l0,0
	L201.2,84.9z M205,52.2c-0.2-2.2-1.9-3.6-3.5-4.2c-1.6-0.7-3.6-0.8-5.4-0.7c-1.8,0.2-3.7,0.6-5.2,1.6c-1.5,0.9-2.9,2.5-2.7,4.8
	l4-0.4c0-0.2,0-0.5,0.8-1c0.8-0.5,2-0.9,3.4-1c1.4-0.1,2.7,0,3.6,0.4c0.9,0.4,1,0.7,1,0.9L205,52.2z M188.3,53.6
	c0.2,1.9,0.4,4,0.7,6.2c0.3,2.2,0.5,4.5,0.7,6.8c0.3,4.7,0.2,9-1.1,12.1l3.7,1.5c1.7-4.1,1.7-9.1,1.4-13.9c-0.2-2.4-0.4-4.8-0.7-7
	c-0.3-2.2-0.5-4.3-0.7-6.1L188.3,53.6z M188.6,78.8c-1.1,2.8-4.1,4.4-8,4.4c-3.9,0-8-1.6-10.5-4.3l-2.9,2.7
	c3.4,3.7,8.6,5.6,13.4,5.6c4.8,0,9.8-2,11.7-6.9L188.6,78.8z M170.1,78.9c-6.2-6.6-6.1-14.6-2.6-21.9c3.6-7.3,10.6-13.5,17.7-15.9
	l-1.3-3.8c-8.2,2.8-16,9.7-20.1,18c-4.1,8.3-4.3,18.2,3.3,26.4L170.1,78.9z M185.2,41.1c1.8-0.6,3.4-1.6,4-3.1
	c0.7-1.8-0.2-3.3-1.1-4.2c-0.9-0.9-2.1-1.6-3.4-2.1c-1.2-0.5-2.7-0.8-4-0.7l0.2,4c0.7,0,1.5,0.1,2.4,0.4c0.9,0.3,1.6,0.8,1.9,1.2
	c0.4,0.4,0.1,0.4,0.2,0c0.1-0.2,0,0.3-1.5,0.8L185.2,41.1z M180.6,30.9c-1.7,0.1-3.5,0.2-5.1,0.1c-1.7-0.1-3.1-0.3-4.1-0.8
	c-1-0.4-1.3-0.9-1.4-1.4c-0.2-0.6-0.1-1.8,1-3.9l-3.5-1.8c-1.3,2.5-1.8,4.7-1.3,6.7c0.5,2.1,2.1,3.3,3.7,4.1c1.6,0.7,3.6,1,5.4,1.1
	c1.9,0.1,3.9,0,5.6-0.1L180.6,30.9z M171,25c0.2-0.3,0.6-0.9,1.3-1.8c0.7-0.8,1.6-1.7,2.5-2.6c0.9-0.9,1.8-1.6,2.6-2.1
	c0.4-0.2,0.7-0.4,0.9-0.5c0.2-0.1,0.2,0-0.1-0.1l0.7-3.9c-0.8-0.1-1.5,0.1-2,0.3c-0.5,0.2-1.1,0.5-1.6,0.8c-1,0.7-2.1,1.6-3.1,2.5
	c-1,0.9-2,2-2.8,2.9c-0.8,0.9-1.5,1.8-1.9,2.5L171,25z M178.2,18c-0.1,0,0.1,0,0.5,0.4c0.4,0.3,0.8,0.8,1.2,1.5
	c0.4,0.6,0.8,1.3,1.2,1.9c0.4,0.6,0.8,1.3,1.1,1.8l3.3-2.2c-0.3-0.4-0.6-0.9-1-1.6c-0.4-0.7-0.9-1.4-1.4-2.1
	c-0.5-0.7-1.1-1.5-1.7-2.1c-0.6-0.6-1.5-1.2-2.5-1.4L178.2,18z M182.1,23.5c1.9,3,3.5,6.6,4.5,10.1l3.8-1.1
	c-1.1-3.8-2.8-7.8-4.9-11.1L182.1,23.5z M186.5,33.1c0,1.4,0.7,2.6,1.6,3.3c0.9,0.7,2,1.2,3.1,1.4c2.2,0.5,4.8,0.3,7-0.4l-1.2-3.8
	c-1.6,0.5-3.5,0.6-4.9,0.3c-0.7-0.2-1.2-0.4-1.4-0.6c-0.2-0.1-0.2-0.2-0.2-0.3H186.5z M198.1,37.5c1.3-0.3,2.8-0.9,3.8-1.8
	c1.1-1,1.9-2.5,1.3-4.4l-3.8,1.3c0,0,0,0,0,0c0,0,0,0.1-0.2,0.2c-0.4,0.3-1.1,0.7-2.1,0.9L198.1,37.5z M203.3,31.9
	c0.1-7.1,0.5-16,1.6-22.1L201,9.1c-1.2,6.4-1.6,15.7-1.7,22.8L203.3,31.9z M204.9,9.8c0.2-1.1,0-2.1-0.4-3c-0.5-0.9-1.2-1.5-1.9-2
	c-1.5-0.9-3.4-1.3-5.2-1.3c-1.8,0-3.7,0.3-5.3,1c-1.5,0.7-3.2,1.9-3.6,3.9l3.9,0.7c0-0.1,0.2-0.6,1.3-1c1-0.4,2.3-0.7,3.7-0.6
	c1.4,0,2.5,0.3,3.1,0.7c0.3,0.2,0.4,0.4,0.5,0.5c0,0.1,0.1,0.2,0,0.5L204.9,9.8z M188.5,8.4c-0.2,1.5-0.5,3.2-0.7,4.9l4,0.6
	c0.2-1.7,0.5-3.3,0.7-4.8L188.5,8.4z M191,12c-4.5-3.7-9.9-5.6-15.7-4.8c-5.8,0.8-11.6,4.2-17,10.6l3,2.6c5-5.9,10-8.6,14.5-9.3
	c4.5-0.6,8.8,0.8,12.7,4L191,12z M158.2,17.9c-5.1,6.1-6.4,11.4-4,15.7c2.2,4,7.3,6.1,12.2,7.3l0.9-3.9c-4.8-1.1-8.3-2.9-9.6-5.3
	c-1.2-2.1-1.2-5.5,3.5-11.1L158.2,17.9z M165.9,37.2c-8.5,5.6-15.1,13.9-16.6,25l4,0.5c1.3-9.7,7-17.1,14.8-22.2L165.9,37.2z
	 M149.3,62.2c-1.6,11.5,3.1,23.9,14.3,29.3l1.7-3.6c-9.3-4.5-13.5-15-12.1-25.2L149.3,62.2z M163.6,91.5c5,2.4,12.9,3.2,20.3,2.5
	c3.7-0.4,7.5-1.2,10.7-2.4c3.2-1.2,6.2-3,8.1-5.4l-3.1-2.5c-1.4,1.7-3.6,3.1-6.5,4.2c-2.9,1.1-6.2,1.8-9.7,2.2
	c-7,0.7-14.1-0.1-18.1-2.1L163.6,91.5z M202.7,86.1c1.8-2.2,2.8-5,3.3-8c0.6-2.9,0.7-6.2,0.6-9.3c-0.2-6.2-1.3-12.8-1.6-16.6l-4,0.3
	c0.4,4.3,1.4,10.3,1.6,16.4c0.1,3,0,5.9-0.5,8.5c-0.5,2.6-1.3,4.7-2.5,6.2L202.7,86.1z M255.9,5.7l2,0v0H255.9z M243.1,6.9l-2,0l0,0
	v0H243.1z M241.7,69.6l-1.9,0.6l3.9-0.5L241.7,69.6z M215.9,8.8L214,9.4l0,0.1l0.1,0.1L215.9,8.8z M203.4,9.7l-1.9-0.5l-0.1,0.2v0.2
	H203.4z M203.4,10.5h-2v0.1l0,0.1L203.4,10.5z M203.4,86.5l2,0.3l0,0l0,0L203.4,86.5z M216,85.5l-2-0.2l0,0l0,0L216,85.5z
	 M217.9,41.8l1.8-0.8l-3.8,0.8L217.9,41.8z M239.7,109.9l2,0.2l0-0.3l-0.1-0.3L239.7,109.9z M245.3,112.8l0.1-2l-0.1,0l-0.1,0
	L245.3,112.8z M252.3,108.7l-2-0.1l0,0.3l0.1,0.3L252.3,108.7z M257.9,5.7c0-2.3-1.6-3.7-3.2-4.3c-1.6-0.7-3.5-0.9-5.3-0.7
	c-1.8,0.1-3.7,0.6-5.2,1.5c-1.5,0.9-3,2.4-3,4.6l4,0.1c0-0.3,0.2-0.8,1.1-1.3c0.9-0.5,2.1-0.9,3.5-1c1.4-0.1,2.6,0.1,3.4,0.4
	c0.8,0.3,0.8,0.6,0.8,0.6H257.9z M241.1,6.9c0,20.9-0.5,41.8-1.4,62.7l4,0.2c0.9-20.9,1.4-42,1.4-62.9H241.1z M243.6,69
	c-7-21.1-16-41.6-26-61.2l-3.6,1.8c9.9,19.4,18.8,39.7,25.7,60.6L243.6,69z M217.8,8.1c-0.6-1.8-2.2-2.8-3.6-3.2
	c-1.5-0.5-3.2-0.6-4.8-0.5c-1.6,0.1-3.3,0.5-4.7,1.2c-1.4,0.7-2.8,1.8-3.2,3.6l3.9,0.9c0-0.2,0.3-0.6,1.1-1c0.8-0.4,2-0.7,3.2-0.8
	c1.2-0.1,2.4,0,3.2,0.3c0.9,0.3,1.1,0.6,1.1,0.7L217.8,8.1z M201.4,9.7C201.4,9.7,201.4,9.7,201.4,9.7
	C201.4,9.7,201.4,9.7,201.4,9.7C201.4,9.7,201.4,9.7,201.4,9.7C201.4,9.7,201.4,9.7,201.4,9.7C201.4,9.7,201.4,9.7,201.4,9.7
	C201.4,9.7,201.4,9.7,201.4,9.7C201.4,9.7,201.4,9.7,201.4,9.7C201.4,9.7,201.4,9.7,201.4,9.7C201.4,9.7,201.4,9.7,201.4,9.7
	C201.4,9.7,201.4,9.7,201.4,9.7C201.4,9.7,201.4,9.7,201.4,9.7C201.4,9.7,201.4,9.7,201.4,9.7C201.4,9.7,201.4,9.7,201.4,9.7
	C201.4,9.7,201.4,9.7,201.4,9.7C201.4,9.7,201.4,9.7,201.4,9.7C201.4,9.7,201.4,9.7,201.4,9.7C201.4,9.7,201.4,9.7,201.4,9.7
	C201.4,9.7,201.4,9.7,201.4,9.7C201.4,9.7,201.4,9.7,201.4,9.7C201.4,9.7,201.4,9.7,201.4,9.7C201.4,9.7,201.4,9.7,201.4,9.7
	C201.4,9.7,201.4,9.7,201.4,9.7C201.4,9.7,201.4,9.7,201.4,9.7C201.4,9.7,201.4,9.7,201.4,9.7C201.4,9.7,201.4,9.7,201.4,9.7
	C201.4,9.7,201.4,9.7,201.4,9.7C201.4,9.7,201.4,9.7,201.4,9.7C201.4,9.7,201.4,9.7,201.4,9.7C201.4,9.7,201.4,9.7,201.4,9.7
	C201.4,9.7,201.4,9.7,201.4,9.7C201.4,9.7,201.4,9.7,201.4,9.7C201.4,9.7,201.4,9.7,201.4,9.7C201.4,9.7,201.4,9.7,201.4,9.7
	C201.4,9.7,201.4,9.7,201.4,9.7C201.4,9.7,201.4,9.7,201.4,9.7C201.4,9.7,201.4,9.7,201.4,9.7C201.4,9.7,201.4,9.7,201.4,9.7
	C201.4,9.7,201.4,9.7,201.4,9.7C201.4,9.7,201.4,9.7,201.4,9.7C201.4,9.7,201.4,9.7,201.4,9.7C201.4,9.7,201.4,9.7,201.4,9.7
	C201.4,9.7,201.4,9.7,201.4,9.7C201.4,9.7,201.4,9.7,201.4,9.7C201.4,9.7,201.4,9.7,201.4,9.7C201.4,9.7,201.4,9.7,201.4,9.7
	C201.4,9.7,201.4,9.7,201.4,9.7C201.4,9.7,201.4,9.7,201.4,9.7C201.4,9.7,201.4,9.7,201.4,9.7C201.4,9.7,201.4,9.7,201.4,9.7
	C201.4,9.7,201.4,9.7,201.4,9.7C201.4,9.7,201.4,9.7,201.4,9.7C201.4,9.7,201.4,9.7,201.4,9.7C201.4,9.7,201.4,9.7,201.4,9.7
	C201.4,9.7,201.4,9.7,201.4,9.7C201.4,9.7,201.4,9.7,201.4,9.7C201.4,9.7,201.4,9.7,201.4,9.7C201.4,9.7,201.4,9.7,201.4,9.7
	C201.4,9.7,201.4,9.7,201.4,9.7C201.4,9.7,201.4,9.7,201.4,9.7C201.4,9.7,201.4,9.7,201.4,9.7C201.4,9.7,201.4,9.7,201.4,9.7
	C201.4,9.7,201.4,9.7,201.4,9.7C201.4,9.7,201.4,9.7,201.4,9.7C201.4,9.7,201.4,9.7,201.4,9.7C201.4,9.7,201.4,9.7,201.4,9.7
	C201.4,9.7,201.4,9.7,201.4,9.7C201.4,9.7,201.4,9.7,201.4,9.7C201.4,9.7,201.4,9.7,201.4,9.7C201.4,9.7,201.4,9.7,201.4,9.7
	C201.4,9.7,201.4,9.7,201.4,9.7C201.4,9.7,201.4,9.7,201.4,9.7C201.4,9.7,201.4,9.7,201.4,9.7C201.4,9.7,201.4,9.7,201.4,9.7
	C201.4,9.7,201.4,9.7,201.4,9.7C201.4,9.7,201.4,9.7,201.4,9.7C201.4,9.8,201.4,9.8,201.4,9.7C201.4,9.8,201.4,9.8,201.4,9.7
	C201.4,9.8,201.4,9.8,201.4,9.7C201.4,9.8,201.4,9.8,201.4,9.7C201.4,9.8,201.4,9.8,201.4,9.7C201.4,9.8,201.4,9.8,201.4,9.7
	C201.4,9.8,201.4,9.8,201.4,9.7C201.4,9.8,201.4,9.8,201.4,9.7C201.4,9.8,201.4,9.8,201.4,9.7C201.4,9.8,201.4,9.8,201.4,9.7
	C201.4,9.8,201.4,9.8,201.4,9.7C201.4,9.8,201.4,9.8,201.4,9.7C201.4,9.8,201.4,9.8,201.4,9.7C201.4,9.8,201.4,9.8,201.4,9.7
	C201.4,9.8,201.4,9.8,201.4,9.7C201.4,9.8,201.4,9.8,201.4,9.7C201.4,9.8,201.4,9.8,201.4,9.7C201.4,9.8,201.4,9.8,201.4,9.7
	C201.4,9.8,201.4,9.8,201.4,9.7C201.4,9.8,201.4,9.8,201.4,9.7C201.4,9.8,201.4,9.8,201.4,9.7C201.4,9.8,201.4,9.8,201.4,9.7
	C201.4,9.8,201.4,9.8,201.4,9.7C201.4,9.8,201.4,9.8,201.4,9.7C201.4,9.8,201.4,9.8,201.4,9.7C201.4,9.8,201.4,9.8,201.4,9.7
	C201.4,9.8,201.4,9.8,201.4,9.7C201.4,9.8,201.4,9.8,201.4,9.7C201.4,9.8,201.4,9.8,201.4,9.7C201.4,9.8,201.4,9.8,201.4,9.7
	C201.4,9.8,201.4,9.8,201.4,9.7C201.4,9.8,201.4,9.8,201.4,9.7C201.4,9.8,201.4,9.8,201.4,9.7C201.4,9.8,201.4,9.8,201.4,9.7
	C201.4,9.8,201.4,9.8,201.4,9.7C201.4,9.8,201.4,9.8,201.4,9.7C201.4,9.8,201.4,9.8,201.4,9.7C201.4,9.8,201.4,9.8,201.4,9.7
	C201.4,9.8,201.4,9.8,201.4,9.7C201.4,9.8,201.4,9.8,201.4,9.7C201.4,9.8,201.4,9.8,201.4,9.7C201.4,9.8,201.4,9.8,201.4,9.7
	C201.4,9.8,201.4,9.8,201.4,9.7C201.4,9.8,201.4,9.8,201.4,9.7C201.4,9.8,201.4,9.8,201.4,9.7C201.4,9.8,201.4,9.8,201.4,9.7
	C201.4,9.8,201.4,9.8,201.4,9.7C201.4,9.8,201.4,9.8,201.4,9.7C201.4,9.8,201.4,9.8,201.4,9.7C201.4,9.8,201.4,9.8,201.4,9.7
	C201.4,9.8,201.4,9.8,201.4,9.7C201.4,9.8,201.4,9.8,201.4,9.7C201.4,9.8,201.4,9.8,201.4,9.7C201.4,9.8,201.4,9.8,201.4,9.7
	C201.4,9.8,201.4,9.8,201.4,9.7C201.4,9.8,201.4,9.8,201.4,9.7C201.4,9.8,201.4,9.8,201.4,9.7C201.4,9.8,201.4,9.8,201.4,9.7
	C201.4,9.8,201.4,9.8,201.4,9.7C201.4,9.8,201.4,9.8,201.4,9.7C201.4,9.8,201.4,9.8,201.4,9.7C201.4,9.8,201.4,9.8,201.4,9.7
	C201.4,9.8,201.4,9.8,201.4,9.7C201.4,9.8,201.4,9.8,201.4,9.7C201.4,9.8,201.4,9.8,201.4,9.7C201.4,9.8,201.4,9.8,201.4,9.7
	C201.4,9.8,201.4,9.8,201.4,9.7C201.4,9.8,201.4,9.8,201.4,9.7C201.4,9.8,201.4,9.8,201.4,9.7c0,0.1,0,0.1,0,0.1s0,0,0,0s0,0,0,0
	s0,0,0,0s0,0,0,0c0,0,0,0,0,0s0,0,0,0c0,0,0,0,0,0s0,0,0,0c0,0,0,0,0,0s0,0,0,0c0,0,0,0,0,0c0,0,0,0,0,0s0,0,0,0c0,0,0,0,0,0
	s0,0,0,0c0,0,0,0,0,0s0,0,0,0c0,0,0,0,0,0c0,0,0,0,0,0s0,0,0,0c0,0,0,0,0,0s0,0,0,0c0,0,0,0,0,0s0,0,0,0c0,0,0,0,0,0c0,0,0,0,0,0
	s0,0,0,0s0,0,0,0s0,0,0,0s0,0,0,0s0,0,0,0c0,0,0,0,0,0s0,0,0,0s0,0,0,0s0,0,0,0c0,0,0,0,0,0s0,0,0,0c0,0,0,0,0,0s0,0,0,0s0,0,0,0
	c0,0,0,0,0,0s0,0,0,0c0,0,0,0,0,0s0,0,0,0c0,0,0,0,0,0s0,0,0,0s0,0,0,0c0,0,0,0,0,0s0,0,0,0c0,0,0,0,0,0s0,0,0,0c0,0,0,0,0,0
	s0,0,0,0c0,0,0,0,0,0c0,0,0,0,0,0s0,0,0,0c0,0,0,0,0,0s0,0,0,0s0,0,0,0s0,0,0,0c0,0,0,0,0,0s0,0,0,0s0,0,0,0s0,0,0,0s0,0,0,0
	s0,0,0,0s0,0,0,0c0,0,0,0,0,0s0,0,0,0c0,0,0,0,0,0s0,0,0,0c0,0,0,0,0,0s0,0,0,0c0,0,0,0,0,0c0,0,0,0,0,0s0,0,0,0c0,0,0,0,0,0
	s0,0,0,0c0,0,0,0,0,0s0,0,0,0c0,0,0,0,0,0c0,0,0,0,0,0s0,0,0,0c0,0,0,0,0,0s0,0,0,0c0,0,0,0,0,0s0,0,0,0c0,0,0,0,0,0s0,0,0,0
	s0,0,0,0s0,0,0,0s0,0,0,0s0,0,0,0s0,0,0,0s0,0,0,0s0,0,0,0s0,0,0,0s0,0,0,0s0,0,0,0s0,0,0,0c0,0,0,0,0,0s0,0,0,0c0,0,0,0,0,0
	c0,0,0,0,0,0s0,0,0,0c0,0,0,0,0,0s0,0,0,0c0,0,0,0,0,0s0,0,0,0c0,0,0,0,0,0c0,0,0,0,0,0s0,0,0,0c0,0,0,0,0,0s0,0,0,0c0,0,0,0,0,0
	s0,0,0,0c0,0,0,0,0,0c0,0,0,0,0,0s0,0,0,0c0,0,0,0,0,0s0,0,0,0c0,0,0,0,0,0s0,0,0,0s0,0,0,0c0,0,0,0,0,0s0,0,0,0s0,0,0,0s0,0,0,0
	s0,0,0,0s0,0,0,0s0,0,0,0s0,0,0,0s0,0,0,0s0,0,0,0c0,0,0,0,0,0s0,0,0,0c0,0,0,0,0,0s0,0,0,0c0,0,0,0,0,0c0,0,0,0,0,0s0,0,0,0
	c0,0,0,0,0,0s0,0,0,0c0,0,0,0,0,0s0,0,0,0c0,0,0,0,0,0c0,0,0,0,0,0s0,0,0,0c0,0,0,0,0,0s0,0,0,0c0,0,0,0,0,0s0,0,0,0c0,0,0,0,0,0
	c0,0,0,0,0,0s0,0,0,0s0,0,0,0s0,0,0,0s0,0,0,0s0,0,0,0s0,0,0,0c0,0,0,0,0,0s0,0,0,0s0,0,0,0s0,0,0,0s0,0,0,0c0,0,0,0,0,0s0,0,0,0
	c0,0,0,0,0,0c0,0,0,0,0,0s0,0,0,0c0,0,0,0,0,0s0,0,0,0c0,0,0,0,0,0s0,0,0,0c0,0,0,0,0,0c0,0,0,0,0,0s0,0,0,0c0,0,0,0,0,0s0,0,0,0
	c0,0,0,0,0,0s0,0,0,0c0,0,0,0,0,0c0,0,0,0,0,0s0,0,0,0c0,0,0,0,0,0s0,0,0,0c0,0,0,0,0,0s0,0,0,0s0,0,0,0s0,0,0,0s0,0,0,0s0,0,0,0
	s0,0,0,0s0,0,0,0s0,0,0,0s0,0,0,0c0,0,0,0,0,0c0,0,0,0,0,0s0,0,0,0c0,0,0,0,0,0s0,0,0,0c0,0,0,0,0,0s0,0,0,0c0,0,0,0,0,0
	c0,0,0,0,0,0s0,0,0,0c0,0,0,0,0,0s0,0,0,0c0,0,0,0,0,0s0,0,0,0c0,0,0,0,0,0c0,0,0,0,0,0s0,0,0,0c0,0,0,0,0,0s0,0,0,0c0,0,0,0,0,0
	s0,0,0,0c0,0,0,0,0,0c0,0,0,0,0,0s0,0,0,0s0,0,0,0s0,0,0,0s0,0,0,0s0,0,0,0s0,0,0,0s0,0,0,0s0,0,0,0s0,0,0,0s0,0,0,0s0,0,0,0
	c0,0,0,0,0,0s0,0,0,0s0,0,0,0c0,0,0,0,0,0s0,0,0,0c0,0,0,0,0,0s0,0,0,0c0,0,0,0,0,0s0,0,0,0c0,0,0,0,0,0c0,0,0,0,0,0s0,0,0,0
	c0,0,0,0,0,0s0,0,0,0c0,0,0,0,0,0s0,0,0,0c0,0,0,0,0,0c0,0,0,0,0,0s0,0,0,0c0,0,0,0,0,0s0,0,0,0c0,0,0,0,0,0s0,0,0,0c0,0,0,0,0,0
	s0,0,0,0s0,0,0,0s0,0,0,0s0,0,0,0s0,0,0,0s0,0,0,0c0,0,0,0,0,0s0,0,0,0c0,0,0,0,0,0s0,0,0,0c0,0,0,0,0,0s0,0,0,0c0,0,0,0,0,0
	s0,0,0,0s0,0,0,0c0,0,0,0,0,0s0,0,0,0c0,0,0,0,0,0s0,0,0,0c0,0,0,0,0,0s0,0,0,0s0,0,0,0c0,0,0,0,0,0s0,0,0,0c0,0,0,0,0,0s0,0,0,0
	c0,0,0,0,0,0s0,0,0,0c0,0,0,0,0,0c0,0,0,0,0,0s0,0,0,0s0,0,0,0s0,0,0,0s0,0,0,0s0,0,0,0c0,0,0,0,0,0s0,0,0,0s0,0,0,0c0,0,0,0,0,0
	c0,0,0,0,0,0c0,0,0,0,0,0s0,0,0,0s0,0,0,0s0,0,0,0s0,0,0,0c0,0,0,0,0,0c0,0,0,0,0,0c0,0,0,0,0,0c0,0,0,0,0,0c0,0,0,0,0,0
	c0,0,0,0,0,0c0,0,0,0,0,0s0,0,0,0s0,0,0,0s0,0,0,0s0,0,0,0s0,0,0,0c0,0,0,0,0,0c0,0,0,0,0,0c0,0,0,0,0,0c0,0,0,0,0,0c0,0,0,0,0,0
	c0,0,0,0,0,0c0,0,0,0,0,0c0,0,0,0,0,0c0,0,0,0,0,0c0,0,0,0,0,0c0,0,0,0,0,0c0,0,0,0,0,0c0,0,0,0,0,0c0,0,0,0,0,0c0,0,0,0,0,0
	c0,0,0,0,0,0c0,0,0,0,0,0c0,0,0,0,0,0c0,0,0,0,0,0c0,0,0,0,0,0c0,0,0,0,0,0c0,0,0,0,0,0c0,0,0,0,0,0c0,0,0,0,0,0c0,0,0,0,0,0
	c0,0,0,0,0,0c0,0,0,0,0,0c0,0,0,0,0,0c0,0,0,0,0,0c0,0,0,0,0,0c0,0,0,0,0,0c0,0,0,0,0,0c0,0,0,0,0,0c0,0,0,0,0,0c0,0,0,0,0,0
	c0,0,0,0,0,0c0,0,0,0,0,0c0,0,0,0,0,0c0,0,0,0,0,0c0,0,0,0,0,0c0,0,0,0,0,0c0,0,0,0,0,0c0,0,0,0,0,0c0,0,0,0,0,0c0,0,0,0,0,0
	c0,0,0,0,0,0c0,0,0,0,0,0c0,0,0,0,0,0c0,0,0,0,0,0c0,0,0,0,0,0c0,0,0,0,0,0c0,0,0,0,0,0c0,0,0,0,0,0c0,0,0,0,0,0s0,0,0,0s0,0,0,0h4
	c0,0,0,0,0,0s0,0,0,0s0,0,0,0c0,0,0,0,0,0c0,0,0,0,0,0c0,0,0,0,0,0c0,0,0,0,0,0c0,0,0,0,0,0c0,0,0,0,0,0c0,0,0,0,0,0c0,0,0,0,0,0
	c0,0,0,0,0,0c0,0,0,0,0,0c0,0,0,0,0,0c0,0,0,0,0,0c0,0,0,0,0,0c0,0,0,0,0,0c0,0,0,0,0,0c0,0,0,0,0,0c0,0,0,0,0,0c0,0,0,0,0,0
	c0,0,0,0,0,0c0,0,0,0,0,0c0,0,0,0,0,0c0,0,0,0,0,0c0,0,0,0,0,0c0,0,0,0,0,0c0,0,0,0,0,0c0,0,0,0,0,0c0,0,0,0,0,0c0,0,0,0,0,0
	c0,0,0,0,0,0c0,0,0,0,0,0c0,0,0,0,0,0c0,0,0,0,0,0c0,0,0,0,0,0c0,0,0,0,0,0c0,0,0,0,0,0c0,0,0,0,0,0c0,0,0,0,0,0c0,0,0,0,0,0
	c0,0,0,0,0,0c0,0,0,0,0,0c0,0,0,0,0,0c0,0,0,0,0,0c0,0,0,0,0,0c0,0,0,0,0,0c0,0,0,0,0,0c0,0,0,0,0,0c0,0,0,0,0,0c0,0,0,0,0,0
	c0,0,0,0,0,0c0,0,0,0,0,0c0,0,0,0,0,0c0,0,0,0,0,0c0,0,0,0,0,0c0,0,0,0,0,0s0,0,0,0s0,0,0,0s0,0,0,0s0,0,0,0s0,0,0,0c0,0,0,0,0,0
	c0,0,0,0,0,0c0,0,0,0,0,0c0,0,0,0,0,0c0,0,0,0,0,0c0,0,0,0,0,0c0,0,0,0,0,0s0,0,0,0s0,0,0,0s0,0,0,0s0,0,0,0c0,0,0,0,0,0
	c0,0,0,0,0,0c0,0,0,0,0,0s0,0,0,0s0,0,0,0c0,0,0,0,0,0s0,0,0,0s0,0,0,0s0,0,0,0s0,0,0,0s0,0,0,0c0,0,0,0,0,0c0,0,0,0,0,0s0,0,0,0
	c0,0,0,0,0,0s0,0,0,0c0,0,0,0,0,0s0,0,0,0c0,0,0,0,0,0s0,0,0,0s0,0,0,0c0,0,0,0,0,0s0,0,0,0c0,0,0,0,0,0s0,0,0,0c0,0,0,0,0,0
	s0,0,0,0s0,0,0,0c0,0,0,0,0,0s0,0,0,0c0,0,0,0,0,0s0,0,0,0c0,0,0,0,0,0s0,0,0,0c0,0,0,0,0,0s0,0,0,0s0,0,0,0s0,0,0,0s0,0,0,0
	s0,0,0,0s0,0,0,0c0,0,0,0,0,0s0,0,0,0c0,0,0,0,0,0s0,0,0,0c0,0,0,0,0,0s0,0,0,0c0,0,0,0,0,0c0,0,0,0,0,0s0,0,0,0c0,0,0,0,0,0
	s0,0,0,0c0,0,0,0,0,0s0,0,0,0c0,0,0,0,0,0c0,0,0,0,0,0s0,0,0,0c0,0,0,0,0,0s0,0,0,0c0,0,0,0,0,0s0,0,0,0c0,0,0,0,0,0s0,0,0,0
	s0,0,0,0c0,0,0,0,0,0s0,0,0,0s0,0,0,0s0,0,0,0s0,0,0,0s0,0,0,0s0,0,0,0s0,0,0,0s0,0,0,0s0,0,0,0s0,0,0,0s0,0,0,0c0,0,0,0,0,0
	c0,0,0,0,0,0s0,0,0,0c0,0,0,0,0,0s0,0,0,0c0,0,0,0,0,0s0,0,0,0c0,0,0,0,0,0c0,0,0,0,0,0s0,0,0,0c0,0,0,0,0,0s0,0,0,0c0,0,0,0,0,0
	s0,0,0,0c0,0,0,0,0,0c0,0,0,0,0,0s0,0,0,0c0,0,0,0,0,0s0,0,0,0c0,0,0,0,0,0s0,0,0,0c0,0,0,0,0,0c0,0,0,0,0,0s0,0,0,0s0,0,0,0
	s0,0,0,0s0,0,0,0s0,0,0,0s0,0,0,0s0,0,0,0s0,0,0,0s0,0,0,0c0,0,0,0,0,0s0,0,0,0c0,0,0,0,0,0s0,0,0,0c0,0,0,0,0,0c0,0,0,0,0,0
	s0,0,0,0c0,0,0,0,0,0s0,0,0,0c0,0,0,0,0,0s0,0,0,0c0,0,0,0,0,0c0,0,0,0,0,0s0,0,0,0c0,0,0,0,0,0s0,0,0,0c0,0,0,0,0,0s0,0,0,0
	c0,0,0,0,0,0c0,0,0,0,0,0s0,0,0,0c0,0,0,0,0,0s0,0,0,0s0,0,0,0s0,0,0,0s0,0,0,0c0,0,0,0,0,0s0,0,0,0s0,0,0,0s0,0,0,0s0,0,0,0
	s0,0,0,0s0,0,0,0c0,0,0,0,0,0c0,0,0,0,0,0s0,0,0,0c0,0,0,0,0,0s0,0,0,0c0,0,0,0,0,0s0,0,0,0c0,0,0,0,0,0c0,0,0,0,0,0s0,0,0,0
	c0,0,0,0,0,0s0,0,0,0c0,0,0,0,0,0s0,0,0,0c0,0,0,0,0,0c0,0,0,0,0,0s0,0,0,0c0,0,0,0,0,0s0,0,0,0c0,0,0,0,0,0s0,0,0,0s0,0,0,0
	s0,0,0,0s0,0,0,0s0,0,0,0s0,0,0,0s0,0,0,0s0,0,0,0s0,0,0,0c0,0,0,0,0,0s0,0,0,0s0,0,0,0c0,0,0,0,0,0s0,0,0,0c0,0,0,0,0,0s0,0,0,0
	c0,0,0,0,0,0c0,0,0,0,0,0s0,0,0,0c0,0,0,0,0,0s0,0,0,0c0,0,0,0,0,0s0,0,0,0c0,0,0,0,0,0c0,0,0,0,0,0s0,0,0,0c0,0,0,0,0,0s0,0,0,0
	c0,0,0,0,0,0s0,0,0,0c0,0,0,0,0,0c0,0,0,0,0,0s0,0,0,0c0,0,0,0,0,0s0,0,0,0s0,0,0,0s0,0,0,0s0,0,0,0s0,0,0,0s0,0,0,0s0,0,0,0
	s0,0,0,0s0,0,0,0s0,0,0,0s0,0,0,0s0,0,0,0c0,0,0,0,0,0s0,0,0,0c0,0,0,0,0,0s0,0,0,0c0,0,0,0,0,0s0,0,0,0c0,0,0,0,0,0c0,0,0,0,0,0
	s0,0,0,0c0,0,0,0,0,0s0,0,0,0c0,0,0,0,0,0s0,0,0,0c0,0,0,0,0,0c0,0,0,0,0,0s0,0,0,0c0,0,0,0,0,0s0,0,0,0c0,0,0,0,0,0s0,0,0,0
	c0,0,0,0,0,0s0,0,0,0s0,0,0,0s0,0,0,0s0,0,0,0s0,0,0,0s0,0,0,0c0,0,0,0,0,0s0,0,0,0s0,0,0,0s0,0,0,0c0,0,0,0,0,0s0,0,0,0
	c0,0,0,0,0,0c0,0,0,0,0,0s0,0,0,0c0,0,0,0,0,0s0,0,0,0c0,0,0,0,0,0s0,0,0,0c0,0,0,0,0,0s0,0,0,0s0,0,0,0c0,0,0,0,0,0s0,0,0,0
	c0,0,0,0,0,0s0,0,0,0c0,0,0,0,0,0s0,0,0,0s0,0,0,0c0,0,0,0,0,0s0,0,0,0c0,0,0,0,0,0s0,0,0,0s0,0,0,0s0,0,0,0c0,0,0,0,0,0s0,0,0,0
	s0,0,0,0s0,0,0,0s0,0,0,0s0,0,0,0c0,0,0,0,0,0c0,0,0,0,0,0s0,0,0,0c0,0,0,0,0,0s0,0,0,0c0,0,0,0,0,0s0,0,0,0c0,0,0,0,0,0
	c0,0,0,0,0,0s0,0,0,0c0,0,0,0,0,0s0,0,0,0c0,0,0,0,0,0s0,0,0,0c0,0,0,0,0,0c0,0,0,0,0,0s0,0,0,0c0,0,0,0,0,0s0,0,0,0c0,0,0,0,0,0
	s0,0,0,0c0,0,0,0,0,0s0,0,0,0s0,0,0,0s0,0,0,0s0,0,0,0s0,0,0,0s0,0,0,0s0,0,0,0s0,0,0,0s0,0,0,0s0,0,0,0s0,0,0,0s0,0,0,0
	c0,0,0,0,0,0s0,0,0,0c0,0,0,0,0,0c0,0,0,0,0,0s0,0,0,0c0,0,0,0,0,0s0,0,0,0c0,0,0,0,0,0s0,0,0,0c0,0,0,0,0,0c0,0,0,0,0,0s0,0,0,0
	c0,0,0,0,0,0s0,0,0,0c0,0,0,0,0,0s0,0,0,0c0,0,0,0,0,0c0,0,0,0,0,0s0,0,0,0c0,0,0,0,0,0s0,0,0,0s0,0,0,0s0,0,0,0s0,0,0,0
	c0,0,0,0,0,0s0,0,0,0s0,0,0,0s0,0,0,0s0,0,0,0s0,0,0,0s0,0,0,0c0,0,0,0,0,0c0,0,0,0,0,0s0,0,0,0c0,0,0,0,0,0s0,0,0,0c0,0,0,0,0,0
	s0,0,0,0c0,0,0,0,0,0c0,0,0,0,0,0s0,0,0,0c0,0,0,0,0,0s0,0,0,0c0,0,0,0,0,0s0,0,0,0c0,0,0,0,0,0c0,0,0,0,0,0s0,0,0,0c0,0,0,0,0,0
	s0,0,0,0c0,0,0,0,0,0s0,0,0,0c0,0,0,0,0,0c0,0,0,0,0,0s0,0,0,0s0,0,0,0s0,0,0,0s0,0,0,0s0,0,0,0s0,0,0,0c0,0,0,0,0,0s0,0,0,0
	s0,0,0,0s0,0,0,0s0,0,0,0c0,0,0,0,0,0s0,0,0,0c0,0,0,0,0,0c0,0,0,0,0,0s0,0,0,0c0,0,0,0,0,0s0,0,0,0c0,0,0,0,0,0s0,0,0,0
	c0,0,0,0,0,0c0,0,0,0,0,0s0,0,0,0c0,0,0,0,0,0s0,0,0,0c0,0,0,0,0,0s0,0,0,0c0,0,0,0,0,0c0,0,0,0,0,0s0,0,0,0c0,0,0,0,0,0s0,0,0,0
	s0,0,0,0s0,0,0,0s0,0,0,0s0,0,0,0s0,0,0,0s0,0,0,0s0,0,0,0s0,0,0,0s0,0,0,0s0,0,0,0c0,0,0,0,0,0c0,0,0,0,0,0s0,0,0,0c0,0,0,0,0,0
	s0,0,0,0c0,0,0,0,0,0s0,0,0,0c0,0,0,0,0,0c0,0,0,0,0,0s0,0,0,0c0,0,0,0,0,0s0,0,0,0c0,0,0,0,0,0s0,0,0,0c0,0,0,0,0,0c0,0,0,0,0,0
	s0,0,0,0c0,0,0,0,0,0s0,0,0,0c0,0,0,0,0,0s0,0,0,0c0,0,0,0,0,0c0,0,0,0,0,0s0,0,0,0s0,0,0,0s0,0,0,0s0,0,0,0s0,0,0,0s0,0,0,0
	s0,0,0,0s0,0,0,0s0,0,0,0s0,0,0,0s0,0,0,0c0,0,0,0,0,0s0,0,0,0s0,0,0,0c0,0,0,0,0,0s0,0,0,0c0,0,0,0,0,0H201.4z M201.4,10.1
	C201.4,10.1,201.4,10.1,201.4,10.1C201.4,10.1,201.4,10.1,201.4,10.1C201.4,10.1,201.4,10.1,201.4,10.1
	C201.4,10.1,201.4,10.1,201.4,10.1C201.4,10.1,201.4,10.1,201.4,10.1C201.4,10.1,201.4,10.1,201.4,10.1
	C201.4,10.1,201.4,10.1,201.4,10.1C201.4,10.1,201.4,10.1,201.4,10.1C201.4,10.1,201.4,10.1,201.4,10.1
	C201.4,10.1,201.4,10.1,201.4,10.1C201.4,10.1,201.4,10.1,201.4,10.1C201.4,10.1,201.4,10.1,201.4,10.1
	C201.4,10.1,201.4,10.1,201.4,10.1C201.4,10.1,201.4,10.1,201.4,10.1C201.4,10.1,201.4,10.1,201.4,10.1
	C201.4,10.1,201.4,10.1,201.4,10.1C201.4,10.1,201.4,10.1,201.4,10.1C201.4,10.1,201.4,10.1,201.4,10.1
	C201.4,10.1,201.4,10.1,201.4,10.1C201.4,10.1,201.4,10.1,201.4,10.1C201.4,10.1,201.4,10.1,201.4,10.1
	C201.4,10.1,201.4,10.1,201.4,10.1C201.4,10.1,201.4,10.1,201.4,10.1C201.4,10.1,201.4,10.1,201.4,10.1
	C201.4,10.1,201.4,10.1,201.4,10.1C201.4,10.1,201.4,10.1,201.4,10.1C201.4,10.1,201.4,10.1,201.4,10.1
	C201.4,10.1,201.4,10.1,201.4,10.1C201.4,10.1,201.4,10.1,201.4,10.1C201.4,10.1,201.4,10.1,201.4,10.1
	C201.4,10.1,201.4,10.1,201.4,10.1C201.4,10.1,201.4,10.1,201.4,10.1C201.4,10.1,201.4,10.1,201.4,10.1
	C201.4,10.1,201.4,10.1,201.4,10.1C201.4,10.1,201.4,10.1,201.4,10.1C201.4,10.1,201.4,10.1,201.4,10.1
	C201.4,10.1,201.4,10.1,201.4,10.1C201.4,10.1,201.4,10.1,201.4,10.1C201.4,10.1,201.4,10.1,201.4,10.1
	C201.4,10.1,201.4,10.1,201.4,10.1C201.4,10.1,201.4,10.1,201.4,10.1C201.4,10.1,201.4,10.1,201.4,10.1
	C201.4,10.1,201.4,10.1,201.4,10.1C201.4,10.1,201.4,10.1,201.4,10.1C201.4,10.1,201.4,10.1,201.4,10.1
	C201.4,10.1,201.4,10.1,201.4,10.1C201.4,10.1,201.4,10.1,201.4,10.1C201.4,10.1,201.4,10.1,201.4,10.1
	C201.4,10.1,201.4,10.1,201.4,10.1C201.4,10.1,201.4,10.1,201.4,10.1C201.4,10.1,201.4,10.1,201.4,10.1
	C201.4,10.1,201.4,10.1,201.4,10.1C201.4,10.1,201.4,10.1,201.4,10.1C201.4,10.1,201.4,10.1,201.4,10.1
	C201.4,10.1,201.4,10.1,201.4,10.1C201.4,10.1,201.4,10.1,201.4,10.1C201.4,10.1,201.4,10.1,201.4,10.1
	C201.4,10.1,201.4,10.1,201.4,10.1C201.4,10.1,201.4,10.1,201.4,10.1C201.4,10.1,201.4,10.1,201.4,10.1
	C201.4,10.1,201.4,10.1,201.4,10.1C201.4,10.1,201.4,10.1,201.4,10.1C201.4,10.1,201.4,10.1,201.4,10.1
	C201.4,10.1,201.4,10.1,201.4,10.1C201.4,10.1,201.4,10.1,201.4,10.1C201.4,10.1,201.4,10.1,201.4,10.1
	C201.4,10.1,201.4,10.1,201.4,10.1C201.4,10.1,201.4,10.1,201.4,10.1C201.4,10.1,201.4,10.1,201.4,10.1
	C201.4,10.1,201.4,10.1,201.4,10.1C201.4,10.1,201.4,10.1,201.4,10.1C201.4,10.1,201.4,10.1,201.4,10.1
	C201.4,10.1,201.4,10.1,201.4,10.1C201.4,10.1,201.4,10.1,201.4,10.1C201.4,10.1,201.4,10.1,201.4,10.1
	C201.4,10.1,201.4,10.1,201.4,10.1C201.4,10.1,201.4,10.1,201.4,10.1C201.4,10.1,201.4,10.1,201.4,10.1
	C201.4,10.1,201.4,10.1,201.4,10.1C201.4,10.1,201.4,10.1,201.4,10.1C201.4,10.1,201.4,10.1,201.4,10.1
	C201.4,10.1,201.4,10.1,201.4,10.1C201.4,10.1,201.4,10.1,201.4,10.1C201.4,10.1,201.4,10.1,201.4,10.1
	C201.4,10.1,201.4,10.1,201.4,10.1C201.4,10.1,201.4,10.1,201.4,10.1C201.4,10.1,201.4,10.1,201.4,10.1
	C201.4,10.1,201.4,10.1,201.4,10.1C201.4,10.1,201.4,10.1,201.4,10.1C201.4,10.1,201.4,10.1,201.4,10.1
	C201.4,10.1,201.4,10.1,201.4,10.1C201.4,10.1,201.4,10.1,201.4,10.1C201.4,10.1,201.4,10.1,201.4,10.1
	C201.4,10.1,201.4,10.1,201.4,10.1C201.4,10.1,201.4,10.1,201.4,10.1C201.4,10.1,201.4,10.1,201.4,10.1
	C201.4,10.1,201.4,10.1,201.4,10.1C201.4,10.1,201.4,10.1,201.4,10.1C201.4,10.1,201.4,10.1,201.4,10.1
	C201.4,10.1,201.4,10.1,201.4,10.1C201.4,10.1,201.4,10.1,201.4,10.1C201.4,10.1,201.4,10.1,201.4,10.1
	C201.4,10.1,201.4,10.1,201.4,10.1C201.4,10.1,201.4,10.1,201.4,10.1C201.4,10.1,201.4,10.1,201.4,10.1
	C201.4,10.1,201.4,10.1,201.4,10.1C201.4,10.1,201.4,10.1,201.4,10.1C201.4,10.1,201.4,10.1,201.4,10.1
	C201.4,10.1,201.4,10.1,201.4,10.1C201.4,10.1,201.4,10.1,201.4,10.1C201.4,10.1,201.4,10.1,201.4,10.1
	C201.4,10.1,201.4,10.1,201.4,10.1C201.4,10.1,201.4,10.1,201.4,10.1C201.4,10.1,201.4,10.1,201.4,10.1
	C201.4,10.1,201.4,10.1,201.4,10.1C201.4,10.1,201.4,10.1,201.4,10.1C201.4,10.1,201.4,10.1,201.4,10.1
	C201.4,10.1,201.4,10.1,201.4,10.1C201.4,10.1,201.4,10.1,201.4,10.1C201.4,10.1,201.4,10.1,201.4,10.1
	C201.4,10.1,201.4,10.1,201.4,10.1C201.4,10.1,201.4,10.1,201.4,10.1C201.4,10.1,201.4,10.1,201.4,10.1
	C201.4,10.1,201.4,10.1,201.4,10.1C201.4,10.1,201.4,10.1,201.4,10.1C201.4,10.1,201.4,10.1,201.4,10.1
	C201.4,10.1,201.4,10.1,201.4,10.1C201.4,10.1,201.4,10.1,201.4,10.1C201.4,10.1,201.4,10.1,201.4,10.1
	C201.4,10.1,201.4,10.1,201.4,10.1C201.4,10.1,201.4,10.1,201.4,10.1C201.4,10.1,201.4,10.1,201.4,10.1
	C201.4,10.1,201.4,10.1,201.4,10.1C201.4,10.1,201.4,10.1,201.4,10.1C201.4,10.1,201.4,10.1,201.4,10.1
	C201.4,10.1,201.4,10.1,201.4,10.1C201.4,10.1,201.4,10.1,201.4,10.1C201.4,10.1,201.4,10.1,201.4,10.1
	C201.4,10.1,201.4,10.2,201.4,10.1C201.4,10.2,201.4,10.2,201.4,10.1C201.4,10.2,201.4,10.2,201.4,10.1c0,0.1,0,0.1,0,0.1
	c0,0,0,0,0,0c0,0,0,0,0,0c0,0,0,0,0,0c0,0,0,0,0,0c0,0,0,0,0,0c0,0,0,0,0,0c0,0,0,0,0,0c0,0,0,0,0,0c0,0,0,0,0,0c0,0,0,0,0,0
	c0,0,0,0,0,0c0,0,0,0,0,0c0,0,0,0,0,0c0,0,0,0,0,0c0,0,0,0,0,0c0,0,0,0,0,0c0,0,0,0,0,0c0,0,0,0,0,0c0,0,0,0,0,0c0,0,0,0,0,0
	c0,0,0,0,0,0s0,0,0,0c0,0,0,0,0,0c0,0,0,0,0,0c0,0,0,0,0,0c0,0,0,0,0,0c0,0,0,0,0,0c0,0,0,0,0,0c0,0,0,0,0,0c0,0,0,0,0,0
	c0,0,0,0,0,0c0,0,0,0,0,0c0,0,0,0,0,0s0,0,0,0c0,0,0,0,0,0c0,0,0,0,0,0c0,0,0,0,0,0c0,0,0,0,0,0c0,0,0,0,0,0c0,0,0,0,0,0
	c0,0,0,0,0,0c0,0,0,0,0,0s0,0,0,0c0,0,0,0,0,0c0,0,0,0,0,0c0,0,0,0,0,0c0,0,0,0,0,0c0,0,0,0,0,0c0,0,0,0,0,0c0,0,0,0,0,0
	c0,0,0,0,0,0c0,0,0,0,0,0c0,0,0,0,0,0c0,0,0,0,0,0c0,0,0,0,0,0c0,0,0,0,0,0c0,0,0,0,0,0c0,0,0,0,0,0s0,0,0,0c0,0,0,0,0,0
	c0,0,0,0,0,0c0,0,0,0,0,0c0,0,0,0,0,0c0,0,0,0,0,0c0,0,0,0,0,0s0,0,0,0c0,0,0,0,0,0c0,0,0,0,0,0c0,0,0,0,0,0c0,0,0,0,0,0
	c0,0,0,0,0,0c0,0,0,0,0,0c0,0,0,0,0,0c0,0,0,0,0,0c0,0,0,0,0,0c0,0,0,0,0,0c0,0,0,0,0,0c0,0,0,0,0,0c0,0,0,0,0,0c0,0,0,0,0,0
	c0,0,0,0,0,0c0,0,0,0,0,0c0,0,0,0,0,0c0,0,0,0,0,0s0,0,0,0c0,0,0,0,0,0c0,0,0,0,0,0c0,0,0,0,0,0c0,0,0,0,0,0c0,0,0,0,0,0
	c0,0,0,0,0,0c0,0,0,0,0,0c0,0,0,0,0,0c0,0,0,0,0,0c0,0,0,0,0,0c0,0,0,0,0,0c0,0,0,0,0,0c0,0,0,0,0,0c0,0,0,0,0,0c0,0,0,0,0,0
	c0,0,0,0,0,0c0,0,0,0,0,0c0,0,0,0,0,0c0,0,0,0,0,0c0,0,0,0,0,0s0,0,0,0c0,0,0,0,0,0c0,0,0,0,0,0c0,0,0,0,0,0c0,0,0,0,0,0
	c0,0,0,0,0,0c0,0,0,0,0,0c0,0,0,0,0,0c0,0,0,0,0,0c0,0,0,0,0,0c0,0,0,0,0,0c0,0,0,0,0,0c0,0,0,0,0,0s0,0,0,0c0,0,0,0,0,0
	c0,0,0,0,0,0c0,0,0,0,0,0s0,0,0,0c0,0,0,0,0,0c0,0,0,0,0,0c0,0,0,0,0,0s0,0,0,0c0,0,0,0,0,0c0,0,0,0,0,0c0,0,0,0,0,0c0,0,0,0,0,0
	c0,0,0,0,0,0c0,0,0,0,0,0c0,0,0,0,0,0c0,0,0,0,0,0c0,0,0,0,0,0c0,0,0,0,0,0s0,0,0,0c0,0,0,0,0,0c0,0,0,0,0,0c0,0,0,0,0,0s0,0,0,0
	c0,0,0,0,0,0c0,0,0,0,0,0c0,0,0,0,0,0c0,0,0,0,0,0c0,0,0,0,0,0c0,0,0,0,0,0s0,0,0,0c0,0,0,0,0,0c0,0,0,0,0,0s0,0,0,0c0,0,0,0,0,0
	c0,0,0,0,0,0c0,0,0,0,0,0c0,0,0,0,0,0c0,0,0,0,0,0c0,0,0,0,0,0c0,0,0,0,0,0c0,0,0,0,0,0c0,0,0,0,0,0c0,0,0,0,0,0c0,0,0,0,0,0
	c0,0,0,0,0,0c0,0,0,0,0,0c0,0,0,0,0,0c0,0,0,0,0,0c0,0,0,0,0,0c0,0,0,0,0,0s0,0,0,0c0,0,0,0,0,0c0,0,0,0,0,0s0,0,0,0c0,0,0,0,0,0
	c0,0,0,0,0,0s0,0,0,0c0,0,0,0,0,0c0,0,0,0,0,0c0,0,0,0,0,0c0,0,0,0,0,0c0,0,0,0,0,0c0,0,0,0,0,0c0,0,0,0,0,0s0,0,0,0c0,0,0,0,0,0
	c0,0,0,0,0,0c0,0,0,0,0,0c0,0,0,0,0,0c0,0,0,0,0,0c0,0,0,0,0,0c0,0,0,0,0,0c0,0,0,0,0,0c0,0,0,0,0,0c0,0,0,0,0,0c0,0,0,0,0,0
	c0,0,0,0,0,0c0,0,0,0,0,0c0,0,0,0,0,0c0,0,0,0,0,0c0,0,0,0,0,0c0,0,0,0,0,0c0,0,0,0,0,0c0,0,0,0,0,0c0,0,0,0,0,0c0,0,0,0,0,0
	c0,0,0,0,0,0c0,0,0,0,0,0c0,0,0,0,0,0c0,0,0,0,0,0c0,0,0,0,0,0c0,0,0,0,0,0c0,0,0,0,0,0c0,0,0,0,0,0c0,0,0,0,0,0s0,0,0,0
	c0,0,0,0,0,0c0,0,0,0,0,0c0,0,0,0,0,0c0,0,0,0,0,0c0,0,0,0,0,0c0,0,0,0,0,0c0,0,0,0,0,0c0,0,0,0,0,0c0,0,0,0,0,0c0,0,0,0,0,0
	c0,0,0,0,0,0c0,0,0,0,0,0c0,0,0,0,0,0c0,0,0,0,0,0c0,0,0,0,0,0c0,0,0,0,0,0c0,0,0,0,0,0c0,0,0,0,0,0c0,0,0,0,0,0c0,0,0,0,0,0
	c0,0,0,0,0,0c0,0,0,0,0,0c0,0,0,0,0,0c0,0,0,0,0,0c0,0,0,0,0,0c0,0,0,0,0,0c0,0,0,0,0,0c0,0,0,0,0,0c0,0,0,0,0,0c0,0,0,0,0,0
	c0,0,0,0,0,0c0,0,0,0,0,0c0,0,0,0,0,0c0,0,0,0,0,0c0,0,0,0,0,0c0,0,0,0,0,0c0,0,0,0,0,0c0,0,0,0,0,0c0,0,0,0,0,0c0,0,0,0,0,0
	c0,0,0,0,0,0c0,0,0,0,0,0c0,0,0,0,0,0c0,0,0,0,0,0c0,0,0,0,0,0c0,0,0,0,0,0c0,0,0,0,0,0c0,0,0,0,0,0c0,0,0,0,0,0c0,0,0,0,0,0
	c0,0,0,0,0,0c0,0,0,0,0,0c0,0,0,0,0,0c0,0,0,0,0,0c0,0,0,0,0,0c0,0,0,0,0,0c0,0,0,0,0,0c0,0,0,0,0,0c0,0,0,0,0,0c0,0,0,0,0,0
	c0,0,0,0,0,0s0,0,0,0c0,0,0,0,0,0c0,0,0,0,0,0s0,0,0,0c0,0,0,0,0,0c0,0,0,0,0,0s0,0,0,0c0,0,0,0,0,0c0,0,0,0,0,0s0,0,0,0
	c0,0,0,0,0,0c0,0,0,0,0,0s0,0,0,0c0,0,0,0,0,0c0,0,0,0,0,0c0,0,0,0,0,0c0,0,0,0,0,0c0,0,0,0,0,0s0,0,0,0c0,0,0,0,0,0c0,0,0,0,0,0
	c0,0,0,0,0,0c0,0,0,0,0,0c0,0,0,0,0,0c0,0,0,0,0,0s0,0,0,0c0,0,0,0,0,0c0,0,0,0,0,0c0,0,0,0,0,0s0,0,0,0c0,0,0,0,0,0c0,0,0,0,0,0
	c0,0,0,0,0,0s0,0,0,0c0,0,0,0,0,0c0,0,0,0,0,0c0,0,0,0,0,0s0,0,0,0c0,0,0,0,0,0c0,0,0,0,0,0c0,0,0,0,0,0s0,0,0,0c0,0,0,0,0,0
	c0,0,0,0,0,0c0,0,0,0,0,0c0,0,0,0,0,0c0,0,0,0,0,0c0,0,0,0,0,0c0,0,0,0,0,0c0,0,0,0,0,0c0,0,0,0,0,0c0,0,0,0,0,0c0,0,0,0,0,0
	c0,0,0,0,0,0c0,0,0,0,0,0c0,0,0,0,0,0c0,0,0,0,0,0c0,0,0,0,0,0c0,0,0,0,0,0c0,0,0,0,0,0c0,0,0,0,0,0c0,0,0,0,0,0c0,0,0,0,0,0
	s0,0,0,0c0,0,0,0,0,0c0,0,0,0,0,0c0,0,0,0,0,0c0,0,0,0,0,0c0,0,0,0,0,0c0,0,0,0,0,0c0,0,0,0,0,0c0,0,0,0,0,0c0,0,0,0,0,0
	c0,0,0,0,0,0c0,0,0,0,0,0c0,0,0,0,0,0c0,0,0,0,0,0c0,0,0,0,0,0c0,0,0,0,0,0c0,0,0,0,0,0c0,0,0,0,0,0c0,0,0,0,0,0c0,0,0,0,0,0
	c0,0,0,0,0,0c0,0,0,0,0,0c0,0,0,0,0,0c0,0,0,0,0,0c0,0,0,0,0,0c0,0,0,0,0,0c0,0,0,0,0,0c0,0,0,0,0,0c0,0,0,0,0,0c0,0,0,0,0,0
	c0,0,0,0,0,0h4c0,0,0,0,0,0c0,0,0,0,0,0c0,0,0,0,0,0c0,0,0,0,0,0c0,0,0,0,0,0c0,0,0,0,0,0c0,0,0,0,0,0c0,0,0,0,0,0c0,0,0,0,0,0
	c0,0,0,0,0,0c0,0,0,0,0,0c0,0,0,0,0,0c0,0,0,0,0,0c0,0,0,0,0,0c0,0,0,0,0,0c0,0,0,0,0,0c0,0,0,0,0,0c0,0,0,0,0,0c0,0,0,0,0,0
	c0,0,0,0,0,0c0,0,0,0,0,0c0,0,0,0,0,0c0,0,0,0,0,0c0,0,0,0,0,0c0,0,0,0,0,0c0,0,0,0,0,0c0,0,0,0,0,0c0,0,0,0,0,0c0,0,0,0,0,0
	c0,0,0,0,0,0c0,0,0,0,0,0s0,0,0,0c0,0,0,0,0,0c0,0,0,0,0,0c0,0,0,0,0,0c0,0,0,0,0,0c0,0,0,0,0,0c0,0,0,0,0,0c0,0,0,0,0,0
	c0,0,0,0,0,0c0,0,0,0,0,0c0,0,0,0,0,0c0,0,0,0,0,0c0,0,0,0,0,0c0,0,0,0,0,0c0,0,0,0,0,0c0,0,0,0,0,0c0,0,0,0,0,0c0,0,0,0,0,0
	c0,0,0,0,0,0c0,0,0,0,0,0c0,0,0,0,0,0c0,0,0,0,0,0s0,0,0,0c0,0,0,0,0,0c0,0,0,0,0,0c0,0,0,0,0,0s0,0,0,0c0,0,0,0,0,0c0,0,0,0,0,0
	c0,0,0,0,0,0s0,0,0,0c0,0,0,0,0,0c0,0,0,0,0,0c0,0,0,0,0,0s0,0,0,0c0,0,0,0,0,0c0,0,0,0,0,0c0,0,0,0,0,0s0,0,0,0c0,0,0,0,0,0
	c0,0,0,0,0,0c0,0,0,0,0,0c0,0,0,0,0,0c0,0,0,0,0,0c0,0,0,0,0,0s0,0,0,0c0,0,0,0,0,0c0,0,0,0,0,0c0,0,0,0,0,0c0,0,0,0,0,0
	c0,0,0,0,0,0s0,0,0,0c0,0,0,0,0,0c0,0,0,0,0,0s0,0,0,0c0,0,0,0,0,0c0,0,0,0,0,0s0,0,0,0c0,0,0,0,0,0c0,0,0,0,0,0s0,0,0,0
	c0,0,0,0,0,0c0,0,0,0,0,0s0,0,0,0c0,0,0,0,0,0c0,0,0,0,0,0c0,0,0,0,0,0c0,0,0,0,0,0c0,0,0,0,0,0c0,0,0,0,0,0c0,0,0,0,0,0
	c0,0,0,0,0,0c0,0,0,0,0,0c0,0,0,0,0,0c0,0,0,0,0,0c0,0,0,0,0,0c0,0,0,0,0,0c0,0,0,0,0,0c0,0,0,0,0,0c0,0,0,0,0,0c0,0,0,0,0,0
	c0,0,0,0,0,0c0,0,0,0,0,0c0,0,0,0,0,0c0,0,0,0,0,0c0,0,0,0,0,0c0,0,0,0,0,0c0,0,0,0,0,0c0,0,0,0,0,0c0,0,0,0,0,0c0,0,0,0,0,0
	c0,0,0,0,0,0c0,0,0,0,0,0c0,0,0,0,0,0c0,0,0,0,0,0c0,0,0,0,0,0c0,0,0,0,0,0c0,0,0,0,0,0c0,0,0,0,0,0c0,0,0,0,0,0c0,0,0,0,0,0
	c0,0,0,0,0,0c0,0,0,0,0,0c0,0,0,0,0,0c0,0,0,0,0,0c0,0,0,0,0,0c0,0,0,0,0,0c0,0,0,0,0,0c0,0,0,0,0,0c0,0,0,0,0,0c0,0,0,0,0,0
	c0,0,0,0,0,0c0,0,0,0,0,0c0,0,0,0,0,0c0,0,0,0,0,0c0,0,0,0,0,0c0,0,0,0,0,0c0,0,0,0,0,0c0,0,0,0,0,0c0,0,0,0,0,0c0,0,0,0,0,0
	c0,0,0,0,0,0c0,0,0,0,0,0c0,0,0,0,0,0c0,0,0,0,0,0s0,0,0,0c0,0,0,0,0,0c0,0,0,0,0,0c0,0,0,0,0,0c0,0,0,0,0,0c0,0,0,0,0,0
	c0,0,0,0,0,0c0,0,0,0,0,0c0,0,0,0,0,0c0,0,0,0,0,0c0,0,0,0,0,0c0,0,0,0,0,0c0,0,0,0,0,0c0,0,0,0,0,0c0,0,0,0,0,0c0,0,0,0,0,0
	c0,0,0,0,0,0c0,0,0,0,0,0c0,0,0,0,0,0c0,0,0,0,0,0c0,0,0,0,0,0c0,0,0,0,0,0c0,0,0,0,0,0c0,0,0,0,0,0c0,0,0,0,0,0c0,0,0,0,0,0
	c0,0,0,0,0,0c0,0,0,0,0,0c0,0,0,0,0,0c0,0,0,0,0,0c0,0,0,0,0,0s0,0,0,0c0,0,0,0,0,0c0,0,0,0,0,0c0,0,0,0,0,0c0,0,0,0,0,0
	c0,0,0,0,0,0c0,0,0,0,0,0c0,0,0,0,0,0s0,0,0,0c0,0,0,0,0,0c0,0,0,0,0,0s0,0,0,0c0,0,0,0,0,0c0,0,0,0,0,0s0,0,0,0c0,0,0,0,0,0
	c0,0,0,0,0,0c0,0,0,0,0,0c0,0,0,0,0,0c0,0,0,0,0,0c0,0,0,0,0,0c0,0,0,0,0,0c0,0,0,0,0,0c0,0,0,0,0,0c0,0,0,0,0,0c0,0,0,0,0,0
	c0,0,0,0,0,0c0,0,0,0,0,0c0,0,0,0,0,0c0,0,0,0,0,0c0,0,0,0,0,0c0,0,0,0,0,0s0,0,0,0c0,0,0,0,0,0c0,0,0,0,0,0s0,0,0,0c0,0,0,0,0,0
	c0,0,0,0,0,0c0,0,0,0,0,0c0,0,0,0,0,0c0,0,0,0,0,0c0,0,0,0,0,0s0,0,0,0c0,0,0,0,0,0c0,0,0,0,0,0c0,0,0,0,0,0s0,0,0,0c0,0,0,0,0,0
	c0,0,0,0,0,0c0,0,0,0,0,0c0,0,0,0,0,0c0,0,0,0,0,0c0,0,0,0,0,0c0,0,0,0,0,0c0,0,0,0,0,0c0,0,0,0,0,0c0,0,0,0,0,0s0,0,0,0
	c0,0,0,0,0,0c0,0,0,0,0,0c0,0,0,0,0,0s0,0,0,0c0,0,0,0,0,0c0,0,0,0,0,0c0,0,0,0,0,0s0,0,0,0c0,0,0,0,0,0c0,0,0,0,0,0c0,0,0,0,0,0
	c0,0,0,0,0,0c0,0,0,0,0,0c0,0,0,0,0,0c0,0,0,0,0,0c0,0,0,0,0,0c0,0,0,0,0,0c0,0,0,0,0,0c0,0,0,0,0,0c0,0,0,0,0,0s0,0,0,0
	c0,0,0,0,0,0c0,0,0,0,0,0c0,0,0,0,0,0c0,0,0,0,0,0c0,0,0,0,0,0c0,0,0,0,0,0c0,0,0,0,0,0c0,0,0,0,0,0c0,0,0,0,0,0c0,0,0,0,0,0
	c0,0,0,0,0,0c0,0,0,0,0,0c0,0,0,0,0,0c0,0,0,0,0,0c0,0,0,0,0,0c0,0,0,0,0,0c0,0,0,0,0,0c0,0,0,0,0,0c0,0,0,0,0,0c0,0,0,0,0,0
	s0,0,0,0c0,0,0,0,0,0c0,0,0,0,0,0c0,0,0,0,0,0c0,0,0,0,0,0c0,0,0,0,0,0c0,0,0,0,0,0c0,0,0,0,0,0c0,0,0,0,0,0c0,0,0,0,0,0
	c0,0,0,0,0,0c0,0,0,0,0,0c0,0,0,0,0,0c0,0,0,0,0,0c0,0,0,0,0,0c0,0,0,0,0,0c0,0,0,0,0,0c0,0,0,0,0,0c0,0,0,0,0,0s0,0,0,0
	c0,0,0,0,0,0c0,0,0,0,0,0c0,0,0,0,0,0c0,0,0,0,0,0c0,0,0,0,0,0c0,0,0,0,0,0s0,0,0,0c0,0,0,0,0,0c0,0,0,0,0,0c0,0,0,0,0,0
	c0,0,0,0,0,0c0,0,0,0,0,0c0,0,0,0,0,0c0,0,0,0,0,0c0,0,0,0,0,0c0,0,0,0,0,0c0,0,0,0,0,0c0,0,0,0,0,0c0,0,0,0,0,0c0,0,0,0,0,0
	c0,0,0,0,0,0c0,0,0,0,0,0s0,0,0,0c0,0,0,0,0,0c0,0,0,0,0,0c0,0,0,0,0,0c0,0,0,0,0,0c0,0,0,0,0,0c0,0,0,0,0,0c0,0,0,0,0,0
	c0,0,0,0,0,0s0,0,0,0c0,0,0,0,0,0c0,0,0,0,0,0c0,0,0,0,0,0c0,0,0,0,0,0c0,0,0,0,0,0c0,0,0,0,0,0c0,0,0,0,0,0c0,0,0,0,0,0
	c0,0,0,0,0,0c0,0,0,0,0,0c0,0,0,0,0,0s0,0,0,0c0,0,0,0,0,0c0,0,0,0,0,0c0,0,0,0,0,0c0,0,0,0,0,0c0,0,0,0,0,0c0,0,0,0,0,0
	c0,0,0,0,0,0c0,0,0,0,0,0c0,0,0,0,0,0c0,0,0,0,0,0c0,0,0,0,0,0c0,0,0,0,0,0c0,0,0,0,0,0c0,0,0,0,0,0c0,0,0,0,0,0c0,0,0,0,0,0
	c0,0,0,0,0,0c0,0,0,0,0,0c0,0,0,0,0,0c0,0,0,0,0,0c0,0,0,0,0,0c0,0,0,0,0,0c0,0,0,0,0,0c0,0,0,0,0,0c0,0,0,0,0,0c0,0,0,0,0,0
	c0,0,0,0,0,0s0,0,0,0c0,0,0,0,0,0c0,0,0,0,0,0c0,0,0,0,0,0c0,0,0,0,0,0c0,0,0,0,0,0c0,0,0,0,0,0c0,0,0,0,0,0c0,0,0,0,0,0
	c0,0,0,0,0,0c0,0,0,0,0,0c0,0,0,0,0,0c0,0,0,0,0,0c0,0,0,0,0,0c0,0,0,0,0,0c0,0,0,0,0,0c0,0,0,0,0,0c0,0,0,0,0,0c0,0,0,0,0,0
	c0,0,0,0,0,0c0,0,0,0,0,0c0,0,0,0,0,0c0,0,0,0,0,0c0,0,0,0,0,0c0,0,0,0,0,0c0,0,0,0,0,0s0,0,0,0c0,0,0,0,0,0c0,0,0,0,0,0
	c0,0,0,0,0,0s0,0,0,0c0,0,0,0,0,0c0,0,0,0,0,0c0,0,0,0,0,0c0,0,0,0,0,0c0,0,0,0,0,0c0,0,0,0,0,0c0,0,0,0,0,0c0,0,0,0,0,0
	c0,0,0,0,0,0c0,0,0,0,0,0c0,0,0,0,0,0c0,0,0,0,0,0c0,0,0,0,0,0c0,0,0,0,0,0c0,0,0,0,0,0c0,0,0,0,0,0c0,0,0,0,0,0c0,0,0,0,0,0
	c0,0,0,0,0,0c0,0,0,0,0,0c0,0,0,0,0,0c0,0,0,0,0,0c0,0,0,0,0,0c0,0,0,0,0,0c0,0,0,0,0,0c0,0,0,0,0,0c0,0,0,0,0,0c0,0,0,0,0,0
	c0,0,0,0,0,0c0,0,0,0,0,0c0,0,0,0,0,0c0,0,0,0,0,0c0,0,0,0,0,0c0,0,0,0,0,0c0,0,0,0,0,0c0,0,0,0,0,0c0,0,0,0,0,0c0,0,0,0,0,0
	c0,0,0,0,0,0c0,0,0,0,0,0c0,0,0,0,0,0c0,0,0,0,0,0c0,0,0,0,0,0c0,0,0,0,0,0c0,0,0,0,0,0c0,0,0,0,0,0c0,0,0,0,0,0c0,0,0,0,0,0
	c0,0,0,0,0,0c0,0,0,0,0,0c0,0,0,0,0,0c0,0,0,0,0,0c0,0,0,0,0,0c0,0,0,0,0,0c0,0,0,0,0,0c0,0,0,0,0,0c0,0,0,0,0,0c0,0,0,0,0,0
	c0,0,0,0,0,0c0,0,0,0,0,0c0,0,0,0,0,0c0,0,0,0,0,0c0,0,0,0,0,0c0,0,0,0,0,0c0,0,0,0,0,0c0,0,0,0,0,0c0,0,0,0,0,0c0,0,0,0,0,0
	c0,0,0,0,0,0c0,0,0,0,0,0c0,0,0,0,0,0c0,0,0,0,0,0c0,0,0,0,0,0c0,0,0,0,0,0c0,0,0,0,0,0c0,0,0,0,0,0c0,0,0,0,0,0c0,0,0,0,0,0
	c0,0,0,0,0,0c0,0,0,0,0,0c0,0,0,0,0,0c0,0,0,0,0,0c0,0,0,0,0,0c0,0,0,0,0,0c0,0,0,0,0,0c0,0,0,0,0,0c0,0,0,0,0,0c0,0,0,0,0,0
	c0,0,0,0,0,0c0,0,0,0,0,0c0,0,0,0,0,0s0,0,0,0s0,0,0,0s0,0,0,0s0,0,0,0s0,0,0,0c0,0,0,0,0,0c0,0,0,0,0,0c0,0,0,0,0,0c0,0,0,0,0,0
	c0,0,0,0,0,0c0,0,0,0,0,0c0,0,0,0,0,0s0,0,0,0H201.4z M201.4,10.7c2.1,25.1,2.8,50.6,0,75.6l4,0.4c2.9-25.3,2.1-51.2,0-76.4
	L201.4,10.7z M201.4,86.2c-0.1,1.1,0.1,2.1,0.7,2.9c0.6,0.8,1.3,1.3,2.1,1.6c1.5,0.7,3.4,0.9,5.2,0.8c1.8-0.1,3.7-0.5,5.3-1.4
	c1.5-0.8,3.1-2.3,3.3-4.4l-4-0.4c0,0.3-0.3,0.8-1.2,1.3c-0.9,0.5-2.3,0.8-3.6,0.9c-1.4,0.1-2.6-0.1-3.3-0.4
	c-0.4-0.2-0.5-0.3-0.5-0.3c0,0,0,0,0,0c0,0,0,0,0,0L201.4,86.2z M218,85.7c1.8-14.5,2.1-29.3,1.9-43.9l-4,0.1
	c0.2,14.6-0.1,29.1-1.9,43.4L218,85.7z M216,42.6c9.3,21.9,17,44.5,21.7,67.7l3.9-0.8C236.9,86,229.1,63,219.7,41L216,42.6z
	 M237.7,109.7c-0.1,1,0.2,2,0.7,2.8c0.5,0.7,1.3,1.2,2,1.6c1.4,0.7,3.2,0.9,4.9,0.8l-0.2-4c-1.3,0.1-2.4-0.1-3-0.4
	c-0.3-0.1-0.4-0.3-0.4-0.3c0,0,0,0,0,0c0,0,0,0,0,0L237.7,109.7z M245.2,114.8c2.1,0.1,4.4-0.4,6.1-1.3c1.7-0.9,3.6-2.6,3-5.3
	l-3.9,0.9c0,0.1,0,0.1,0,0.2c-0.1,0.2-0.4,0.4-0.9,0.7c-1,0.5-2.6,0.9-4.1,0.8L245.2,114.8z M254.3,108.8
	c2.4-34.3,3.4-68.8,3.5-103.1l-4,0c-0.1,34.3-1.2,68.7-3.5,102.9L254.3,108.8z M296.7,45.2l-1.1,1.6l0,0L296.7,45.2z M267.6,24.8
	l-1.9,0.6l0,0l0,0L267.6,24.8z M271.5,15.7l-0.1,2l0,0l0,0L271.5,15.7z M288,36.4h2V36l-0.1-0.4L288,36.4z M289.2,38.3l1.1-1.7l0,0
	l0,0L289.2,38.3z M299,37.5l1.2,1.6l0.1-0.1l0.1-0.1L299,37.5z M299.4,37.3l-1.3-1.5l-0.1,0.1l-0.1,0.1L299.4,37.3z M300.5,35.1
	l-2,0v0v0H300.5z M304.9,10.9l-1.9-0.7l0,0L304.9,10.9z M292.6,10.1l-1.9-0.7l0,0L292.6,10.1z M290.3,17.8l-1.5,1.3l2.6,2.9l0.8-3.8
	L290.3,17.8z M266.3,8.3l0.4,2l0,0l0,0L266.3,8.3z M255.8,28.2l1.8-0.8l0,0L255.8,28.2z M295.4,59.3l-1.7,1l0,0L295.4,59.3z
	 M280.3,84.9l0.5-1.9v0L280.3,84.9z M277.8,59l0.8-1.8l0,0l0,0L277.8,59z M286.3,53.4l0.8-1.9l0,0l0,0L286.3,53.4z M255.4,72.9
	l2-0.4l0,0L255.4,72.9z M299.2,88.5l-0.9-1.8l0,0L299.2,88.5z M297.8,43.6c-2.5-1.7-5.3-3.1-8.2-4.4c-2.9-1.3-5.8-2.5-8.6-3.9
	c-5.5-2.8-9.8-6-11.4-11.1l-3.8,1.2c2.1,6.8,7.7,10.6,13.5,13.5c2.9,1.4,6,2.7,8.8,4c2.9,1.3,5.4,2.5,7.6,4L297.8,43.6z M269.5,24.2
	c-0.5-1.6-0.6-3.5-0.2-4.9c0.2-0.7,0.5-1.1,0.7-1.3c0.2-0.2,0.6-0.4,1.4-0.3l0.2-4c-1.6-0.1-3,0.3-4.1,1.3c-1.1,0.9-1.7,2.1-2,3.3
	c-0.6,2.3-0.4,5,0.2,7.1L269.5,24.2z M271.5,17.7c1.1,0,2.5,0.6,4,2c1.5,1.3,3,3.1,4.4,5.2c2.8,4.2,5.1,9.2,6.3,12.2l3.7-1.5
	c-1.3-3.2-3.7-8.5-6.7-13c-1.5-2.3-3.2-4.4-5.1-6c-1.8-1.6-4-2.9-6.5-2.9L271.5,17.7z M286,36.4c0,1.6,1,2.8,2.1,3.6l2.2-3.3
	c-0.1-0.1-0.2-0.2-0.3-0.3c0-0.1,0-0.1,0,0H286z M288.1,39.9c1.7,1.1,4,1.4,6.1,1.3c2.1-0.1,4.4-0.8,6.1-2l-2.4-3.2
	c-0.8,0.6-2.3,1.1-3.9,1.2c-1.7,0.1-3-0.2-3.5-0.6L288.1,39.9z M300.4,39c-0.2,0.2-0.4,0.3-0.3,0.3c0.1,0,0.4-0.2,0.7-0.5l-2.8-2.8
	c0.2-0.2,0.4-0.3,0.3-0.3c-0.1,0-0.4,0.2-0.7,0.5L300.4,39z M300.6,38.8c1-0.9,1.9-2.2,1.9-3.8h-4c0,0.1-0.1,0.4-0.5,0.7L300.6,38.8
	z M302.5,35.1c0.1-8.1,1.4-16.1,4.2-23.5l-3.7-1.4c-3.1,7.9-4.4,16.4-4.5,24.9L302.5,35.1z M306.8,11.6c0.4-1,0.5-2,0.1-3
	c-0.3-1-1-1.7-1.7-2.1c-1.4-0.9-3.2-1.3-5-1.4c-1.8-0.1-3.7,0.2-5.4,0.8c-1.6,0.6-3.3,1.6-4.1,3.5l3.7,1.4c0.1-0.3,0.5-0.8,1.7-1.2
	c1.1-0.4,2.5-0.6,3.8-0.5c1.4,0.1,2.4,0.4,2.9,0.7c0.2,0.2,0.2,0.2,0.2,0.2c0-0.1,0,0-0.1,0.2L306.8,11.6z M290.8,9.3
	c-1,2.5-1.8,5.2-2.4,8.1l3.9,0.8c0.6-2.6,1.4-5.1,2.3-7.5L290.8,9.3z M291.8,16.5c-6.5-7.2-15.6-12.7-25.9-10.2l0.9,3.9
	c8.3-2,16,2.2,22,9L291.8,16.5z M265.9,6.3C255.6,8.6,249.8,19.2,254,29l3.7-1.6c-3.1-7.4,1.2-15.5,9.1-17.2L265.9,6.3z M254,29
	c3.9,9.2,12.3,13.4,20.1,17c8.1,3.8,15.5,7.1,19.5,14.2l3.5-2c-4.7-8.5-13.5-12.2-21.3-15.9c-8-3.7-14.9-7.3-18.1-15L254,29z
	 M293.6,60.2c3.1,5.5,3.4,12.2,1.2,16.9c-1.1,2.3-2.8,4.2-5,5.2c-2.2,1.1-5.2,1.4-9.1,0.5l-0.9,3.9c4.5,1.1,8.5,0.7,11.7-0.8
	c3.2-1.5,5.5-4.1,6.9-7.2c2.8-6.1,2.3-14.1-1.3-20.6L293.6,60.2z M280.7,82.9c-2.8-0.7-5.3-2.7-7.1-5.4c-1.9-2.8-3-6.2-3.4-9.2
	c-0.4-3.2,0.2-5.6,1.2-6.9c0.5-0.6,1.1-1,1.9-1.1c0.8-0.1,2.1,0,3.7,0.6l1.5-3.7c-2.1-0.8-4.1-1.2-5.8-0.9c-1.8,0.3-3.3,1.2-4.3,2.5
	c-2.1,2.5-2.5,6.3-2.1,9.9c0.4,3.7,1.8,7.7,4,11c2.2,3.3,5.4,6.1,9.5,7.1L280.7,82.9z M277,60.9c1.5,0.6,3.4,0.6,5,0.3
	c1.7-0.3,3.5-0.8,4.9-1.6c0.7-0.4,1.4-0.8,2-1.4c0.5-0.5,1.1-1.2,1.3-2.2c0.2-1.1-0.1-2.1-0.8-2.9c-0.6-0.7-1.5-1.3-2.5-1.7
	l-1.5,3.7c0.7,0.3,0.9,0.5,0.9,0.5c0,0,0-0.1-0.1-0.2c0-0.1,0-0.3,0-0.4c0-0.2,0.1-0.1-0.2,0.1c-0.2,0.2-0.6,0.5-1.1,0.7
	c-1,0.5-2.4,1-3.7,1.2c-1.4,0.2-2.4,0.1-2.9-0.1L277,60.9z M287,51.5c-8-3.2-17.3-3.3-24.3,0.2c-3.5,1.8-6.5,4.5-8.2,8.2
	c-1.7,3.7-2.2,8.2-1.1,13.5l3.9-0.8c-1-4.6-0.5-8.2,0.8-11c1.3-2.8,3.5-4.9,6.4-6.3c5.7-2.9,13.9-2.9,21,0L287,51.5z M253.4,73.4
	c2.2,10.6,10,16.9,19.1,19.4c9,2.6,19.5,1.6,27.6-2.5l-1.8-3.6c-7.2,3.6-16.7,4.5-24.8,2.2c-8-2.3-14.5-7.6-16.3-16.4L253.4,73.4z
	 M300.1,90.3c5.1-2.6,8.6-6.1,10.7-10.2c2-4.1,2.6-8.7,1.9-13.2c-1.2-8.9-7-17.9-15-23.3l-2.3,3.3c7.1,4.9,12.2,12.9,13.3,20.6
	c0.5,3.8,0.1,7.6-1.6,10.8c-1.6,3.3-4.5,6.2-8.9,8.4L300.1,90.3z"/>
<linearGradient id="SVGID_1_" gradientUnits="userSpaceOnUse" x1="156.8965" y1="122" x2="156.8965" y2="11" gradientTransform="matrix(1 0 0 -1 0 116)">
	<stop  offset="0" style="stop-color:#000000"/>
	<stop  offset="1" style="stop-color:#FFFFFF;stop-opacity:0"/>
</linearGradient>
<path class="st0" d="M54.2,22.4l1.9-0.7l0,0l0,0L54.2,22.4z M21.9,15.6l0.4,2l0.6-0.1l0.4-0.5L21.9,15.6z M20.4,16L20,14l-0.1,0
	l-0.1,0L20.4,16z M6.2,76l-1.8,0.8l0,0l0,0L6.2,76z M21.3,90.6h2v-1.4L22,88.8L21.3,90.6z M21.7,106.8l2-0.1l0,0l0,0L21.7,106.8z
	 M34.4,105.6l-2,0.1l0,0l0,0L34.4,105.6z M34,91.8l-0.3-2L32,90.1l0,1.8L34,91.8z M43.2,88.4l1,1.7l0,0l0,0L43.2,88.4z M34.7,83.7
	l0.9,1.8l0,0l0,0L34.7,83.7z M34.1,83.9l-2,0L32,88.8l3.5-3.5L34.1,83.9z M37.9,39.4l2,0.3l0,0L37.9,39.4z M25.4,38.7l-2-0.3l0,0
	l0,0L25.4,38.7z M21.5,78.8l-1.7,1.1l3.5,5.4l0.2-6.4L21.5,78.8z M16.1,62.8l2-0.2l0,0L16.1,62.8z M19.8,30.5l0.1-2l-1.5-0.1
	L18,29.7L19.8,30.5z M27.5,27.4l-1.9-0.7l0,0l0,0L27.5,27.4z M35.2,18.1l-0.1-2l0,0L35.2,18.1z M42.5,27.3l-1.9,0.5l0,0L42.5,27.3z
	 M45.1,46.4l2-0.1l0,0l0,0L45.1,46.4z M56.1,21.8c-3.4-9.5-9.5-14.5-16.5-15.4c-6.8-0.9-13.9,2.3-19.2,7.8l2.9,2.8
	c4.6-4.9,10.5-7.3,15.8-6.6c5.1,0.7,10.2,4.3,13.2,12.7L56.1,21.8z M21.5,13.6c-0.6,0.1-1.2,0.3-1.5,0.4l1,3.9
	c0.6-0.2,0.8-0.2,1.3-0.3L21.5,13.6z M19.7,14.1C9.2,18.2,3.9,30.4,1.8,42.6c-2.1,12.4-0.9,26,2.5,34.1L8,75.2
	c-3.1-7.3-4.2-20-2.2-31.9c2-12,7-22.2,15.4-25.5L19.7,14.1z M4.3,76.8c3.3,7.6,9.2,13,16.2,15.7l1.4-3.7c-6-2.3-11.1-7-14-13.6
	L4.3,76.8z M19.3,90.6c0,5.5,0.1,10.8,0.5,16.3l4-0.3c-0.4-5.4-0.5-10.6-0.5-16H19.3z M19.7,106.9c0.1,2.3,1.8,3.6,3.4,4.3
	c1.6,0.7,3.5,0.8,5.3,0.7c1.8-0.2,3.7-0.6,5.2-1.6c1.5-0.9,2.9-2.5,2.7-4.8l-4,0.3c0,0.2-0.1,0.6-0.8,1.1c-0.8,0.5-2,0.9-3.4,1
	c-1.4,0.1-2.6,0-3.5-0.4c-0.9-0.3-0.9-0.7-0.9-0.8L19.7,106.9z M36.4,105.5c-0.2-4.6-0.2-9.1-0.4-13.8l-4,0.1
	c0.1,4.5,0.1,9.2,0.4,13.9L36.4,105.5z M34.3,93.8c3.5-0.5,6.8-1.8,9.9-3.7l-2.1-3.4c-2.8,1.7-5.6,2.7-8.5,3.2L34.3,93.8z
	 M44.3,90.1c10.4-6.5,14.9-19.2,16-32.1c1.2-13-0.9-26.7-4.2-36.2l-3.8,1.3c3.1,8.9,5.1,22.1,4,34.5C55.2,70.1,51,81.2,42.2,86.7
	L44.3,90.1z M33.8,81.9C33.9,81.9,34,81.8,33.8,81.9c-0.1,0-0.2,0-0.4,0.1c-0.2,0.1-0.5,0.2-0.7,0.5l2.8,2.8
	c-0.2,0.2-0.4,0.3-0.5,0.3c-0.1,0-0.1,0-0.1,0c0,0,0,0,0,0c0,0,0,0,0,0c0,0,0,0,0,0c0,0,0.1,0,0.1,0c0.1,0,0.3-0.1,0.5-0.2
	L33.8,81.9z M36.1,84c0.2-14.8,1.5-29.7,3.8-44.2l-4-0.6c-2.3,14.7-3.6,29.8-3.8,44.8L36.1,84z M39.9,39.7c0.2-1.1,0-2.1-0.5-3
	c-0.5-0.9-1.2-1.5-2-2c-1.5-0.9-3.4-1.3-5.2-1.3c-1.8,0-3.7,0.3-5.3,1c-1.5,0.7-3.2,1.9-3.5,4l3.9,0.6c0-0.1,0.2-0.5,1.2-1
	c1-0.4,2.3-0.7,3.6-0.7c1.4,0,2.5,0.3,3.2,0.7c0.3,0.2,0.5,0.4,0.5,0.5c0.1,0.1,0.1,0.2,0.1,0.5L39.9,39.7z M23.4,38.4
	c-2,13.3-3.4,26.8-3.9,40.4l4,0.1C24,65.6,25.4,52.2,27.4,39L23.4,38.4z M23.2,77.8c-3-4.6-4.8-11.4-5.1-15.1l-4,0.4
	c0.4,4.3,2.3,11.7,5.7,17L23.2,77.8z M18.1,62.6c-0.3-3-0.4-8.4,0.1-14.3c0.5-5.9,1.6-12.2,3.5-17.1L18,29.7
	c-2.2,5.5-3.3,12.2-3.8,18.3c-0.5,6.1-0.4,11.7-0.1,15L18.1,62.6z M19.7,32.5c1.8,0.1,3.9-0.1,5.6-0.7c1.6-0.6,3.5-1.7,4.1-3.7
	l-3.8-1.2c-0.1,0.2-0.5,0.7-1.7,1.2c-1.1,0.4-2.6,0.6-3.9,0.5L19.7,32.5z M29.4,28.1c0.8-2.3,1.4-4.3,2.4-5.8
	c0.8-1.3,1.8-2.1,3.5-2.2l-0.2-4c-3.3,0.2-5.3,1.9-6.7,4c-1.3,2-2,4.6-2.7,6.6L29.4,28.1z M35.3,20.1c1,0,1.6,0.2,2,0.4
	c0.5,0.3,0.9,0.7,1.3,1.4c0.9,1.5,1.3,3.5,1.9,5.9l3.9-1c-0.5-2.1-1.2-4.8-2.4-6.9c-0.6-1.1-1.5-2.1-2.7-2.8c-1.2-0.7-2.7-1.1-4.3-1
	L35.3,20.1z M40.6,27.8c1.6,5.9,2.2,12.5,2.5,18.7l4-0.2c-0.4-6.3-1-13.2-2.7-19.5L40.6,27.8z M43.1,46.5c0.2,5.2,0.4,12.8-0.9,19.8
	c-1.3,7.1-3.8,13-8.5,15.7l2,3.5C42,81.8,44.9,74.3,46.2,67c1.3-7.5,1.2-15.4,0.9-20.7L43.1,46.5z M102.7,88.1l1.9-0.5l0,0
	L102.7,88.1z M101.5,23.4l2,0.4l0,0L101.5,23.4z M99.4,20l0.7-1.9L99.7,18h-0.4V20z M99.3,20l-0.9,1.8l0.4,0.2h0.5V20z M98.3,19.6
	l0.6-1.9l-0.1,0l-0.1,0L98.3,19.6z M89.1,22.7l2,0.4l0,0l0,0L89.1,22.7z M70.6,75.2l1.4,1.4l0.2-0.2l0.1-0.2L70.6,75.2z M70.2,75.7
	l-2-0.1L68,80.7l3.7-3.7L70.2,75.7z M82,12.6l1.9,0.5l0,0L82,12.6z M69.6,11.8l1.9,0.5l0,0l0,0L69.6,11.8z M57.4,89.1l-2,0.1l0,0
	L57.4,89.1z M66.4,91.7v-2h-0.3l-0.3,0.1L66.4,91.7z M68.1,91.4l0.5,1.9l0.2,0l0.1-0.1L68.1,91.4z M80.6,79.7l1.6,1.2l0,0L80.6,79.7
	z M86.6,69.8l2-0.2l-0.7-6.3l-3.1,5.5L86.6,69.8z M89.9,89.1L88,89.6l0,0l0,0L89.9,89.1z M104.6,87.6c-5.1-20.6-5.7-43.1-1.2-63.8
	L99.5,23c-4.7,21.3-4.1,44.4,1.2,65.6L104.6,87.6z M103.5,23.8c0.3-1.3,0.1-2.6-0.6-3.6c-0.7-1-1.7-1.7-2.7-2.1l-1.4,3.7
	c0.5,0.2,0.7,0.4,0.8,0.6c0.1,0.1,0.1,0.2,0.1,0.6L103.5,23.8z M99.4,18h-0.1v4h0.1V18z M100.1,18.2c-0.4-0.2-0.9-0.4-1.2-0.5
	l-1.3,3.8c0.2,0.1,0.3,0.1,0.5,0.2c0.1,0,0.1,0,0.2,0.1c0,0,0,0,0,0c0,0,0,0,0,0c0,0,0,0,0,0L100.1,18.2z M98.8,17.7
	c-2.1-0.5-4.6-0.4-6.7,0.2c-2,0.6-4.4,1.9-4.9,4.4l3.9,0.8c0.1-0.3,0.5-0.9,2.1-1.4c1.5-0.4,3.3-0.5,4.6-0.1L98.8,17.7z M87.2,22.3
	c-3.9,17.8-8.4,36.6-18.3,51.9l3.4,2.2c10.3-15.9,14.9-35.4,18.8-53.2L87.2,22.3z M69.2,73.8c-0.1,0.1-0.2,0.3-0.3,0.3
	c-0.1,0.1-0.1,0.2-0.1,0.2c0,0,0,0,0,0c0,0,0,0,0,0c0,0,0,0,0,0c0,0,0-0.1,0.1-0.1l2.8,2.8c0.1-0.1,0.2-0.3,0.3-0.3
	c0.1-0.1,0.1-0.2,0.1-0.2c0,0,0,0,0,0c0,0,0,0,0,0c0,0,0,0,0,0c0,0,0,0.1-0.1,0.1L69.2,73.8z M72.2,75.8c1.1-21,6.2-42.5,11.7-62.6
	l-3.9-1.1c-5.6,20.1-10.8,42-11.9,63.4L72.2,75.8z M84,13.2c0.3-1,0.2-2.1-0.2-3C83.4,9.2,82.7,8.5,82,8c-1.4-0.9-3.3-1.3-5.1-1.4
	c-1.8-0.1-3.7,0.2-5.3,0.9c-1.6,0.6-3.3,1.8-3.8,3.8l3.9,1c0.1-0.2,0.4-0.7,1.4-1.1c1-0.4,2.4-0.6,3.7-0.6c1.4,0,2.4,0.4,3,0.7
	c0.3,0.2,0.3,0.3,0.4,0.4c0,0,0.1,0.1,0,0.4L84,13.2z M67.7,11.3c-6.8,24.4-13.3,52-12.3,77.9l4-0.1c-0.9-25.3,5.4-52.3,12.2-76.7
	L67.7,11.3z M55.4,89.2c0.1,2.9,2.7,4.3,4.7,4.8c2.2,0.5,4.8,0.4,7-0.3l-1.2-3.8c-1.6,0.5-3.5,0.6-4.9,0.3c-1.5-0.4-1.6-0.9-1.6-1
	L55.4,89.2z M66.4,93.7c0.5,0,1-0.1,1.4-0.2c0.2,0,0.3-0.1,0.5-0.1c0.1,0,0.2-0.1,0.3-0.1l-1-3.9c-0.2,0-0.3,0.1-0.5,0.1
	c-0.1,0-0.2,0.1-0.3,0.1c-0.2,0.1-0.3,0.1-0.4,0.1V93.7z M68.9,93.2c5.9-2.5,10.2-7.9,13.4-12.4L79,78.5c-3.2,4.5-6.9,9-11.7,11
	L68.9,93.2z M82.2,80.8c2.3-3.3,4.2-6.7,6.1-10.1l-3.5-1.9c-1.9,3.4-3.7,6.6-5.9,9.7L82.2,80.8z M84.6,70c0.7,6.6,1.8,13.1,3.3,19.6
	l3.9-0.9c-1.5-6.3-2.6-12.7-3.3-19.1L84.6,70z M88,89.6c0.6,2.1,2.3,3.3,4,3.9c1.7,0.6,3.6,0.7,5.4,0.5c1.8-0.2,3.6-0.7,5-1.6
	c1.4-0.9,2.8-2.6,2.2-4.8l-3.9,0.9c0,0,0,0,0,0.1c0,0.1-0.2,0.2-0.5,0.5c-0.7,0.5-1.9,0.8-3.2,1c-1.4,0.1-2.7,0-3.7-0.3
	c-1-0.4-1.3-0.8-1.4-1.1L88,89.6z M152.1,52.4l2-0.2l0,0l0,0L152.1,52.4z M139.4,53.5l2-0.2l0,0l0,0L139.4,53.5z M139.5,79.6
	l-1.9-0.8l0,0l0,0L139.5,79.6z M117.7,80.3l1.5-1.4l0,0L117.7,80.3z M133.6,39.2l0.6,1.9l0,0L133.6,39.2z M129.8,32.9l-0.1-2l0,0
	l0,0L129.8,32.9z M118.3,24.1l-1.8-0.9l0,0l0,0L118.3,24.1z M127.6,16.1l0.3-2l0,0l0,0L127.6,16.1z M132.9,22.4l1.7-1.1l0,0l0,0
	L132.9,22.4z M137.6,33.1h2v-0.3l-0.1-0.3L137.6,33.1z M146.7,35.5l-0.5-1.9l-0.1,0l-0.1,0L146.7,35.5z M150.4,31.9l-2,0l0,0.3
	l0.1,0.3L150.4,31.9z M152,9.5l2,0.4l0,0l0,0L152,9.5z M139.5,8.8l-2-0.4l0,0l0,0L139.5,8.8z M138.8,13.6l-1.3,1.5l2.7,2.2l0.5-3.5
	L138.8,13.6z M108.8,19.1l-1.5-1.3l0,0l0,0L108.8,19.1z M116,38.8l1.1,1.7l3.9-2.6l-4.6-1.1L116,38.8z M100.3,62.4l2,0.3l0,0
	L100.3,62.4z M113.5,89.7l0.9-1.8l0,0L113.5,89.7z M150.2,84.9l1.5,1.3l0,0l0,0L150.2,84.9z M154.1,52.2c-0.2-2.2-1.9-3.6-3.5-4.2
	c-1.6-0.7-3.6-0.8-5.4-0.7c-1.8,0.2-3.7,0.6-5.2,1.6c-1.5,0.9-2.9,2.5-2.7,4.8l4-0.4c0-0.2,0-0.5,0.8-1c0.8-0.5,2-0.9,3.4-1
	c1.4-0.1,2.7,0,3.6,0.4c0.9,0.4,1,0.7,1,0.9L154.1,52.2z M137.4,53.6c0.2,1.9,0.4,4,0.7,6.2c0.3,2.2,0.5,4.5,0.7,6.8
	c0.3,4.7,0.2,9-1.1,12.1l3.7,1.5c1.7-4.1,1.7-9.1,1.4-13.9c-0.2-2.4-0.4-4.8-0.7-7c-0.3-2.2-0.5-4.3-0.7-6.1L137.4,53.6z
	 M137.6,78.8c-1.1,2.8-4.1,4.4-8,4.4c-3.9,0-8-1.6-10.5-4.3l-2.9,2.7c3.4,3.7,8.6,5.6,13.4,5.6c4.8,0,9.8-2,11.7-6.9L137.6,78.8z
	 M119.1,78.9c-6.2-6.6-6.2-14.6-2.6-21.9c3.6-7.3,10.6-13.5,17.7-15.9l-1.3-3.8c-8.2,2.8-16,9.7-20.1,18c-4.1,8.3-4.3,18.2,3.3,26.4
	L119.1,78.9z M134.2,41.1c1.8-0.6,3.4-1.6,4-3.1c0.7-1.8-0.2-3.3-1.1-4.2c-0.9-0.9-2.1-1.6-3.4-2.1c-1.2-0.5-2.7-0.8-4-0.7l0.2,4
	c0.7,0,1.5,0.1,2.4,0.4c0.9,0.3,1.6,0.8,1.9,1.2c0.4,0.4,0.1,0.4,0.2,0c0.1-0.2,0,0.3-1.5,0.8L134.2,41.1z M129.7,30.9
	c-1.7,0.1-3.5,0.2-5.1,0.1c-1.7-0.1-3.1-0.3-4.1-0.8c-1-0.4-1.3-0.9-1.4-1.4c-0.2-0.6-0.1-1.8,1-3.9l-3.6-1.8
	c-1.3,2.5-1.8,4.7-1.3,6.7c0.5,2.1,2.1,3.3,3.7,4.1c1.6,0.7,3.6,1,5.4,1.1c1.9,0.1,3.9,0,5.6-0.1L129.7,30.9z M120,25
	c0.2-0.3,0.6-0.9,1.3-1.8c0.7-0.8,1.6-1.7,2.5-2.6c0.9-0.9,1.8-1.6,2.6-2.1c0.4-0.2,0.7-0.4,0.9-0.5c0.2-0.1,0.2,0-0.1-0.1l0.7-3.9
	c-0.8-0.1-1.5,0.1-2,0.3c-0.5,0.2-1.1,0.5-1.6,0.8c-1,0.7-2.1,1.6-3.1,2.5c-1,0.9-2,2-2.8,2.9c-0.8,0.9-1.5,1.8-1.9,2.5L120,25z
	 M127.2,18c-0.1,0,0.1,0,0.5,0.4c0.4,0.3,0.8,0.8,1.2,1.5c0.4,0.6,0.8,1.3,1.2,1.9c0.4,0.6,0.8,1.3,1.1,1.8l3.3-2.2
	c-0.3-0.4-0.6-0.9-1-1.6c-0.4-0.7-0.9-1.4-1.4-2.1c-0.5-0.7-1.1-1.5-1.7-2.1c-0.6-0.6-1.5-1.2-2.5-1.4L127.2,18z M131.2,23.5
	c1.9,3,3.5,6.6,4.5,10.1l3.8-1.1c-1.1-3.8-2.8-7.8-4.9-11.1L131.2,23.5z M135.6,33.1c0,1.4,0.7,2.6,1.6,3.3c0.9,0.7,2,1.2,3.1,1.4
	c2.2,0.5,4.8,0.3,7-0.4l-1.2-3.8c-1.6,0.5-3.5,0.6-4.9,0.3c-0.7-0.2-1.2-0.4-1.4-0.6c-0.2-0.1-0.2-0.2-0.2-0.3H135.6z M147.2,37.5
	c1.3-0.3,2.8-0.9,3.8-1.8c1.1-1,1.9-2.5,1.3-4.4l-3.8,1.3c0,0,0,0,0,0c0,0,0,0.1-0.2,0.2c-0.4,0.3-1.1,0.7-2.1,0.9L147.2,37.5z
	 M152.4,31.9c0.1-7.1,0.5-16,1.6-22.1L150,9.1c-1.2,6.4-1.6,15.7-1.7,22.8L152.4,31.9z M154,9.8c0.2-1.1,0-2.1-0.4-3
	c-0.5-0.9-1.2-1.5-1.9-2c-1.5-0.9-3.4-1.3-5.2-1.3c-1.8,0-3.7,0.3-5.3,1c-1.5,0.7-3.2,1.9-3.6,3.9l3.9,0.7c0-0.1,0.2-0.6,1.3-1
	c1-0.4,2.3-0.7,3.7-0.6c1.4,0,2.5,0.3,3.1,0.7c0.3,0.2,0.4,0.4,0.5,0.5c0,0.1,0.1,0.2,0,0.5L154,9.8z M137.5,8.4
	c-0.2,1.5-0.5,3.2-0.7,4.9l4,0.6c0.2-1.7,0.5-3.3,0.7-4.8L137.5,8.4z M140.1,12c-4.5-3.7-9.9-5.6-15.7-4.8
	c-5.8,0.8-11.6,4.2-17,10.6l3,2.6c5-5.9,10-8.6,14.5-9.3c4.5-0.6,8.8,0.8,12.7,4L140.1,12z M107.3,17.9c-5.1,6.1-6.4,11.4-4,15.7
	c2.2,4,7.3,6.1,12.2,7.3l0.9-3.9c-4.8-1.1-8.3-2.9-9.6-5.3c-1.2-2.1-1.2-5.5,3.5-11.1L107.3,17.9z M114.9,37.2
	c-8.5,5.6-15.1,13.9-16.6,25l4,0.5c1.3-9.7,7-17.1,14.8-22.2L114.9,37.2z M98.3,62.2c-1.6,11.5,3.1,23.9,14.3,29.3l1.7-3.6
	c-9.3-4.5-13.5-15-12.1-25.2L98.3,62.2z M112.7,91.5c5,2.4,12.9,3.2,20.3,2.5c3.7-0.4,7.5-1.2,10.7-2.4c3.2-1.2,6.2-3,8.1-5.4
	l-3.1-2.5c-1.4,1.7-3.6,3.1-6.5,4.2c-2.9,1.1-6.2,1.8-9.7,2.2c-7,0.7-14.1-0.1-18.1-2.1L112.7,91.5z M151.8,86.1
	c1.8-2.2,2.8-5,3.3-8c0.6-2.9,0.7-6.2,0.6-9.3c-0.2-6.2-1.3-12.8-1.6-16.6l-4,0.3c0.4,4.3,1.4,10.3,1.6,16.4c0.1,3,0,5.9-0.5,8.5
	c-0.5,2.6-1.3,4.7-2.5,6.2L151.8,86.1z M203.1,52.4l2-0.2l0,0l0,0L203.1,52.4z M190.3,53.5l2-0.2l0,0l0,0L190.3,53.5z M190.4,79.6
	l-1.9-0.8l0,0l0,0L190.4,79.6z M168.6,80.3l1.5-1.4l0,0L168.6,80.3z M184.5,39.2l0.6,1.9l0,0L184.5,39.2z M180.8,32.9l-0.1-2l0,0
	l0,0L180.8,32.9z M169.2,24.1l-1.8-0.9l0,0l0,0L169.2,24.1z M178.5,16.1l0.3-2l0,0l0,0L178.5,16.1z M183.8,22.4l1.7-1.1l0,0l0,0
	L183.8,22.4z M188.5,33.1h2v-0.3l-0.1-0.3L188.5,33.1z M197.6,35.5l-0.5-1.9l-0.1,0l-0.1,0L197.6,35.5z M201.3,31.9l-2,0l0,0.3
	l0.1,0.3L201.3,31.9z M202.9,9.5l2,0.4l0,0l0,0L202.9,9.5z M190.4,8.8l-2-0.4l0,0l0,0L190.4,8.8z M189.7,13.6l-1.3,1.5l2.7,2.2
	l0.5-3.5L189.7,13.6z M159.7,19.1l-1.5-1.3l0,0l0,0L159.7,19.1z M166.9,38.8l1.1,1.7l3.9-2.6l-4.6-1.1L166.9,38.8z M151.3,62.4
	l2,0.3l0,0L151.3,62.4z M164.5,89.7l0.9-1.8l0,0L164.5,89.7z M201.2,84.9l1.5,1.3l0,0l0,0L201.2,84.9z M205,52.2
	c-0.2-2.2-1.9-3.6-3.5-4.2c-1.6-0.7-3.6-0.8-5.4-0.7c-1.8,0.2-3.7,0.6-5.2,1.6c-1.5,0.9-2.9,2.5-2.7,4.8l4-0.4c0-0.2,0-0.5,0.8-1
	c0.8-0.5,2-0.9,3.4-1c1.4-0.1,2.7,0,3.6,0.4c0.9,0.4,1,0.7,1,0.9L205,52.2z M188.3,53.6c0.2,1.9,0.4,4,0.7,6.2
	c0.3,2.2,0.5,4.5,0.7,6.8c0.3,4.7,0.2,9-1.1,12.1l3.7,1.5c1.7-4.1,1.7-9.1,1.4-13.9c-0.2-2.4-0.4-4.8-0.7-7
	c-0.3-2.2-0.5-4.3-0.7-6.1L188.3,53.6z M188.6,78.8c-1.1,2.8-4.1,4.4-8,4.4c-3.9,0-8-1.6-10.5-4.3l-2.9,2.7
	c3.4,3.7,8.6,5.6,13.4,5.6c4.8,0,9.8-2,11.7-6.9L188.6,78.8z M170.1,78.9c-6.2-6.6-6.1-14.6-2.6-21.9c3.6-7.3,10.6-13.5,17.7-15.9
	l-1.3-3.8c-8.2,2.8-16,9.7-20.1,18c-4.1,8.3-4.3,18.2,3.3,26.4L170.1,78.9z M185.2,41.1c1.8-0.6,3.4-1.6,4-3.1
	c0.7-1.8-0.2-3.3-1.1-4.2c-0.9-0.9-2.1-1.6-3.4-2.1c-1.2-0.5-2.7-0.8-4-0.7l0.2,4c0.7,0,1.5,0.1,2.4,0.4c0.9,0.3,1.6,0.8,1.9,1.2
	c0.4,0.4,0.1,0.4,0.2,0c0.1-0.2,0,0.3-1.5,0.8L185.2,41.1z M180.6,30.9c-1.7,0.1-3.5,0.2-5.1,0.1c-1.7-0.1-3.1-0.3-4.1-0.8
	c-1-0.4-1.3-0.9-1.4-1.4c-0.2-0.6-0.1-1.8,1-3.9l-3.5-1.8c-1.3,2.5-1.8,4.7-1.3,6.7c0.5,2.1,2.1,3.3,3.7,4.1c1.6,0.7,3.6,1,5.4,1.1
	c1.9,0.1,3.9,0,5.6-0.1L180.6,30.9z M171,25c0.2-0.3,0.6-0.9,1.3-1.8c0.7-0.8,1.6-1.7,2.5-2.6c0.9-0.9,1.8-1.6,2.6-2.1
	c0.4-0.2,0.7-0.4,0.9-0.5c0.2-0.1,0.2,0-0.1-0.1l0.7-3.9c-0.8-0.1-1.5,0.1-2,0.3c-0.5,0.2-1.1,0.5-1.6,0.8c-1,0.7-2.1,1.6-3.1,2.5
	c-1,0.9-2,2-2.8,2.9c-0.8,0.9-1.5,1.8-1.9,2.5L171,25z M178.2,18c-0.1,0,0.1,0,0.5,0.4c0.4,0.3,0.8,0.8,1.2,1.5
	c0.4,0.6,0.8,1.3,1.2,1.9c0.4,0.6,0.8,1.3,1.1,1.8l3.3-2.2c-0.3-0.4-0.6-0.9-1-1.6c-0.4-0.7-0.9-1.4-1.4-2.1
	c-0.5-0.7-1.1-1.5-1.7-2.1c-0.6-0.6-1.5-1.2-2.5-1.4L178.2,18z M182.1,23.5c1.9,3,3.5,6.6,4.5,10.1l3.8-1.1
	c-1.1-3.8-2.8-7.8-4.9-11.1L182.1,23.5z M186.5,33.1c0,1.4,0.7,2.6,1.6,3.3c0.9,0.7,2,1.2,3.1,1.4c2.2,0.5,4.8,0.3,7-0.4l-1.2-3.8
	c-1.6,0.5-3.5,0.6-4.9,0.3c-0.7-0.2-1.2-0.4-1.4-0.6c-0.2-0.1-0.2-0.2-0.2-0.3H186.5z M198.1,37.5c1.3-0.3,2.8-0.9,3.8-1.8
	c1.1-1,1.9-2.5,1.3-4.4l-3.8,1.3c0,0,0,0,0,0c0,0,0,0.1-0.2,0.2c-0.4,0.3-1.1,0.7-2.1,0.9L198.1,37.5z M203.3,31.9
	c0.1-7.1,0.5-16,1.6-22.1L201,9.1c-1.2,6.4-1.6,15.7-1.7,22.8L203.3,31.9z M204.9,9.8c0.2-1.1,0-2.1-0.4-3c-0.5-0.9-1.2-1.5-1.9-2
	c-1.5-0.9-3.4-1.3-5.2-1.3c-1.8,0-3.7,0.3-5.3,1c-1.5,0.7-3.2,1.9-3.6,3.9l3.9,0.7c0-0.1,0.2-0.6,1.3-1c1-0.4,2.3-0.7,3.7-0.6
	c1.4,0,2.5,0.3,3.1,0.7c0.3,0.2,0.4,0.4,0.5,0.5c0,0.1,0.1,0.2,0,0.5L204.9,9.8z M188.5,8.4c-0.2,1.5-0.5,3.2-0.7,4.9l4,0.6
	c0.2-1.7,0.5-3.3,0.7-4.8L188.5,8.4z M191,12c-4.5-3.7-9.9-5.6-15.7-4.8c-5.8,0.8-11.6,4.2-17,10.6l3,2.6c5-5.9,10-8.6,14.5-9.3
	c4.5-0.6,8.8,0.8,12.7,4L191,12z M158.2,17.9c-5.1,6.1-6.4,11.4-4,15.7c2.2,4,7.3,6.1,12.2,7.3l0.9-3.9c-4.8-1.1-8.3-2.9-9.6-5.3
	c-1.2-2.1-1.2-5.5,3.5-11.1L158.2,17.9z M165.9,37.2c-8.5,5.6-15.1,13.9-16.6,25l4,0.5c1.3-9.7,7-17.1,14.8-22.2L165.9,37.2z
	 M149.3,62.2c-1.6,11.5,3.1,23.9,14.3,29.3l1.7-3.6c-9.3-4.5-13.5-15-12.1-25.2L149.3,62.2z M163.6,91.5c5,2.4,12.9,3.2,20.3,2.5
	c3.7-0.4,7.5-1.2,10.7-2.4c3.2-1.2,6.2-3,8.1-5.4l-3.1-2.5c-1.4,1.7-3.6,3.1-6.5,4.2c-2.9,1.1-6.2,1.8-9.7,2.2
	c-7,0.7-14.1-0.1-18.1-2.1L163.6,91.5z M202.7,86.1c1.8-2.2,2.8-5,3.3-8c0.6-2.9,0.7-6.2,0.6-9.3c-0.2-6.2-1.3-12.8-1.6-16.6l-4,0.3
	c0.4,4.3,1.4,10.3,1.6,16.4c0.1,3,0,5.9-0.5,8.5c-0.5,2.6-1.3,4.7-2.5,6.2L202.7,86.1z M255.9,5.7l2,0v0H255.9z M243.1,6.9l-2,0l0,0
	v0H243.1z M241.7,69.6l-1.9,0.6l3.9-0.5L241.7,69.6z M215.9,8.8L214,9.4l0,0.1l0.1,0.1L215.9,8.8z M203.4,9.7l-1.9-0.5l-0.1,0.2v0.2
	H203.4z M203.4,10.5h-2v0.1l0,0.1L203.4,10.5z M203.4,86.5l2,0.3l0,0l0,0L203.4,86.5z M216,85.5l-2-0.2l0,0l0,0L216,85.5z
	 M217.9,41.8l1.8-0.8l-3.8,0.8L217.9,41.8z M239.7,109.9l2,0.2l0-0.3l-0.1-0.3L239.7,109.9z M245.3,112.8l0.1-2l-0.1,0l-0.1,0
	L245.3,112.8z M252.3,108.7l-2-0.1l0,0.3l0.1,0.3L252.3,108.7z M257.9,5.7c0-2.3-1.6-3.7-3.2-4.3c-1.6-0.7-3.5-0.9-5.3-0.7
	c-1.8,0.1-3.7,0.6-5.2,1.5c-1.5,0.9-3,2.4-3,4.6l4,0.1c0-0.3,0.2-0.8,1.1-1.3c0.9-0.5,2.1-0.9,3.5-1c1.4-0.1,2.6,0.1,3.4,0.4
	c0.8,0.3,0.8,0.6,0.8,0.6H257.9z M241.1,6.9c0,20.9-0.5,41.8-1.4,62.7l4,0.2c0.9-20.9,1.4-42,1.4-62.9H241.1z M243.6,69
	c-7-21.1-16-41.6-26-61.2l-3.6,1.8c9.9,19.4,18.8,39.7,25.7,60.6L243.6,69z M217.8,8.1c-0.6-1.8-2.2-2.8-3.6-3.2
	c-1.5-0.5-3.2-0.6-4.8-0.5c-1.6,0.1-3.3,0.5-4.7,1.2c-1.4,0.7-2.8,1.8-3.2,3.6l3.9,0.9c0-0.2,0.3-0.6,1.1-1c0.8-0.4,2-0.7,3.2-0.8
	c1.2-0.1,2.4,0,3.2,0.3c0.9,0.3,1.1,0.6,1.1,0.7L217.8,8.1z M201.4,9.7C201.4,9.7,201.4,9.7,201.4,9.7
	C201.4,9.7,201.4,9.7,201.4,9.7C201.4,9.7,201.4,9.7,201.4,9.7C201.4,9.7,201.4,9.7,201.4,9.7C201.4,9.7,201.4,9.7,201.4,9.7
	C201.4,9.7,201.4,9.7,201.4,9.7C201.4,9.7,201.4,9.7,201.4,9.7C201.4,9.7,201.4,9.7,201.4,9.7C201.4,9.7,201.4,9.7,201.4,9.7
	C201.4,9.7,201.4,9.7,201.4,9.7C201.4,9.7,201.4,9.7,201.4,9.7C201.4,9.7,201.4,9.7,201.4,9.7C201.4,9.7,201.4,9.7,201.4,9.7
	C201.4,9.7,201.4,9.7,201.4,9.7C201.4,9.7,201.4,9.7,201.4,9.7C201.4,9.7,201.4,9.7,201.4,9.7C201.4,9.7,201.4,9.7,201.4,9.7
	C201.4,9.7,201.4,9.7,201.4,9.7C201.4,9.7,201.4,9.7,201.4,9.7C201.4,9.7,201.4,9.7,201.4,9.7C201.4,9.7,201.4,9.7,201.4,9.7
	C201.4,9.7,201.4,9.7,201.4,9.7C201.4,9.7,201.4,9.7,201.4,9.7C201.4,9.7,201.4,9.7,201.4,9.7C201.4,9.7,201.4,9.7,201.4,9.7
	C201.4,9.7,201.4,9.7,201.4,9.7C201.4,9.7,201.4,9.7,201.4,9.7C201.4,9.7,201.4,9.7,201.4,9.7C201.4,9.7,201.4,9.7,201.4,9.7
	C201.4,9.7,201.4,9.7,201.4,9.7C201.4,9.7,201.4,9.7,201.4,9.7C201.4,9.7,201.4,9.7,201.4,9.7C201.4,9.7,201.4,9.7,201.4,9.7
	C201.4,9.7,201.4,9.7,201.4,9.7C201.4,9.7,201.4,9.7,201.4,9.7C201.4,9.7,201.4,9.7,201.4,9.7C201.4,9.7,201.4,9.7,201.4,9.7
	C201.4,9.7,201.4,9.7,201.4,9.7C201.4,9.7,201.4,9.7,201.4,9.7C201.4,9.7,201.4,9.7,201.4,9.7C201.4,9.7,201.4,9.7,201.4,9.7
	C201.4,9.7,201.4,9.7,201.4,9.7C201.4,9.7,201.4,9.7,201.4,9.7C201.4,9.7,201.4,9.7,201.4,9.7C201.4,9.7,201.4,9.7,201.4,9.7
	C201.4,9.7,201.4,9.7,201.4,9.7C201.4,9.7,201.4,9.7,201.4,9.7C201.4,9.7,201.4,9.7,201.4,9.7C201.4,9.7,201.4,9.7,201.4,9.7
	C201.4,9.7,201.4,9.7,201.4,9.7C201.4,9.7,201.4,9.7,201.4,9.7C201.4,9.7,201.4,9.7,201.4,9.7C201.4,9.7,201.4,9.7,201.4,9.7
	C201.4,9.7,201.4,9.7,201.4,9.7C201.4,9.7,201.4,9.7,201.4,9.7C201.4,9.7,201.4,9.7,201.4,9.7C201.4,9.7,201.4,9.7,201.4,9.7
	C201.4,9.7,201.4,9.7,201.4,9.7C201.4,9.7,201.4,9.7,201.4,9.7C201.4,9.7,201.4,9.7,201.4,9.7C201.4,9.7,201.4,9.7,201.4,9.7
	C201.4,9.7,201.4,9.7,201.4,9.7C201.4,9.7,201.4,9.7,201.4,9.7C201.4,9.7,201.4,9.7,201.4,9.7C201.4,9.7,201.4,9.7,201.4,9.7
	C201.4,9.7,201.4,9.7,201.4,9.7C201.4,9.7,201.4,9.7,201.4,9.7C201.4,9.7,201.4,9.7,201.4,9.7C201.4,9.7,201.4,9.7,201.4,9.7
	C201.4,9.7,201.4,9.7,201.4,9.7C201.4,9.7,201.4,9.7,201.4,9.7C201.4,9.7,201.4,9.7,201.4,9.7C201.4,9.7,201.4,9.7,201.4,9.7
	C201.4,9.7,201.4,9.7,201.4,9.7C201.4,9.7,201.4,9.7,201.4,9.7C201.4,9.8,201.4,9.8,201.4,9.7C201.4,9.8,201.4,9.8,201.4,9.7
	C201.4,9.8,201.4,9.8,201.4,9.7C201.4,9.8,201.4,9.8,201.4,9.7C201.4,9.8,201.4,9.8,201.4,9.7C201.4,9.8,201.4,9.8,201.4,9.7
	C201.4,9.8,201.4,9.8,201.4,9.7C201.4,9.8,201.4,9.8,201.4,9.7C201.4,9.8,201.4,9.8,201.4,9.7C201.4,9.8,201.4,9.8,201.4,9.7
	C201.4,9.8,201.4,9.8,201.4,9.7C201.4,9.8,201.4,9.8,201.4,9.7C201.4,9.8,201.4,9.8,201.4,9.7C201.4,9.8,201.4,9.8,201.4,9.7
	C201.4,9.8,201.4,9.8,201.4,9.7C201.4,9.8,201.4,9.8,201.4,9.7C201.4,9.8,201.4,9.8,201.4,9.7C201.4,9.8,201.4,9.8,201.4,9.7
	C201.4,9.8,201.4,9.8,201.4,9.7C201.4,9.8,201.4,9.8,201.4,9.7C201.4,9.8,201.4,9.8,201.4,9.7C201.4,9.8,201.4,9.8,201.4,9.7
	C201.4,9.8,201.4,9.8,201.4,9.7C201.4,9.8,201.4,9.8,201.4,9.7C201.4,9.8,201.4,9.8,201.4,9.7C201.4,9.8,201.4,9.8,201.4,9.7
	C201.4,9.8,201.4,9.8,201.4,9.7C201.4,9.8,201.4,9.8,201.4,9.7C201.4,9.8,201.4,9.8,201.4,9.7C201.4,9.8,201.4,9.8,201.4,9.7
	C201.4,9.8,201.4,9.8,201.4,9.7C201.4,9.8,201.4,9.8,201.4,9.7C201.4,9.8,201.4,9.8,201.4,9.7C201.4,9.8,201.4,9.8,201.4,9.7
	C201.4,9.8,201.4,9.8,201.4,9.7C201.4,9.8,201.4,9.8,201.4,9.7C201.4,9.8,201.4,9.8,201.4,9.7C201.4,9.8,201.4,9.8,201.4,9.7
	C201.4,9.8,201.4,9.8,201.4,9.7C201.4,9.8,201.4,9.8,201.4,9.7C201.4,9.8,201.4,9.8,201.4,9.7C201.4,9.8,201.4,9.8,201.4,9.7
	C201.4,9.8,201.4,9.8,201.4,9.7C201.4,9.8,201.4,9.8,201.4,9.7C201.4,9.8,201.4,9.8,201.4,9.7C201.4,9.8,201.4,9.8,201.4,9.7
	C201.4,9.8,201.4,9.8,201.4,9.7C201.4,9.8,201.4,9.8,201.4,9.7C201.4,9.8,201.4,9.8,201.4,9.7C201.4,9.8,201.4,9.8,201.4,9.7
	C201.4,9.8,201.4,9.8,201.4,9.7C201.4,9.8,201.4,9.8,201.4,9.7C201.4,9.8,201.4,9.8,201.4,9.7C201.4,9.8,201.4,9.8,201.4,9.7
	C201.4,9.8,201.4,9.8,201.4,9.7C201.4,9.8,201.4,9.8,201.4,9.7C201.4,9.8,201.4,9.8,201.4,9.7C201.4,9.8,201.4,9.8,201.4,9.7
	C201.4,9.8,201.4,9.8,201.4,9.7C201.4,9.8,201.4,9.8,201.4,9.7C201.4,9.8,201.4,9.8,201.4,9.7C201.4,9.8,201.4,9.8,201.4,9.7
	C201.4,9.8,201.4,9.8,201.4,9.7C201.4,9.8,201.4,9.8,201.4,9.7C201.4,9.8,201.4,9.8,201.4,9.7C201.4,9.8,201.4,9.8,201.4,9.7
	C201.4,9.8,201.4,9.8,201.4,9.7C201.4,9.8,201.4,9.8,201.4,9.7C201.4,9.8,201.4,9.8,201.4,9.7c0,0.1,0,0.1,0,0.1s0,0,0,0s0,0,0,0
	s0,0,0,0s0,0,0,0c0,0,0,0,0,0s0,0,0,0c0,0,0,0,0,0s0,0,0,0c0,0,0,0,0,0s0,0,0,0c0,0,0,0,0,0c0,0,0,0,0,0s0,0,0,0c0,0,0,0,0,0
	s0,0,0,0c0,0,0,0,0,0s0,0,0,0c0,0,0,0,0,0c0,0,0,0,0,0s0,0,0,0c0,0,0,0,0,0s0,0,0,0c0,0,0,0,0,0s0,0,0,0c0,0,0,0,0,0c0,0,0,0,0,0
	s0,0,0,0s0,0,0,0s0,0,0,0s0,0,0,0s0,0,0,0c0,0,0,0,0,0s0,0,0,0s0,0,0,0s0,0,0,0c0,0,0,0,0,0s0,0,0,0c0,0,0,0,0,0s0,0,0,0s0,0,0,0
	c0,0,0,0,0,0s0,0,0,0c0,0,0,0,0,0s0,0,0,0c0,0,0,0,0,0s0,0,0,0s0,0,0,0c0,0,0,0,0,0s0,0,0,0c0,0,0,0,0,0s0,0,0,0c0,0,0,0,0,0
	s0,0,0,0c0,0,0,0,0,0c0,0,0,0,0,0s0,0,0,0c0,0,0,0,0,0s0,0,0,0s0,0,0,0s0,0,0,0c0,0,0,0,0,0s0,0,0,0s0,0,0,0s0,0,0,0s0,0,0,0
	s0,0,0,0s0,0,0,0c0,0,0,0,0,0s0,0,0,0c0,0,0,0,0,0s0,0,0,0c0,0,0,0,0,0s0,0,0,0c0,0,0,0,0,0c0,0,0,0,0,0s0,0,0,0c0,0,0,0,0,0
	s0,0,0,0c0,0,0,0,0,0s0,0,0,0c0,0,0,0,0,0c0,0,0,0,0,0s0,0,0,0c0,0,0,0,0,0s0,0,0,0c0,0,0,0,0,0s0,0,0,0c0,0,0,0,0,0s0,0,0,0
	s0,0,0,0s0,0,0,0s0,0,0,0s0,0,0,0s0,0,0,0s0,0,0,0s0,0,0,0s0,0,0,0s0,0,0,0s0,0,0,0s0,0,0,0c0,0,0,0,0,0s0,0,0,0c0,0,0,0,0,0
	c0,0,0,0,0,0s0,0,0,0c0,0,0,0,0,0s0,0,0,0c0,0,0,0,0,0s0,0,0,0c0,0,0,0,0,0c0,0,0,0,0,0s0,0,0,0c0,0,0,0,0,0s0,0,0,0c0,0,0,0,0,0
	s0,0,0,0c0,0,0,0,0,0c0,0,0,0,0,0s0,0,0,0c0,0,0,0,0,0s0,0,0,0c0,0,0,0,0,0s0,0,0,0s0,0,0,0c0,0,0,0,0,0s0,0,0,0s0,0,0,0s0,0,0,0
	s0,0,0,0s0,0,0,0s0,0,0,0s0,0,0,0s0,0,0,0s0,0,0,0c0,0,0,0,0,0s0,0,0,0c0,0,0,0,0,0s0,0,0,0c0,0,0,0,0,0c0,0,0,0,0,0s0,0,0,0
	c0,0,0,0,0,0s0,0,0,0c0,0,0,0,0,0s0,0,0,0c0,0,0,0,0,0c0,0,0,0,0,0s0,0,0,0c0,0,0,0,0,0s0,0,0,0c0,0,0,0,0,0s0,0,0,0c0,0,0,0,0,0
	c0,0,0,0,0,0s0,0,0,0s0,0,0,0s0,0,0,0s0,0,0,0s0,0,0,0s0,0,0,0c0,0,0,0,0,0s0,0,0,0s0,0,0,0s0,0,0,0s0,0,0,0c0,0,0,0,0,0s0,0,0,0
	c0,0,0,0,0,0c0,0,0,0,0,0s0,0,0,0c0,0,0,0,0,0s0,0,0,0c0,0,0,0,0,0s0,0,0,0c0,0,0,0,0,0c0,0,0,0,0,0s0,0,0,0c0,0,0,0,0,0s0,0,0,0
	c0,0,0,0,0,0s0,0,0,0c0,0,0,0,0,0c0,0,0,0,0,0s0,0,0,0c0,0,0,0,0,0s0,0,0,0c0,0,0,0,0,0s0,0,0,0s0,0,0,0s0,0,0,0s0,0,0,0s0,0,0,0
	s0,0,0,0s0,0,0,0s0,0,0,0s0,0,0,0c0,0,0,0,0,0c0,0,0,0,0,0s0,0,0,0c0,0,0,0,0,0s0,0,0,0c0,0,0,0,0,0s0,0,0,0c0,0,0,0,0,0
	c0,0,0,0,0,0s0,0,0,0c0,0,0,0,0,0s0,0,0,0c0,0,0,0,0,0s0,0,0,0c0,0,0,0,0,0c0,0,0,0,0,0s0,0,0,0c0,0,0,0,0,0s0,0,0,0c0,0,0,0,0,0
	s0,0,0,0c0,0,0,0,0,0c0,0,0,0,0,0s0,0,0,0s0,0,0,0s0,0,0,0s0,0,0,0s0,0,0,0s0,0,0,0s0,0,0,0s0,0,0,0s0,0,0,0s0,0,0,0s0,0,0,0
	c0,0,0,0,0,0s0,0,0,0s0,0,0,0c0,0,0,0,0,0s0,0,0,0c0,0,0,0,0,0s0,0,0,0c0,0,0,0,0,0s0,0,0,0c0,0,0,0,0,0c0,0,0,0,0,0s0,0,0,0
	c0,0,0,0,0,0s0,0,0,0c0,0,0,0,0,0s0,0,0,0c0,0,0,0,0,0c0,0,0,0,0,0s0,0,0,0c0,0,0,0,0,0s0,0,0,0c0,0,0,0,0,0s0,0,0,0c0,0,0,0,0,0
	s0,0,0,0s0,0,0,0s0,0,0,0s0,0,0,0s0,0,0,0s0,0,0,0c0,0,0,0,0,0s0,0,0,0c0,0,0,0,0,0s0,0,0,0c0,0,0,0,0,0s0,0,0,0c0,0,0,0,0,0
	s0,0,0,0s0,0,0,0c0,0,0,0,0,0s0,0,0,0c0,0,0,0,0,0s0,0,0,0c0,0,0,0,0,0s0,0,0,0s0,0,0,0c0,0,0,0,0,0s0,0,0,0c0,0,0,0,0,0s0,0,0,0
	c0,0,0,0,0,0s0,0,0,0c0,0,0,0,0,0c0,0,0,0,0,0s0,0,0,0s0,0,0,0s0,0,0,0s0,0,0,0s0,0,0,0c0,0,0,0,0,0s0,0,0,0s0,0,0,0c0,0,0,0,0,0
	c0,0,0,0,0,0c0,0,0,0,0,0s0,0,0,0s0,0,0,0s0,0,0,0s0,0,0,0c0,0,0,0,0,0c0,0,0,0,0,0c0,0,0,0,0,0c0,0,0,0,0,0c0,0,0,0,0,0
	c0,0,0,0,0,0c0,0,0,0,0,0s0,0,0,0s0,0,0,0s0,0,0,0s0,0,0,0s0,0,0,0c0,0,0,0,0,0c0,0,0,0,0,0c0,0,0,0,0,0c0,0,0,0,0,0c0,0,0,0,0,0
	c0,0,0,0,0,0c0,0,0,0,0,0c0,0,0,0,0,0c0,0,0,0,0,0c0,0,0,0,0,0c0,0,0,0,0,0c0,0,0,0,0,0c0,0,0,0,0,0c0,0,0,0,0,0c0,0,0,0,0,0
	c0,0,0,0,0,0c0,0,0,0,0,0c0,0,0,0,0,0c0,0,0,0,0,0c0,0,0,0,0,0c0,0,0,0,0,0c0,0,0,0,0,0c0,0,0,0,0,0c0,0,0,0,0,0c0,0,0,0,0,0
	c0,0,0,0,0,0c0,0,0,0,0,0c0,0,0,0,0,0c0,0,0,0,0,0c0,0,0,0,0,0c0,0,0,0,0,0c0,0,0,0,0,0c0,0,0,0,0,0c0,0,0,0,0,0c0,0,0,0,0,0
	c0,0,0,0,0,0c0,0,0,0,0,0c0,0,0,0,0,0c0,0,0,0,0,0c0,0,0,0,0,0c0,0,0,0,0,0c0,0,0,0,0,0c0,0,0,0,0,0c0,0,0,0,0,0c0,0,0,0,0,0
	c0,0,0,0,0,0c0,0,0,0,0,0c0,0,0,0,0,0c0,0,0,0,0,0c0,0,0,0,0,0c0,0,0,0,0,0c0,0,0,0,0,0c0,0,0,0,0,0c0,0,0,0,0,0s0,0,0,0s0,0,0,0h4
	c0,0,0,0,0,0s0,0,0,0s0,0,0,0c0,0,0,0,0,0c0,0,0,0,0,0c0,0,0,0,0,0c0,0,0,0,0,0c0,0,0,0,0,0c0,0,0,0,0,0c0,0,0,0,0,0c0,0,0,0,0,0
	c0,0,0,0,0,0c0,0,0,0,0,0c0,0,0,0,0,0c0,0,0,0,0,0c0,0,0,0,0,0c0,0,0,0,0,0c0,0,0,0,0,0c0,0,0,0,0,0c0,0,0,0,0,0c0,0,0,0,0,0
	c0,0,0,0,0,0c0,0,0,0,0,0c0,0,0,0,0,0c0,0,0,0,0,0c0,0,0,0,0,0c0,0,0,0,0,0c0,0,0,0,0,0c0,0,0,0,0,0c0,0,0,0,0,0c0,0,0,0,0,0
	c0,0,0,0,0,0c0,0,0,0,0,0c0,0,0,0,0,0c0,0,0,0,0,0c0,0,0,0,0,0c0,0,0,0,0,0c0,0,0,0,0,0c0,0,0,0,0,0c0,0,0,0,0,0c0,0,0,0,0,0
	c0,0,0,0,0,0c0,0,0,0,0,0c0,0,0,0,0,0c0,0,0,0,0,0c0,0,0,0,0,0c0,0,0,0,0,0c0,0,0,0,0,0c0,0,0,0,0,0c0,0,0,0,0,0c0,0,0,0,0,0
	c0,0,0,0,0,0c0,0,0,0,0,0c0,0,0,0,0,0c0,0,0,0,0,0c0,0,0,0,0,0c0,0,0,0,0,0s0,0,0,0s0,0,0,0s0,0,0,0s0,0,0,0s0,0,0,0c0,0,0,0,0,0
	c0,0,0,0,0,0c0,0,0,0,0,0c0,0,0,0,0,0c0,0,0,0,0,0c0,0,0,0,0,0c0,0,0,0,0,0s0,0,0,0s0,0,0,0s0,0,0,0s0,0,0,0c0,0,0,0,0,0
	c0,0,0,0,0,0c0,0,0,0,0,0s0,0,0,0s0,0,0,0c0,0,0,0,0,0s0,0,0,0s0,0,0,0s0,0,0,0s0,0,0,0s0,0,0,0c0,0,0,0,0,0c0,0,0,0,0,0s0,0,0,0
	c0,0,0,0,0,0s0,0,0,0c0,0,0,0,0,0s0,0,0,0c0,0,0,0,0,0s0,0,0,0s0,0,0,0c0,0,0,0,0,0s0,0,0,0c0,0,0,0,0,0s0,0,0,0c0,0,0,0,0,0
	s0,0,0,0s0,0,0,0c0,0,0,0,0,0s0,0,0,0c0,0,0,0,0,0s0,0,0,0c0,0,0,0,0,0s0,0,0,0c0,0,0,0,0,0s0,0,0,0s0,0,0,0s0,0,0,0s0,0,0,0
	s0,0,0,0s0,0,0,0c0,0,0,0,0,0s0,0,0,0c0,0,0,0,0,0s0,0,0,0c0,0,0,0,0,0s0,0,0,0c0,0,0,0,0,0c0,0,0,0,0,0s0,0,0,0c0,0,0,0,0,0
	s0,0,0,0c0,0,0,0,0,0s0,0,0,0c0,0,0,0,0,0c0,0,0,0,0,0s0,0,0,0c0,0,0,0,0,0s0,0,0,0c0,0,0,0,0,0s0,0,0,0c0,0,0,0,0,0s0,0,0,0
	s0,0,0,0c0,0,0,0,0,0s0,0,0,0s0,0,0,0s0,0,0,0s0,0,0,0s0,0,0,0s0,0,0,0s0,0,0,0s0,0,0,0s0,0,0,0s0,0,0,0s0,0,0,0c0,0,0,0,0,0
	c0,0,0,0,0,0s0,0,0,0c0,0,0,0,0,0s0,0,0,0c0,0,0,0,0,0s0,0,0,0c0,0,0,0,0,0c0,0,0,0,0,0s0,0,0,0c0,0,0,0,0,0s0,0,0,0c0,0,0,0,0,0
	s0,0,0,0c0,0,0,0,0,0c0,0,0,0,0,0s0,0,0,0c0,0,0,0,0,0s0,0,0,0c0,0,0,0,0,0s0,0,0,0c0,0,0,0,0,0c0,0,0,0,0,0s0,0,0,0s0,0,0,0
	s0,0,0,0s0,0,0,0s0,0,0,0s0,0,0,0s0,0,0,0s0,0,0,0s0,0,0,0c0,0,0,0,0,0s0,0,0,0c0,0,0,0,0,0s0,0,0,0c0,0,0,0,0,0c0,0,0,0,0,0
	s0,0,0,0c0,0,0,0,0,0s0,0,0,0c0,0,0,0,0,0s0,0,0,0c0,0,0,0,0,0c0,0,0,0,0,0s0,0,0,0c0,0,0,0,0,0s0,0,0,0c0,0,0,0,0,0s0,0,0,0
	c0,0,0,0,0,0c0,0,0,0,0,0s0,0,0,0c0,0,0,0,0,0s0,0,0,0s0,0,0,0s0,0,0,0s0,0,0,0c0,0,0,0,0,0s0,0,0,0s0,0,0,0s0,0,0,0s0,0,0,0
	s0,0,0,0s0,0,0,0c0,0,0,0,0,0c0,0,0,0,0,0s0,0,0,0c0,0,0,0,0,0s0,0,0,0c0,0,0,0,0,0s0,0,0,0c0,0,0,0,0,0c0,0,0,0,0,0s0,0,0,0
	c0,0,0,0,0,0s0,0,0,0c0,0,0,0,0,0s0,0,0,0c0,0,0,0,0,0c0,0,0,0,0,0s0,0,0,0c0,0,0,0,0,0s0,0,0,0c0,0,0,0,0,0s0,0,0,0s0,0,0,0
	s0,0,0,0s0,0,0,0s0,0,0,0s0,0,0,0s0,0,0,0s0,0,0,0s0,0,0,0c0,0,0,0,0,0s0,0,0,0s0,0,0,0c0,0,0,0,0,0s0,0,0,0c0,0,0,0,0,0s0,0,0,0
	c0,0,0,0,0,0c0,0,0,0,0,0s0,0,0,0c0,0,0,0,0,0s0,0,0,0c0,0,0,0,0,0s0,0,0,0c0,0,0,0,0,0c0,0,0,0,0,0s0,0,0,0c0,0,0,0,0,0s0,0,0,0
	c0,0,0,0,0,0s0,0,0,0c0,0,0,0,0,0c0,0,0,0,0,0s0,0,0,0c0,0,0,0,0,0s0,0,0,0s0,0,0,0s0,0,0,0s0,0,0,0s0,0,0,0s0,0,0,0s0,0,0,0
	s0,0,0,0s0,0,0,0s0,0,0,0s0,0,0,0s0,0,0,0c0,0,0,0,0,0s0,0,0,0c0,0,0,0,0,0s0,0,0,0c0,0,0,0,0,0s0,0,0,0c0,0,0,0,0,0c0,0,0,0,0,0
	s0,0,0,0c0,0,0,0,0,0s0,0,0,0c0,0,0,0,0,0s0,0,0,0c0,0,0,0,0,0c0,0,0,0,0,0s0,0,0,0c0,0,0,0,0,0s0,0,0,0c0,0,0,0,0,0s0,0,0,0
	c0,0,0,0,0,0s0,0,0,0s0,0,0,0s0,0,0,0s0,0,0,0s0,0,0,0s0,0,0,0c0,0,0,0,0,0s0,0,0,0s0,0,0,0s0,0,0,0c0,0,0,0,0,0s0,0,0,0
	c0,0,0,0,0,0c0,0,0,0,0,0s0,0,0,0c0,0,0,0,0,0s0,0,0,0c0,0,0,0,0,0s0,0,0,0c0,0,0,0,0,0s0,0,0,0s0,0,0,0c0,0,0,0,0,0s0,0,0,0
	c0,0,0,0,0,0s0,0,0,0c0,0,0,0,0,0s0,0,0,0s0,0,0,0c0,0,0,0,0,0s0,0,0,0c0,0,0,0,0,0s0,0,0,0s0,0,0,0s0,0,0,0c0,0,0,0,0,0s0,0,0,0
	s0,0,0,0s0,0,0,0s0,0,0,0s0,0,0,0c0,0,0,0,0,0c0,0,0,0,0,0s0,0,0,0c0,0,0,0,0,0s0,0,0,0c0,0,0,0,0,0s0,0,0,0c0,0,0,0,0,0
	c0,0,0,0,0,0s0,0,0,0c0,0,0,0,0,0s0,0,0,0c0,0,0,0,0,0s0,0,0,0c0,0,0,0,0,0c0,0,0,0,0,0s0,0,0,0c0,0,0,0,0,0s0,0,0,0c0,0,0,0,0,0
	s0,0,0,0c0,0,0,0,0,0s0,0,0,0s0,0,0,0s0,0,0,0s0,0,0,0s0,0,0,0s0,0,0,0s0,0,0,0s0,0,0,0s0,0,0,0s0,0,0,0s0,0,0,0s0,0,0,0
	c0,0,0,0,0,0s0,0,0,0c0,0,0,0,0,0c0,0,0,0,0,0s0,0,0,0c0,0,0,0,0,0s0,0,0,0c0,0,0,0,0,0s0,0,0,0c0,0,0,0,0,0c0,0,0,0,0,0s0,0,0,0
	c0,0,0,0,0,0s0,0,0,0c0,0,0,0,0,0s0,0,0,0c0,0,0,0,0,0c0,0,0,0,0,0s0,0,0,0c0,0,0,0,0,0s0,0,0,0s0,0,0,0s0,0,0,0s0,0,0,0
	c0,0,0,0,0,0s0,0,0,0s0,0,0,0s0,0,0,0s0,0,0,0s0,0,0,0s0,0,0,0c0,0,0,0,0,0c0,0,0,0,0,0s0,0,0,0c0,0,0,0,0,0s0,0,0,0c0,0,0,0,0,0
	s0,0,0,0c0,0,0,0,0,0c0,0,0,0,0,0s0,0,0,0c0,0,0,0,0,0s0,0,0,0c0,0,0,0,0,0s0,0,0,0c0,0,0,0,0,0c0,0,0,0,0,0s0,0,0,0c0,0,0,0,0,0
	s0,0,0,0c0,0,0,0,0,0s0,0,0,0c0,0,0,0,0,0c0,0,0,0,0,0s0,0,0,0s0,0,0,0s0,0,0,0s0,0,0,0s0,0,0,0s0,0,0,0c0,0,0,0,0,0s0,0,0,0
	s0,0,0,0s0,0,0,0s0,0,0,0c0,0,0,0,0,0s0,0,0,0c0,0,0,0,0,0c0,0,0,0,0,0s0,0,0,0c0,0,0,0,0,0s0,0,0,0c0,0,0,0,0,0s0,0,0,0
	c0,0,0,0,0,0c0,0,0,0,0,0s0,0,0,0c0,0,0,0,0,0s0,0,0,0c0,0,0,0,0,0s0,0,0,0c0,0,0,0,0,0c0,0,0,0,0,0s0,0,0,0c0,0,0,0,0,0s0,0,0,0
	s0,0,0,0s0,0,0,0s0,0,0,0s0,0,0,0s0,0,0,0s0,0,0,0s0,0,0,0s0,0,0,0s0,0,0,0s0,0,0,0c0,0,0,0,0,0c0,0,0,0,0,0s0,0,0,0c0,0,0,0,0,0
	s0,0,0,0c0,0,0,0,0,0s0,0,0,0c0,0,0,0,0,0c0,0,0,0,0,0s0,0,0,0c0,0,0,0,0,0s0,0,0,0c0,0,0,0,0,0s0,0,0,0c0,0,0,0,0,0c0,0,0,0,0,0
	s0,0,0,0c0,0,0,0,0,0s0,0,0,0c0,0,0,0,0,0s0,0,0,0c0,0,0,0,0,0c0,0,0,0,0,0s0,0,0,0s0,0,0,0s0,0,0,0s0,0,0,0s0,0,0,0s0,0,0,0
	s0,0,0,0s0,0,0,0s0,0,0,0s0,0,0,0s0,0,0,0c0,0,0,0,0,0s0,0,0,0s0,0,0,0c0,0,0,0,0,0s0,0,0,0c0,0,0,0,0,0H201.4z M201.4,10.1
	C201.4,10.1,201.4,10.1,201.4,10.1C201.4,10.1,201.4,10.1,201.4,10.1C201.4,10.1,201.4,10.1,201.4,10.1
	C201.4,10.1,201.4,10.1,201.4,10.1C201.4,10.1,201.4,10.1,201.4,10.1C201.4,10.1,201.4,10.1,201.4,10.1
	C201.4,10.1,201.4,10.1,201.4,10.1C201.4,10.1,201.4,10.1,201.4,10.1C201.4,10.1,201.4,10.1,201.4,10.1
	C201.4,10.1,201.4,10.1,201.4,10.1C201.4,10.1,201.4,10.1,201.4,10.1C201.4,10.1,201.4,10.1,201.4,10.1
	C201.4,10.1,201.4,10.1,201.4,10.1C201.4,10.1,201.4,10.1,201.4,10.1C201.4,10.1,201.4,10.1,201.4,10.1
	C201.4,10.1,201.4,10.1,201.4,10.1C201.4,10.1,201.4,10.1,201.4,10.1C201.4,10.1,201.4,10.1,201.4,10.1
	C201.4,10.1,201.4,10.1,201.4,10.1C201.4,10.1,201.4,10.1,201.4,10.1C201.4,10.1,201.4,10.1,201.4,10.1
	C201.4,10.1,201.4,10.1,201.4,10.1C201.4,10.1,201.4,10.1,201.4,10.1C201.4,10.1,201.4,10.1,201.4,10.1
	C201.4,10.1,201.4,10.1,201.4,10.1C201.4,10.1,201.4,10.1,201.4,10.1C201.4,10.1,201.4,10.1,201.4,10.1
	C201.4,10.1,201.4,10.1,201.4,10.1C201.4,10.1,201.4,10.1,201.4,10.1C201.4,10.1,201.4,10.1,201.4,10.1
	C201.4,10.1,201.4,10.1,201.4,10.1C201.4,10.1,201.4,10.1,201.4,10.1C201.4,10.1,201.4,10.1,201.4,10.1
	C201.4,10.1,201.4,10.1,201.4,10.1C201.4,10.1,201.4,10.1,201.4,10.1C201.4,10.1,201.4,10.1,201.4,10.1
	C201.4,10.1,201.4,10.1,201.4,10.1C201.4,10.1,201.4,10.1,201.4,10.1C201.4,10.1,201.4,10.1,201.4,10.1
	C201.4,10.1,201.4,10.1,201.4,10.1C201.4,10.1,201.4,10.1,201.4,10.1C201.4,10.1,201.4,10.1,201.4,10.1
	C201.4,10.1,201.4,10.1,201.4,10.1C201.4,10.1,201.4,10.1,201.4,10.1C201.4,10.1,201.4,10.1,201.4,10.1
	C201.4,10.1,201.4,10.1,201.4,10.1C201.4,10.1,201.4,10.1,201.4,10.1C201.4,10.1,201.4,10.1,201.4,10.1
	C201.4,10.1,201.4,10.1,201.4,10.1C201.4,10.1,201.4,10.1,201.4,10.1C201.4,10.1,201.4,10.1,201.4,10.1
	C201.4,10.1,201.4,10.1,201.4,10.1C201.4,10.1,201.4,10.1,201.4,10.1C201.4,10.1,201.4,10.1,201.4,10.1
	C201.4,10.1,201.4,10.1,201.4,10.1C201.4,10.1,201.4,10.1,201.4,10.1C201.4,10.1,201.4,10.1,201.4,10.1
	C201.4,10.1,201.4,10.1,201.4,10.1C201.4,10.1,201.4,10.1,201.4,10.1C201.4,10.1,201.4,10.1,201.4,10.1
	C201.4,10.1,201.4,10.1,201.4,10.1C201.4,10.1,201.4,10.1,201.4,10.1C201.4,10.1,201.4,10.1,201.4,10.1
	C201.4,10.1,201.4,10.1,201.4,10.1C201.4,10.1,201.4,10.1,201.4,10.1C201.4,10.1,201.4,10.1,201.4,10.1
	C201.4,10.1,201.4,10.1,201.4,10.1C201.4,10.1,201.4,10.1,201.4,10.1C201.4,10.1,201.4,10.1,201.4,10.1
	C201.4,10.1,201.4,10.1,201.4,10.1C201.4,10.1,201.4,10.1,201.4,10.1C201.4,10.1,201.4,10.1,201.4,10.1
	C201.4,10.1,201.4,10.1,201.4,10.1C201.4,10.1,201.4,10.1,201.4,10.1C201.4,10.1,201.4,10.1,201.4,10.1
	C201.4,10.1,201.4,10.1,201.4,10.1C201.4,10.1,201.4,10.1,201.4,10.1C201.4,10.1,201.4,10.1,201.4,10.1
	C201.4,10.1,201.4,10.1,201.4,10.1C201.4,10.1,201.4,10.1,201.4,10.1C201.4,10.1,201.4,10.1,201.4,10.1
	C201.4,10.1,201.4,10.1,201.4,10.1C201.4,10.1,201.4,10.1,201.4,10.1C201.4,10.1,201.4,10.1,201.4,10.1
	C201.4,10.1,201.4,10.1,201.4,10.1C201.4,10.1,201.4,10.1,201.4,10.1C201.4,10.1,201.4,10.1,201.4,10.1
	C201.4,10.1,201.4,10.1,201.4,10.1C201.4,10.1,201.4,10.1,201.4,10.1C201.4,10.1,201.4,10.1,201.4,10.1
	C201.4,10.1,201.4,10.1,201.4,10.1C201.4,10.1,201.4,10.1,201.4,10.1C201.4,10.1,201.4,10.1,201.4,10.1
	C201.4,10.1,201.4,10.1,201.4,10.1C201.4,10.1,201.4,10.1,201.4,10.1C201.4,10.1,201.4,10.1,201.4,10.1
	C201.4,10.1,201.4,10.1,201.4,10.1C201.4,10.1,201.4,10.1,201.4,10.1C201.4,10.1,201.4,10.1,201.4,10.1
	C201.4,10.1,201.4,10.1,201.4,10.1C201.4,10.1,201.4,10.1,201.4,10.1C201.4,10.1,201.4,10.1,201.4,10.1
	C201.4,10.1,201.4,10.1,201.4,10.1C201.4,10.1,201.4,10.1,201.4,10.1C201.4,10.1,201.4,10.1,201.4,10.1
	C201.4,10.1,201.4,10.1,201.4,10.1C201.4,10.1,201.4,10.1,201.4,10.1C201.4,10.1,201.4,10.1,201.4,10.1
	C201.4,10.1,201.4,10.1,201.4,10.1C201.4,10.1,201.4,10.1,201.4,10.1C201.4,10.1,201.4,10.1,201.4,10.1
	C201.4,10.1,201.4,10.1,201.4,10.1C201.4,10.1,201.4,10.1,201.4,10.1C201.4,10.1,201.4,10.1,201.4,10.1
	C201.4,10.1,201.4,10.1,201.4,10.1C201.4,10.1,201.4,10.1,201.4,10.1C201.4,10.1,201.4,10.1,201.4,10.1
	C201.4,10.1,201.4,10.1,201.4,10.1C201.4,10.1,201.4,10.1,201.4,10.1C201.4,10.1,201.4,10.1,201.4,10.1
	C201.4,10.1,201.4,10.1,201.4,10.1C201.4,10.1,201.4,10.1,201.4,10.1C201.4,10.1,201.4,10.1,201.4,10.1
	C201.4,10.1,201.4,10.1,201.4,10.1C201.4,10.1,201.4,10.1,201.4,10.1C201.4,10.1,201.4,10.1,201.4,10.1
	C201.4,10.1,201.4,10.1,201.4,10.1C201.4,10.1,201.4,10.1,201.4,10.1C201.4,10.1,201.4,10.1,201.4,10.1
	C201.4,10.1,201.4,10.1,201.4,10.1C201.4,10.1,201.4,10.1,201.4,10.1C201.4,10.1,201.4,10.1,201.4,10.1
	C201.4,10.1,201.4,10.1,201.4,10.1C201.4,10.1,201.4,10.1,201.4,10.1C201.4,10.1,201.4,10.1,201.4,10.1
	C201.4,10.1,201.4,10.1,201.4,10.1C201.4,10.1,201.4,10.1,201.4,10.1C201.4,10.1,201.4,10.1,201.4,10.1
	C201.4,10.1,201.4,10.2,201.4,10.1C201.4,10.2,201.4,10.2,201.4,10.1C201.4,10.2,201.4,10.2,201.4,10.1c0,0.1,0,0.1,0,0.1
	c0,0,0,0,0,0c0,0,0,0,0,0c0,0,0,0,0,0c0,0,0,0,0,0c0,0,0,0,0,0c0,0,0,0,0,0c0,0,0,0,0,0c0,0,0,0,0,0c0,0,0,0,0,0c0,0,0,0,0,0
	c0,0,0,0,0,0c0,0,0,0,0,0c0,0,0,0,0,0c0,0,0,0,0,0c0,0,0,0,0,0c0,0,0,0,0,0c0,0,0,0,0,0c0,0,0,0,0,0c0,0,0,0,0,0c0,0,0,0,0,0
	c0,0,0,0,0,0s0,0,0,0c0,0,0,0,0,0c0,0,0,0,0,0c0,0,0,0,0,0c0,0,0,0,0,0c0,0,0,0,0,0c0,0,0,0,0,0c0,0,0,0,0,0c0,0,0,0,0,0
	c0,0,0,0,0,0c0,0,0,0,0,0c0,0,0,0,0,0s0,0,0,0c0,0,0,0,0,0c0,0,0,0,0,0c0,0,0,0,0,0c0,0,0,0,0,0c0,0,0,0,0,0c0,0,0,0,0,0
	c0,0,0,0,0,0c0,0,0,0,0,0s0,0,0,0c0,0,0,0,0,0c0,0,0,0,0,0c0,0,0,0,0,0c0,0,0,0,0,0c0,0,0,0,0,0c0,0,0,0,0,0c0,0,0,0,0,0
	c0,0,0,0,0,0c0,0,0,0,0,0c0,0,0,0,0,0c0,0,0,0,0,0c0,0,0,0,0,0c0,0,0,0,0,0c0,0,0,0,0,0c0,0,0,0,0,0s0,0,0,0c0,0,0,0,0,0
	c0,0,0,0,0,0c0,0,0,0,0,0c0,0,0,0,0,0c0,0,0,0,0,0c0,0,0,0,0,0s0,0,0,0c0,0,0,0,0,0c0,0,0,0,0,0c0,0,0,0,0,0c0,0,0,0,0,0
	c0,0,0,0,0,0c0,0,0,0,0,0c0,0,0,0,0,0c0,0,0,0,0,0c0,0,0,0,0,0c0,0,0,0,0,0c0,0,0,0,0,0c0,0,0,0,0,0c0,0,0,0,0,0c0,0,0,0,0,0
	c0,0,0,0,0,0c0,0,0,0,0,0c0,0,0,0,0,0c0,0,0,0,0,0s0,0,0,0c0,0,0,0,0,0c0,0,0,0,0,0c0,0,0,0,0,0c0,0,0,0,0,0c0,0,0,0,0,0
	c0,0,0,0,0,0c0,0,0,0,0,0c0,0,0,0,0,0c0,0,0,0,0,0c0,0,0,0,0,0c0,0,0,0,0,0c0,0,0,0,0,0c0,0,0,0,0,0c0,0,0,0,0,0c0,0,0,0,0,0
	c0,0,0,0,0,0c0,0,0,0,0,0c0,0,0,0,0,0c0,0,0,0,0,0c0,0,0,0,0,0s0,0,0,0c0,0,0,0,0,0c0,0,0,0,0,0c0,0,0,0,0,0c0,0,0,0,0,0
	c0,0,0,0,0,0c0,0,0,0,0,0c0,0,0,0,0,0c0,0,0,0,0,0c0,0,0,0,0,0c0,0,0,0,0,0c0,0,0,0,0,0c0,0,0,0,0,0s0,0,0,0c0,0,0,0,0,0
	c0,0,0,0,0,0c0,0,0,0,0,0s0,0,0,0c0,0,0,0,0,0c0,0,0,0,0,0c0,0,0,0,0,0s0,0,0,0c0,0,0,0,0,0c0,0,0,0,0,0c0,0,0,0,0,0c0,0,0,0,0,0
	c0,0,0,0,0,0c0,0,0,0,0,0c0,0,0,0,0,0c0,0,0,0,0,0c0,0,0,0,0,0c0,0,0,0,0,0s0,0,0,0c0,0,0,0,0,0c0,0,0,0,0,0c0,0,0,0,0,0s0,0,0,0
	c0,0,0,0,0,0c0,0,0,0,0,0c0,0,0,0,0,0c0,0,0,0,0,0c0,0,0,0,0,0c0,0,0,0,0,0s0,0,0,0c0,0,0,0,0,0c0,0,0,0,0,0s0,0,0,0c0,0,0,0,0,0
	c0,0,0,0,0,0c0,0,0,0,0,0c0,0,0,0,0,0c0,0,0,0,0,0c0,0,0,0,0,0c0,0,0,0,0,0c0,0,0,0,0,0c0,0,0,0,0,0c0,0,0,0,0,0c0,0,0,0,0,0
	c0,0,0,0,0,0c0,0,0,0,0,0c0,0,0,0,0,0c0,0,0,0,0,0c0,0,0,0,0,0c0,0,0,0,0,0s0,0,0,0c0,0,0,0,0,0c0,0,0,0,0,0s0,0,0,0c0,0,0,0,0,0
	c0,0,0,0,0,0s0,0,0,0c0,0,0,0,0,0c0,0,0,0,0,0c0,0,0,0,0,0c0,0,0,0,0,0c0,0,0,0,0,0c0,0,0,0,0,0c0,0,0,0,0,0s0,0,0,0c0,0,0,0,0,0
	c0,0,0,0,0,0c0,0,0,0,0,0c0,0,0,0,0,0c0,0,0,0,0,0c0,0,0,0,0,0c0,0,0,0,0,0c0,0,0,0,0,0c0,0,0,0,0,0c0,0,0,0,0,0c0,0,0,0,0,0
	c0,0,0,0,0,0c0,0,0,0,0,0c0,0,0,0,0,0c0,0,0,0,0,0c0,0,0,0,0,0c0,0,0,0,0,0c0,0,0,0,0,0c0,0,0,0,0,0c0,0,0,0,0,0c0,0,0,0,0,0
	c0,0,0,0,0,0c0,0,0,0,0,0c0,0,0,0,0,0c0,0,0,0,0,0c0,0,0,0,0,0c0,0,0,0,0,0c0,0,0,0,0,0c0,0,0,0,0,0c0,0,0,0,0,0s0,0,0,0
	c0,0,0,0,0,0c0,0,0,0,0,0c0,0,0,0,0,0c0,0,0,0,0,0c0,0,0,0,0,0c0,0,0,0,0,0c0,0,0,0,0,0c0,0,0,0,0,0c0,0,0,0,0,0c0,0,0,0,0,0
	c0,0,0,0,0,0c0,0,0,0,0,0c0,0,0,0,0,0c0,0,0,0,0,0c0,0,0,0,0,0c0,0,0,0,0,0c0,0,0,0,0,0c0,0,0,0,0,0c0,0,0,0,0,0c0,0,0,0,0,0
	c0,0,0,0,0,0c0,0,0,0,0,0c0,0,0,0,0,0c0,0,0,0,0,0c0,0,0,0,0,0c0,0,0,0,0,0c0,0,0,0,0,0c0,0,0,0,0,0c0,0,0,0,0,0c0,0,0,0,0,0
	c0,0,0,0,0,0c0,0,0,0,0,0c0,0,0,0,0,0c0,0,0,0,0,0c0,0,0,0,0,0c0,0,0,0,0,0c0,0,0,0,0,0c0,0,0,0,0,0c0,0,0,0,0,0c0,0,0,0,0,0
	c0,0,0,0,0,0c0,0,0,0,0,0c0,0,0,0,0,0c0,0,0,0,0,0c0,0,0,0,0,0c0,0,0,0,0,0c0,0,0,0,0,0c0,0,0,0,0,0c0,0,0,0,0,0c0,0,0,0,0,0
	c0,0,0,0,0,0c0,0,0,0,0,0c0,0,0,0,0,0c0,0,0,0,0,0c0,0,0,0,0,0c0,0,0,0,0,0c0,0,0,0,0,0c0,0,0,0,0,0c0,0,0,0,0,0c0,0,0,0,0,0
	c0,0,0,0,0,0s0,0,0,0c0,0,0,0,0,0c0,0,0,0,0,0s0,0,0,0c0,0,0,0,0,0c0,0,0,0,0,0s0,0,0,0c0,0,0,0,0,0c0,0,0,0,0,0s0,0,0,0
	c0,0,0,0,0,0c0,0,0,0,0,0s0,0,0,0c0,0,0,0,0,0c0,0,0,0,0,0c0,0,0,0,0,0c0,0,0,0,0,0c0,0,0,0,0,0s0,0,0,0c0,0,0,0,0,0c0,0,0,0,0,0
	c0,0,0,0,0,0c0,0,0,0,0,0c0,0,0,0,0,0c0,0,0,0,0,0s0,0,0,0c0,0,0,0,0,0c0,0,0,0,0,0c0,0,0,0,0,0s0,0,0,0c0,0,0,0,0,0c0,0,0,0,0,0
	c0,0,0,0,0,0s0,0,0,0c0,0,0,0,0,0c0,0,0,0,0,0c0,0,0,0,0,0s0,0,0,0c0,0,0,0,0,0c0,0,0,0,0,0c0,0,0,0,0,0s0,0,0,0c0,0,0,0,0,0
	c0,0,0,0,0,0c0,0,0,0,0,0c0,0,0,0,0,0c0,0,0,0,0,0c0,0,0,0,0,0c0,0,0,0,0,0c0,0,0,0,0,0c0,0,0,0,0,0c0,0,0,0,0,0c0,0,0,0,0,0
	c0,0,0,0,0,0c0,0,0,0,0,0c0,0,0,0,0,0c0,0,0,0,0,0c0,0,0,0,0,0c0,0,0,0,0,0c0,0,0,0,0,0c0,0,0,0,0,0c0,0,0,0,0,0c0,0,0,0,0,0
	s0,0,0,0c0,0,0,0,0,0c0,0,0,0,0,0c0,0,0,0,0,0c0,0,0,0,0,0c0,0,0,0,0,0c0,0,0,0,0,0c0,0,0,0,0,0c0,0,0,0,0,0c0,0,0,0,0,0
	c0,0,0,0,0,0c0,0,0,0,0,0c0,0,0,0,0,0c0,0,0,0,0,0c0,0,0,0,0,0c0,0,0,0,0,0c0,0,0,0,0,0c0,0,0,0,0,0c0,0,0,0,0,0c0,0,0,0,0,0
	c0,0,0,0,0,0c0,0,0,0,0,0c0,0,0,0,0,0c0,0,0,0,0,0c0,0,0,0,0,0c0,0,0,0,0,0c0,0,0,0,0,0c0,0,0,0,0,0c0,0,0,0,0,0c0,0,0,0,0,0
	c0,0,0,0,0,0h4c0,0,0,0,0,0c0,0,0,0,0,0c0,0,0,0,0,0c0,0,0,0,0,0c0,0,0,0,0,0c0,0,0,0,0,0c0,0,0,0,0,0c0,0,0,0,0,0c0,0,0,0,0,0
	c0,0,0,0,0,0c0,0,0,0,0,0c0,0,0,0,0,0c0,0,0,0,0,0c0,0,0,0,0,0c0,0,0,0,0,0c0,0,0,0,0,0c0,0,0,0,0,0c0,0,0,0,0,0c0,0,0,0,0,0
	c0,0,0,0,0,0c0,0,0,0,0,0c0,0,0,0,0,0c0,0,0,0,0,0c0,0,0,0,0,0c0,0,0,0,0,0c0,0,0,0,0,0c0,0,0,0,0,0c0,0,0,0,0,0c0,0,0,0,0,0
	c0,0,0,0,0,0c0,0,0,0,0,0s0,0,0,0c0,0,0,0,0,0c0,0,0,0,0,0c0,0,0,0,0,0c0,0,0,0,0,0c0,0,0,0,0,0c0,0,0,0,0,0c0,0,0,0,0,0
	c0,0,0,0,0,0c0,0,0,0,0,0c0,0,0,0,0,0c0,0,0,0,0,0c0,0,0,0,0,0c0,0,0,0,0,0c0,0,0,0,0,0c0,0,0,0,0,0c0,0,0,0,0,0c0,0,0,0,0,0
	c0,0,0,0,0,0c0,0,0,0,0,0c0,0,0,0,0,0c0,0,0,0,0,0s0,0,0,0c0,0,0,0,0,0c0,0,0,0,0,0c0,0,0,0,0,0s0,0,0,0c0,0,0,0,0,0c0,0,0,0,0,0
	c0,0,0,0,0,0s0,0,0,0c0,0,0,0,0,0c0,0,0,0,0,0c0,0,0,0,0,0s0,0,0,0c0,0,0,0,0,0c0,0,0,0,0,0c0,0,0,0,0,0s0,0,0,0c0,0,0,0,0,0
	c0,0,0,0,0,0c0,0,0,0,0,0c0,0,0,0,0,0c0,0,0,0,0,0c0,0,0,0,0,0s0,0,0,0c0,0,0,0,0,0c0,0,0,0,0,0c0,0,0,0,0,0c0,0,0,0,0,0
	c0,0,0,0,0,0s0,0,0,0c0,0,0,0,0,0c0,0,0,0,0,0s0,0,0,0c0,0,0,0,0,0c0,0,0,0,0,0s0,0,0,0c0,0,0,0,0,0c0,0,0,0,0,0s0,0,0,0
	c0,0,0,0,0,0c0,0,0,0,0,0s0,0,0,0c0,0,0,0,0,0c0,0,0,0,0,0c0,0,0,0,0,0c0,0,0,0,0,0c0,0,0,0,0,0c0,0,0,0,0,0c0,0,0,0,0,0
	c0,0,0,0,0,0c0,0,0,0,0,0c0,0,0,0,0,0c0,0,0,0,0,0c0,0,0,0,0,0c0,0,0,0,0,0c0,0,0,0,0,0c0,0,0,0,0,0c0,0,0,0,0,0c0,0,0,0,0,0
	c0,0,0,0,0,0c0,0,0,0,0,0c0,0,0,0,0,0c0,0,0,0,0,0c0,0,0,0,0,0c0,0,0,0,0,0c0,0,0,0,0,0c0,0,0,0,0,0c0,0,0,0,0,0c0,0,0,0,0,0
	c0,0,0,0,0,0c0,0,0,0,0,0c0,0,0,0,0,0c0,0,0,0,0,0c0,0,0,0,0,0c0,0,0,0,0,0c0,0,0,0,0,0c0,0,0,0,0,0c0,0,0,0,0,0c0,0,0,0,0,0
	c0,0,0,0,0,0c0,0,0,0,0,0c0,0,0,0,0,0c0,0,0,0,0,0c0,0,0,0,0,0c0,0,0,0,0,0c0,0,0,0,0,0c0,0,0,0,0,0c0,0,0,0,0,0c0,0,0,0,0,0
	c0,0,0,0,0,0c0,0,0,0,0,0c0,0,0,0,0,0c0,0,0,0,0,0c0,0,0,0,0,0c0,0,0,0,0,0c0,0,0,0,0,0c0,0,0,0,0,0c0,0,0,0,0,0c0,0,0,0,0,0
	c0,0,0,0,0,0c0,0,0,0,0,0c0,0,0,0,0,0c0,0,0,0,0,0s0,0,0,0c0,0,0,0,0,0c0,0,0,0,0,0c0,0,0,0,0,0c0,0,0,0,0,0c0,0,0,0,0,0
	c0,0,0,0,0,0c0,0,0,0,0,0c0,0,0,0,0,0c0,0,0,0,0,0c0,0,0,0,0,0c0,0,0,0,0,0c0,0,0,0,0,0c0,0,0,0,0,0c0,0,0,0,0,0c0,0,0,0,0,0
	c0,0,0,0,0,0c0,0,0,0,0,0c0,0,0,0,0,0c0,0,0,0,0,0c0,0,0,0,0,0c0,0,0,0,0,0c0,0,0,0,0,0c0,0,0,0,0,0c0,0,0,0,0,0c0,0,0,0,0,0
	c0,0,0,0,0,0c0,0,0,0,0,0c0,0,0,0,0,0c0,0,0,0,0,0c0,0,0,0,0,0s0,0,0,0c0,0,0,0,0,0c0,0,0,0,0,0c0,0,0,0,0,0c0,0,0,0,0,0
	c0,0,0,0,0,0c0,0,0,0,0,0c0,0,0,0,0,0s0,0,0,0c0,0,0,0,0,0c0,0,0,0,0,0s0,0,0,0c0,0,0,0,0,0c0,0,0,0,0,0s0,0,0,0c0,0,0,0,0,0
	c0,0,0,0,0,0c0,0,0,0,0,0c0,0,0,0,0,0c0,0,0,0,0,0c0,0,0,0,0,0c0,0,0,0,0,0c0,0,0,0,0,0c0,0,0,0,0,0c0,0,0,0,0,0c0,0,0,0,0,0
	c0,0,0,0,0,0c0,0,0,0,0,0c0,0,0,0,0,0c0,0,0,0,0,0c0,0,0,0,0,0c0,0,0,0,0,0s0,0,0,0c0,0,0,0,0,0c0,0,0,0,0,0s0,0,0,0c0,0,0,0,0,0
	c0,0,0,0,0,0c0,0,0,0,0,0c0,0,0,0,0,0c0,0,0,0,0,0c0,0,0,0,0,0s0,0,0,0c0,0,0,0,0,0c0,0,0,0,0,0c0,0,0,0,0,0s0,0,0,0c0,0,0,0,0,0
	c0,0,0,0,0,0c0,0,0,0,0,0c0,0,0,0,0,0c0,0,0,0,0,0c0,0,0,0,0,0c0,0,0,0,0,0c0,0,0,0,0,0c0,0,0,0,0,0c0,0,0,0,0,0s0,0,0,0
	c0,0,0,0,0,0c0,0,0,0,0,0c0,0,0,0,0,0s0,0,0,0c0,0,0,0,0,0c0,0,0,0,0,0c0,0,0,0,0,0s0,0,0,0c0,0,0,0,0,0c0,0,0,0,0,0c0,0,0,0,0,0
	c0,0,0,0,0,0c0,0,0,0,0,0c0,0,0,0,0,0c0,0,0,0,0,0c0,0,0,0,0,0c0,0,0,0,0,0c0,0,0,0,0,0c0,0,0,0,0,0c0,0,0,0,0,0s0,0,0,0
	c0,0,0,0,0,0c0,0,0,0,0,0c0,0,0,0,0,0c0,0,0,0,0,0c0,0,0,0,0,0c0,0,0,0,0,0c0,0,0,0,0,0c0,0,0,0,0,0c0,0,0,0,0,0c0,0,0,0,0,0
	c0,0,0,0,0,0c0,0,0,0,0,0c0,0,0,0,0,0c0,0,0,0,0,0c0,0,0,0,0,0c0,0,0,0,0,0c0,0,0,0,0,0c0,0,0,0,0,0c0,0,0,0,0,0c0,0,0,0,0,0
	s0,0,0,0c0,0,0,0,0,0c0,0,0,0,0,0c0,0,0,0,0,0c0,0,0,0,0,0c0,0,0,0,0,0c0,0,0,0,0,0c0,0,0,0,0,0c0,0,0,0,0,0c0,0,0,0,0,0
	c0,0,0,0,0,0c0,0,0,0,0,0c0,0,0,0,0,0c0,0,0,0,0,0c0,0,0,0,0,0c0,0,0,0,0,0c0,0,0,0,0,0c0,0,0,0,0,0c0,0,0,0,0,0s0,0,0,0
	c0,0,0,0,0,0c0,0,0,0,0,0c0,0,0,0,0,0c0,0,0,0,0,0c0,0,0,0,0,0c0,0,0,0,0,0s0,0,0,0c0,0,0,0,0,0c0,0,0,0,0,0c0,0,0,0,0,0
	c0,0,0,0,0,0c0,0,0,0,0,0c0,0,0,0,0,0c0,0,0,0,0,0c0,0,0,0,0,0c0,0,0,0,0,0c0,0,0,0,0,0c0,0,0,0,0,0c0,0,0,0,0,0c0,0,0,0,0,0
	c0,0,0,0,0,0c0,0,0,0,0,0s0,0,0,0c0,0,0,0,0,0c0,0,0,0,0,0c0,0,0,0,0,0c0,0,0,0,0,0c0,0,0,0,0,0c0,0,0,0,0,0c0,0,0,0,0,0
	c0,0,0,0,0,0s0,0,0,0c0,0,0,0,0,0c0,0,0,0,0,0c0,0,0,0,0,0c0,0,0,0,0,0c0,0,0,0,0,0c0,0,0,0,0,0c0,0,0,0,0,0c0,0,0,0,0,0
	c0,0,0,0,0,0c0,0,0,0,0,0c0,0,0,0,0,0s0,0,0,0c0,0,0,0,0,0c0,0,0,0,0,0c0,0,0,0,0,0c0,0,0,0,0,0c0,0,0,0,0,0c0,0,0,0,0,0
	c0,0,0,0,0,0c0,0,0,0,0,0c0,0,0,0,0,0c0,0,0,0,0,0c0,0,0,0,0,0c0,0,0,0,0,0c0,0,0,0,0,0c0,0,0,0,0,0c0,0,0,0,0,0c0,0,0,0,0,0
	c0,0,0,0,0,0c0,0,0,0,0,0c0,0,0,0,0,0c0,0,0,0,0,0c0,0,0,0,0,0c0,0,0,0,0,0c0,0,0,0,0,0c0,0,0,0,0,0c0,0,0,0,0,0c0,0,0,0,0,0
	c0,0,0,0,0,0s0,0,0,0c0,0,0,0,0,0c0,0,0,0,0,0c0,0,0,0,0,0c0,0,0,0,0,0c0,0,0,0,0,0c0,0,0,0,0,0c0,0,0,0,0,0c0,0,0,0,0,0
	c0,0,0,0,0,0c0,0,0,0,0,0c0,0,0,0,0,0c0,0,0,0,0,0c0,0,0,0,0,0c0,0,0,0,0,0c0,0,0,0,0,0c0,0,0,0,0,0c0,0,0,0,0,0c0,0,0,0,0,0
	c0,0,0,0,0,0c0,0,0,0,0,0c0,0,0,0,0,0c0,0,0,0,0,0c0,0,0,0,0,0c0,0,0,0,0,0c0,0,0,0,0,0s0,0,0,0c0,0,0,0,0,0c0,0,0,0,0,0
	c0,0,0,0,0,0s0,0,0,0c0,0,0,0,0,0c0,0,0,0,0,0c0,0,0,0,0,0c0,0,0,0,0,0c0,0,0,0,0,0c0,0,0,0,0,0c0,0,0,0,0,0c0,0,0,0,0,0
	c0,0,0,0,0,0c0,0,0,0,0,0c0,0,0,0,0,0c0,0,0,0,0,0c0,0,0,0,0,0c0,0,0,0,0,0c0,0,0,0,0,0c0,0,0,0,0,0c0,0,0,0,0,0c0,0,0,0,0,0
	c0,0,0,0,0,0c0,0,0,0,0,0c0,0,0,0,0,0c0,0,0,0,0,0c0,0,0,0,0,0c0,0,0,0,0,0c0,0,0,0,0,0c0,0,0,0,0,0c0,0,0,0,0,0c0,0,0,0,0,0
	c0,0,0,0,0,0c0,0,0,0,0,0c0,0,0,0,0,0c0,0,0,0,0,0c0,0,0,0,0,0c0,0,0,0,0,0c0,0,0,0,0,0c0,0,0,0,0,0c0,0,0,0,0,0c0,0,0,0,0,0
	c0,0,0,0,0,0c0,0,0,0,0,0c0,0,0,0,0,0c0,0,0,0,0,0c0,0,0,0,0,0c0,0,0,0,0,0c0,0,0,0,0,0c0,0,0,0,0,0c0,0,0,0,0,0c0,0,0,0,0,0
	c0,0,0,0,0,0c0,0,0,0,0,0c0,0,0,0,0,0c0,0,0,0,0,0c0,0,0,0,0,0c0,0,0,0,0,0c0,0,0,0,0,0c0,0,0,0,0,0c0,0,0,0,0,0c0,0,0,0,0,0
	c0,0,0,0,0,0c0,0,0,0,0,0c0,0,0,0,0,0c0,0,0,0,0,0c0,0,0,0,0,0c0,0,0,0,0,0c0,0,0,0,0,0c0,0,0,0,0,0c0,0,0,0,0,0c0,0,0,0,0,0
	c0,0,0,0,0,0c0,0,0,0,0,0c0,0,0,0,0,0c0,0,0,0,0,0c0,0,0,0,0,0c0,0,0,0,0,0c0,0,0,0,0,0c0,0,0,0,0,0c0,0,0,0,0,0c0,0,0,0,0,0
	c0,0,0,0,0,0c0,0,0,0,0,0c0,0,0,0,0,0c0,0,0,0,0,0c0,0,0,0,0,0c0,0,0,0,0,0c0,0,0,0,0,0c0,0,0,0,0,0c0,0,0,0,0,0c0,0,0,0,0,0
	c0,0,0,0,0,0c0,0,0,0,0,0c0,0,0,0,0,0s0,0,0,0s0,0,0,0s0,0,0,0s0,0,0,0s0,0,0,0c0,0,0,0,0,0c0,0,0,0,0,0c0,0,0,0,0,0c0,0,0,0,0,0
	c0,0,0,0,0,0c0,0,0,0,0,0c0,0,0,0,0,0s0,0,0,0H201.4z M201.4,10.7c2.1,25.1,2.8,50.6,0,75.6l4,0.4c2.9-25.3,2.1-51.2,0-76.4
	L201.4,10.7z M201.4,86.2c-0.1,1.1,0.1,2.1,0.7,2.9c0.6,0.8,1.3,1.3,2.1,1.6c1.5,0.7,3.4,0.9,5.2,0.8c1.8-0.1,3.7-0.5,5.3-1.4
	c1.5-0.8,3.1-2.3,3.3-4.4l-4-0.4c0,0.3-0.3,0.8-1.2,1.3c-0.9,0.5-2.3,0.8-3.6,0.9c-1.4,0.1-2.6-0.1-3.3-0.4
	c-0.4-0.2-0.5-0.3-0.5-0.3c0,0,0,0,0,0c0,0,0,0,0,0L201.4,86.2z M218,85.7c1.8-14.5,2.1-29.3,1.9-43.9l-4,0.1
	c0.2,14.6-0.1,29.1-1.9,43.4L218,85.7z M216,42.6c9.3,21.9,17,44.5,21.7,67.7l3.9-0.8C236.9,86,229.1,63,219.7,41L216,42.6z
	 M237.7,109.7c-0.1,1,0.2,2,0.7,2.8c0.5,0.7,1.3,1.2,2,1.6c1.4,0.7,3.2,0.9,4.9,0.8l-0.2-4c-1.3,0.1-2.4-0.1-3-0.4
	c-0.3-0.1-0.4-0.3-0.4-0.3c0,0,0,0,0,0c0,0,0,0,0,0L237.7,109.7z M245.2,114.8c2.1,0.1,4.4-0.4,6.1-1.3c1.7-0.9,3.6-2.6,3-5.3
	l-3.9,0.9c0,0.1,0,0.1,0,0.2c-0.1,0.2-0.4,0.4-0.9,0.7c-1,0.5-2.6,0.9-4.1,0.8L245.2,114.8z M254.3,108.8
	c2.4-34.3,3.4-68.8,3.5-103.1l-4,0c-0.1,34.3-1.2,68.7-3.5,102.9L254.3,108.8z M296.7,45.2l-1.1,1.6l0,0L296.7,45.2z M267.6,24.8
	l-1.9,0.6l0,0l0,0L267.6,24.8z M271.5,15.7l-0.1,2l0,0l0,0L271.5,15.7z M288,36.4h2V36l-0.1-0.4L288,36.4z M289.2,38.3l1.1-1.7l0,0
	l0,0L289.2,38.3z M299,37.5l1.2,1.6l0.1-0.1l0.1-0.1L299,37.5z M299.4,37.3l-1.3-1.5l-0.1,0.1l-0.1,0.1L299.4,37.3z M300.5,35.1
	l-2,0v0v0H300.5z M304.9,10.9l-1.9-0.7l0,0L304.9,10.9z M292.6,10.1l-1.9-0.7l0,0L292.6,10.1z M290.3,17.8l-1.5,1.3l2.6,2.9l0.8-3.8
	L290.3,17.8z M266.3,8.3l0.4,2l0,0l0,0L266.3,8.3z M255.8,28.2l1.8-0.8l0,0L255.8,28.2z M295.4,59.3l-1.7,1l0,0L295.4,59.3z
	 M280.3,84.9l0.5-1.9v0L280.3,84.9z M277.8,59l0.8-1.8l0,0l0,0L277.8,59z M286.3,53.4l0.8-1.9l0,0l0,0L286.3,53.4z M255.4,72.9
	l2-0.4l0,0L255.4,72.9z M299.2,88.5l-0.9-1.8l0,0L299.2,88.5z M297.8,43.6c-2.5-1.7-5.3-3.1-8.2-4.4c-2.9-1.3-5.8-2.5-8.6-3.9
	c-5.5-2.8-9.8-6-11.4-11.1l-3.8,1.2c2.1,6.8,7.7,10.6,13.5,13.5c2.9,1.4,6,2.7,8.8,4c2.9,1.3,5.4,2.5,7.6,4L297.8,43.6z M269.5,24.2
	c-0.5-1.6-0.6-3.5-0.2-4.9c0.2-0.7,0.5-1.1,0.7-1.3c0.2-0.2,0.6-0.4,1.4-0.3l0.2-4c-1.6-0.1-3,0.3-4.1,1.3c-1.1,0.9-1.7,2.1-2,3.3
	c-0.6,2.3-0.4,5,0.2,7.1L269.5,24.2z M271.5,17.7c1.1,0,2.5,0.6,4,2c1.5,1.3,3,3.1,4.4,5.2c2.8,4.2,5.1,9.2,6.3,12.2l3.7-1.5
	c-1.3-3.2-3.7-8.5-6.7-13c-1.5-2.3-3.2-4.4-5.1-6c-1.8-1.6-4-2.9-6.5-2.9L271.5,17.7z M286,36.4c0,1.6,1,2.8,2.1,3.6l2.2-3.3
	c-0.1-0.1-0.2-0.2-0.3-0.3c0-0.1,0-0.1,0,0H286z M288.1,39.9c1.7,1.1,4,1.4,6.1,1.3c2.1-0.1,4.4-0.8,6.1-2l-2.4-3.2
	c-0.8,0.6-2.3,1.1-3.9,1.2c-1.7,0.1-3-0.2-3.5-0.6L288.1,39.9z M300.4,39c-0.2,0.2-0.4,0.3-0.3,0.3c0.1,0,0.4-0.2,0.7-0.5l-2.8-2.8
	c0.2-0.2,0.4-0.3,0.3-0.3c-0.1,0-0.4,0.2-0.7,0.5L300.4,39z M300.6,38.8c1-0.9,1.9-2.2,1.9-3.8h-4c0,0.1-0.1,0.4-0.5,0.7L300.6,38.8
	z M302.5,35.1c0.1-8.1,1.4-16.1,4.2-23.5l-3.7-1.4c-3.1,7.9-4.4,16.4-4.5,24.9L302.5,35.1z M306.8,11.6c0.4-1,0.5-2,0.1-3
	c-0.3-1-1-1.7-1.7-2.1c-1.4-0.9-3.2-1.3-5-1.4c-1.8-0.1-3.7,0.2-5.4,0.8c-1.6,0.6-3.3,1.6-4.1,3.5l3.7,1.4c0.1-0.3,0.5-0.8,1.7-1.2
	c1.1-0.4,2.5-0.6,3.8-0.5c1.4,0.1,2.4,0.4,2.9,0.7c0.2,0.2,0.2,0.2,0.2,0.2c0-0.1,0,0-0.1,0.2L306.8,11.6z M290.8,9.3
	c-1,2.5-1.8,5.2-2.4,8.1l3.9,0.8c0.6-2.6,1.4-5.1,2.3-7.5L290.8,9.3z M291.8,16.5c-6.5-7.2-15.6-12.7-25.9-10.2l0.9,3.9
	c8.3-2,16,2.2,22,9L291.8,16.5z M265.9,6.3C255.6,8.6,249.8,19.2,254,29l3.7-1.6c-3.1-7.4,1.2-15.5,9.1-17.2L265.9,6.3z M254,29
	c3.9,9.2,12.3,13.4,20.1,17c8.1,3.8,15.5,7.1,19.5,14.2l3.5-2c-4.7-8.5-13.5-12.2-21.3-15.9c-8-3.7-14.9-7.3-18.1-15L254,29z
	 M293.6,60.2c3.1,5.5,3.4,12.2,1.2,16.9c-1.1,2.3-2.8,4.2-5,5.2c-2.2,1.1-5.2,1.4-9.1,0.5l-0.9,3.9c4.5,1.1,8.5,0.7,11.7-0.8
	c3.2-1.5,5.5-4.1,6.9-7.2c2.8-6.1,2.3-14.1-1.3-20.6L293.6,60.2z M280.7,82.9c-2.8-0.7-5.3-2.7-7.1-5.4c-1.9-2.8-3-6.2-3.4-9.2
	c-0.4-3.2,0.2-5.6,1.2-6.9c0.5-0.6,1.1-1,1.9-1.1c0.8-0.1,2.1,0,3.7,0.6l1.5-3.7c-2.1-0.8-4.1-1.2-5.8-0.9c-1.8,0.3-3.3,1.2-4.3,2.5
	c-2.1,2.5-2.5,6.3-2.1,9.9c0.4,3.7,1.8,7.7,4,11c2.2,3.3,5.4,6.1,9.5,7.1L280.7,82.9z M277,60.9c1.5,0.6,3.4,0.6,5,0.3
	c1.7-0.3,3.5-0.8,4.9-1.6c0.7-0.4,1.4-0.8,2-1.4c0.5-0.5,1.1-1.2,1.3-2.2c0.2-1.1-0.1-2.1-0.8-2.9c-0.6-0.7-1.5-1.3-2.5-1.7
	l-1.5,3.7c0.7,0.3,0.9,0.5,0.9,0.5c0,0,0-0.1-0.1-0.2c0-0.1,0-0.3,0-0.4c0-0.2,0.1-0.1-0.2,0.1c-0.2,0.2-0.6,0.5-1.1,0.7
	c-1,0.5-2.4,1-3.7,1.2c-1.4,0.2-2.4,0.1-2.9-0.1L277,60.9z M287,51.5c-8-3.2-17.3-3.3-24.3,0.2c-3.5,1.8-6.5,4.5-8.2,8.2
	c-1.7,3.7-2.2,8.2-1.1,13.5l3.9-0.8c-1-4.6-0.5-8.2,0.8-11c1.3-2.8,3.5-4.9,6.4-6.3c5.7-2.9,13.9-2.9,21,0L287,51.5z M253.4,73.4
	c2.2,10.6,10,16.9,19.1,19.4c9,2.6,19.5,1.6,27.6-2.5l-1.8-3.6c-7.2,3.6-16.7,4.5-24.8,2.2c-8-2.3-14.5-7.6-16.3-16.4L253.4,73.4z
	 M300.1,90.3c5.1-2.6,8.6-6.1,10.7-10.2c2-4.1,2.6-8.7,1.9-13.2c-1.2-8.9-7-17.9-15-23.3l-2.3,3.3c7.1,4.9,12.2,12.9,13.3,20.6
	c0.5,3.8,0.1,7.6-1.6,10.8c-1.6,3.3-4.5,6.2-8.9,8.4L300.1,90.3z"/>
<path class="st1" d="M54.2,22.4C47.8,4.5,31.8,5.2,21.9,15.6c-0.6,0.1-0.9,0.2-1.4,0.4C1.6,23.4-0.3,60.6,6.2,76
	c3.1,7.1,8.6,12.2,15.1,14.6c0,5.4,0.1,10.7,0.5,16.2c0.2,4.7,13,3.8,12.6-1.2c-0.2-4.6-0.2-9.2-0.4-13.8c3.2-0.5,6.3-1.7,9.2-3.4
	C62.4,76.4,60.6,40.8,54.2,22.4z M34.7,83.7c-0.2,0.1-0.5,0.1-0.6,0.2c0.2-14.9,1.5-29.9,3.8-44.5c0.8-5.4-11.8-5.1-12.5-0.7
	c-2,13.2-3.4,26.7-3.9,40.1c-3.2-5-5.1-12-5.4-16c-0.6-6.3-0.4-21.9,3.8-32.3c3.2,0.2,7-0.8,7.7-3.1c1.5-4.4,2.7-9.1,7.7-9.3
	c5.2-0.2,6.1,4.7,7.3,9.2c1.7,6.1,2.2,12.9,2.6,19.1C45.6,56.9,45.7,77.4,34.7,83.7z M102.7,88.1c-5.2-20.9-5.8-43.7-1.2-64.7
	c0.4-1.7-0.6-2.8-2.1-3.4h-0.1c-0.2-0.1-0.6-0.2-0.9-0.4c-3.4-0.8-8.6,0.2-9.2,3.1c-3.9,17.8-8.5,36.9-18.5,52.5
	c-0.1,0.1-0.2,0.4-0.4,0.5c1.1-21.2,6.3-43,11.8-63c1.4-5.2-11.2-5.2-12.4-0.8c-6.8,24.4-13.2,51.7-12.3,77.3
	c0.1,3.1,5.3,3.8,9.1,2.6c0.6,0,1.2-0.2,1.7-0.4c5.3-2.2,9.3-7.2,12.5-11.7c2.2-3.2,4.1-6.5,6-9.9c0.7,6.5,1.8,13,3.3,19.4
	C91.2,93.9,103.7,92.4,102.7,88.1z M152.1,52.4c-0.5-4.8-13.2-3.8-12.7,1.1c0.6,7.3,3.1,18.9,0.1,26.1c-3.1,7.8-15.9,7.1-21.8,0.7
	c-13.8-14.8,0.6-35.9,15.9-41.1c6.6-2.2,0.2-6.5-3.8-6.3c-6.8,0.5-16.3,0.2-11.6-8.9c1.1-2,7.2-8.4,9.3-8c2,0.4,4.1,4.6,5.3,6.4
	c2,3.2,3.7,7,4.7,10.6c0,3,5.3,3.7,9.1,2.5c2.4-0.6,4.2-1.9,3.7-3.7c0.1-7.1,0.5-16.2,1.7-22.4c0.9-5.3-11.7-5.1-12.5-0.7
	c-0.2,1.5-0.5,3.2-0.7,4.8c-8.4-6.8-19.5-6.7-30,5.5c-9.8,11.7-2.6,17.5,7.2,19.7c-8.1,5.3-14.3,13.2-15.7,23.6
	c-1.5,10.9,2.9,22.3,13.2,27.3c9,4.4,30,3.3,36.7-4.8C156.2,77.4,152.8,60.6,152.1,52.4z M203.1,52.4c-0.5-4.8-13.2-3.8-12.7,1.1
	c0.6,7.3,3.1,18.9,0.1,26.1c-3.1,7.8-15.9,7.1-21.8,0.7c-13.8-14.8,0.6-35.9,15.9-41.1c6.6-2.2,0.2-6.5-3.8-6.3
	c-6.8,0.5-16.3,0.2-11.6-8.9c1.1-2,7.2-8.4,9.3-8c2,0.4,4.1,4.6,5.3,6.4c2,3.2,3.7,7,4.7,10.6c0,3,5.3,3.7,9.1,2.5
	c2.4-0.6,4.2-1.9,3.7-3.7c0.1-7.1,0.5-16.2,1.7-22.4c0.9-5.3-11.7-5.1-12.5-0.7c-0.2,1.5-0.5,3.2-0.7,4.8c-8.4-6.8-19.5-6.7-30,5.5
	c-9.8,11.7-2.6,17.5,7.2,19.7c-8.1,5.3-14.3,13.2-15.7,23.6c-1.5,10.9,2.9,22.3,13.2,27.3c9,4.4,30,3.3,36.7-4.8
	C207.2,77.4,203.8,60.6,203.1,52.4z M255.9,5.7c0-4.6-12.6-3.9-12.7,1.2c0,20.9-0.5,41.9-1.4,62.8c-7-21-15.9-41.4-25.8-60.9
	c-1.3-3.8-11.6-3-12.5,0.9c0,0.1,0,0.2,0,0.4s0,0.2,0,0.5c2.1,25.1,2.8,50.9,0,76c-0.6,4.4,12.2,3.9,12.6-1.1
	c1.8-14.4,2.1-29,1.9-43.7c9.3,21.9,17.1,44.7,21.8,68.1c-0.2,2.1,2.6,3.1,5.5,3c3.7,0.1,7.7-1.5,7.1-4.1
	C254.7,74.5,255.8,40,255.9,5.7z M296.7,45.2c-9.2-6.4-25.4-8.5-29-20.4c-1.1-3.7-0.8-9.3,3.9-9.1c7.1,0.2,14,14.4,16.5,20.7
	c0,0.7,0.5,1.4,1.2,1.9c2.2,1.5,7.3,1.2,9.8-0.7c0.1-0.1,0.2-0.1,0.4-0.2c0.7-0.6,1.2-1.4,1.2-2.2c0.1-8.3,1.4-16.5,4.4-24.2
	c1.9-4.8-10.6-5.1-12.3-0.8c-0.9,2.5-1.8,5.1-2.4,7.8c-6.3-7-14.6-11.8-24-9.6c-9.1,2-14.2,11.3-10.5,19.9
	c7.1,16.9,30.8,15.5,39.5,31c6.7,11.9,1.7,29.6-15.1,25.6c-13.8-3.3-17.5-31.9-2.5-25.8c4,1.7,15.1-3,8.5-5.7
	c-15.1-6-35-0.2-30.9,19.6c4,19.4,28.6,23.2,43.9,15.6C318.4,79,311.8,55.6,296.7,45.2z"/>
</svg>
